<?xml version="1.0" encoding="UTF-8" standalone="no"?><svg xmlns="http://www.w3.org/2000/svg" xmlns:xlink="http://www.w3.org/1999/xlink" clip-rule="evenodd" stroke-miterlimit="4.00" viewBox="0 0 1920 800"><desc>SVG generated by Keynote</desc><defs><linearGradient id="gradSh1.26" x1="0.0" y1="0.0" x2="100.0" y2="0.0" gradientUnits="userSpaceOnUse" gradientTransform="matrix(0.00, -0.77, -2.48, 0.00, 513.2, 248.1)"><stop offset="0.00000" stop-color="#008C91"></stop><stop offset="1.00000" stop-color="#008C91"></stop></linearGradient><linearGradient id="gradSh1.27" x1="0.0" y1="0.0" x2="100.0" y2="0.0" gradientUnits="userSpaceOnUse" gradientTransform="matrix(0.00, -0.77, -2.76, 0.00, 191.9, 248.1)"><stop offset="0.00000" stop-color="#008C91"></stop><stop offset="1.00000" stop-color="#008C91"></stop></linearGradient></defs><g transform="matrix(1.00, 0.00, -0.00, -1.00, 0.0, 800.0)"><path d="M 0.0 800.0 L 1920.0 800.0 L 1920.0 0.0 L 0.0 0.0 Z M 0.0 800.0 " fill="#52575F"></path><text xml:space="preserve" font-family="Helvetica-Light" font-size="38.0" fill="#FEFFFF" transform="matrix(1.00, 0.00, -0.00, -1.00, 55.0, 643.0)">Y</text><text xml:space="preserve" font-family="Helvetica-Light" font-size="38.0" fill="#FEFFFF" transform="matrix(1.00, 0.00, -0.00, -1.00, 74.7, 643.0)">o</text><text xml:space="preserve" font-family="Helvetica-Light" font-size="38.0" fill="#FEFFFF" transform="matrix(1.00, 0.00, -0.00, -1.00, 95.8, 643.0)">u</text><text xml:space="preserve" font-family="Helvetica-Light" font-size="38.0" fill="#FEFFFF" transform="matrix(1.00, 0.00, -0.00, -1.00, 117.0, 643.0)"> </text><text xml:space="preserve" font-family="Helvetica-Light" font-size="38.0" fill="#FEFFFF" transform="matrix(1.00, 0.00, -0.00, -1.00, 127.5, 643.0)">d</text><text xml:space="preserve" font-family="Helvetica-Light" font-size="38.0" fill="#FEFFFF" transform="matrix(1.00, 0.00, -0.00, -1.00, 150.8, 643.0)">e</text><text xml:space="preserve" font-family="Helvetica-Light" font-size="38.0" fill="#FEFFFF" transform="matrix(1.00, 0.00, -0.00, -1.00, 171.9, 643.0)">c</text><text xml:space="preserve" font-family="Helvetica-Light" font-size="38.0" fill="#FEFFFF" transform="matrix(1.00, 0.00, -0.00, -1.00, 193.0, 643.0)">i</text><text xml:space="preserve" font-family="Helvetica-Light" font-size="38.0" fill="#FEFFFF" transform="matrix(1.00, 0.00, -0.00, -1.00, 201.5, 643.0)">d</text><text xml:space="preserve" font-family="Helvetica-Light" font-size="38.0" fill="#FEFFFF" transform="matrix(1.00, 0.00, -0.00, -1.00, 224.7, 643.0)">e</text><text xml:space="preserve" font-family="Helvetica-Light" font-size="38.0" fill="#FEFFFF" transform="matrix(1.00, 0.00, -0.00, -1.00, 245.8, 643.0)">d</text><text xml:space="preserve" font-family="Helvetica-Light" font-size="38.0" fill="#FEFFFF" transform="matrix(1.00, 0.00, -0.00, -1.00, 269.0, 643.0)"> </text><text xml:space="preserve" font-family="Helvetica-Light" font-size="38.0" fill="#FEFFFF" transform="matrix(1.00, 0.00, -0.00, -1.00, 279.6, 643.0)">t</text><text xml:space="preserve" font-family="Helvetica-Light" font-size="38.0" fill="#FEFFFF" transform="matrix(1.00, 0.00, -0.00, -1.00, 290.1, 643.0)">o</text><text xml:space="preserve" font-family="Helvetica-Light" font-size="38.0" fill="#FEFFFF" transform="matrix(1.00, 0.00, -0.00, -1.00, 311.3, 643.0)"> </text><text xml:space="preserve" font-family="Helvetica-Light" font-size="38.0" fill="#FEFFFF" transform="matrix(1.00, 0.00, -0.00, -1.00, 321.8, 643.0)">g</text><text xml:space="preserve" font-family="Helvetica-Light" font-size="38.0" fill="#FEFFFF" transform="matrix(1.00, 0.00, -0.00, -1.00, 345.1, 643.0)">o</text><text xml:space="preserve" font-family="Helvetica-Light" font-size="38.0" fill="#FEFFFF" transform="matrix(1.00, 0.00, -0.00, -1.00, 366.2, 643.0)"> </text><text xml:space="preserve" font-family="Helvetica-Light" font-size="38.0" fill="#FEFFFF" transform="matrix(1.00, 0.00, -0.00, -1.00, 376.7, 643.0)">t</text><text xml:space="preserve" font-family="Helvetica-Light" font-size="38.0" fill="#FEFFFF" transform="matrix(1.00, 0.00, -0.00, -1.00, 387.3, 643.0)">o</text><text xml:space="preserve" font-family="Helvetica-Light" font-size="38.0" fill="#FEFFFF" transform="matrix(1.00, 0.00, -0.00, -1.00, 408.4, 643.0)"> </text><text xml:space="preserve" font-family="Helvetica-Light" font-size="38.0" fill="#FEFFFF" transform="matrix(1.00, 0.00, -0.00, -1.00, 419.0, 643.0)">t</text><text xml:space="preserve" font-family="Helvetica-Light" font-size="38.0" fill="#FEFFFF" transform="matrix(1.00, 0.00, -0.00, -1.00, 429.6, 643.0)">h</text><text xml:space="preserve" font-family="Helvetica-Light" font-size="38.0" fill="#FEFFFF" transform="matrix(1.00, 0.00, -0.00, -1.00, 450.7, 643.0)">e</text><text xml:space="preserve" font-family="Helvetica-Light" font-size="38.0" fill="#FEFFFF" transform="matrix(1.00, 0.00, -0.00, -1.00, 471.8, 643.0)"> </text><text xml:space="preserve" font-family="Helvetica-Light" font-size="38.0" fill="#FEFFFF" transform="matrix(1.00, 0.00, -0.00, -1.00, 482.4, 643.0)">d</text><text xml:space="preserve" font-family="Helvetica-Light" font-size="38.0" fill="#FEFFFF" transform="matrix(1.00, 0.00, -0.00, -1.00, 505.6, 643.0)">o</text><text xml:space="preserve" font-family="Helvetica-Light" font-size="38.0" fill="#FEFFFF" transform="matrix(1.00, 0.00, -0.00, -1.00, 526.7, 643.0)">g</text><text xml:space="preserve" font-family="Helvetica-Light" font-size="38.0" fill="#FEFFFF" transform="matrix(1.00, 0.00, -0.00, -1.00, 550.0, 643.0)"> </text><text xml:space="preserve" font-family="Helvetica-Light" font-size="38.0" fill="#FEFFFF" transform="matrix(1.00, 0.00, -0.00, -1.00, 560.5, 643.0)">p</text><text xml:space="preserve" font-family="Helvetica-Light" font-size="38.0" fill="#FEFFFF" transform="matrix(1.00, 0.00, -0.00, -1.00, 583.7, 643.0)">a</text><text xml:space="preserve" font-family="Helvetica-Light" font-size="38.0" fill="#FEFFFF" transform="matrix(1.00, 0.00, -0.00, -1.00, 604.9, 643.0)">r</text><text xml:space="preserve" font-family="Helvetica-Light" font-size="38.0" fill="#FEFFFF" transform="matrix(1.00, 0.00, -0.00, -1.00, 617.5, 643.0)">k</text><text xml:space="preserve" font-family="Helvetica-Light" font-size="38.0" fill="#FEFFFF" transform="matrix(1.00, 0.00, -0.00, -1.00, 636.5, 643.0)"> </text><text xml:space="preserve" font-family="Helvetica-Light" font-size="38.0" fill="#FEFFFF" transform="matrix(1.00, 0.00, -0.00, -1.00, 647.1, 643.0)">a</text><text xml:space="preserve" font-family="Helvetica-Light" font-size="38.0" fill="#FEFFFF" transform="matrix(1.00, 0.00, -0.00, -1.00, 668.2, 643.0)">n</text><text xml:space="preserve" font-family="Helvetica-Light" font-size="38.0" fill="#FEFFFF" transform="matrix(1.00, 0.00, -0.00, -1.00, 689.3, 643.0)">d</text><text xml:space="preserve" font-family="Helvetica-Light" font-size="38.0" fill="#FEFFFF" transform="matrix(1.00, 0.00, -0.00, -1.00, 712.6, 643.0)"> </text><text xml:space="preserve" font-family="Helvetica-Light" font-size="38.0" fill="#FEFFFF" transform="matrix(1.00, 0.00, -0.00, -1.00, 55.0, 597.0)">i</text><text xml:space="preserve" font-family="Helvetica-Light" font-size="38.0" fill="#FEFFFF" transform="matrix(1.00, 0.00, -0.00, -1.00, 63.4, 597.0)">t</text><text xml:space="preserve" font-family="Helvetica-Light" font-size="38.0" fill="#FEFFFF" transform="matrix(1.00, 0.00, -0.00, -1.00, 74.0, 597.0)"> </text><text xml:space="preserve" font-family="Helvetica-Light" font-size="38.0" fill="#FEFFFF" transform="matrix(1.00, 0.00, -0.00, -1.00, 84.6, 597.0)">i</text><text xml:space="preserve" font-family="Helvetica-Light" font-size="38.0" fill="#FEFFFF" transform="matrix(1.00, 0.00, -0.00, -1.00, 93.0, 597.0)">s</text><text xml:space="preserve" font-family="Helvetica-Light" font-size="38.0" fill="#FEFFFF" transform="matrix(1.00, 0.00, -0.00, -1.00, 112.0, 597.0)"> </text><text xml:space="preserve" font-family="Helvetica-Light" font-size="38.0" fill="#FEFFFF" transform="matrix(1.00, 0.00, -0.00, -1.00, 122.6, 597.0)">s</text><text xml:space="preserve" font-family="Helvetica-Light" font-size="38.0" fill="#FEFFFF" transform="matrix(1.00, 0.00, -0.00, -1.00, 141.6, 597.0)">u</text><text xml:space="preserve" font-family="Helvetica-Light" font-size="38.0" fill="#FEFFFF" transform="matrix(1.00, 0.00, -0.00, -1.00, 162.7, 597.0)">c</text><text xml:space="preserve" font-family="Helvetica-Light" font-size="38.0" fill="#FEFFFF" transform="matrix(1.00, 0.00, -0.00, -1.00, 183.8, 597.0)">h</text><text xml:space="preserve" font-family="Helvetica-Light" font-size="38.0" fill="#FEFFFF" transform="matrix(1.00, 0.00, -0.00, -1.00, 204.9, 597.0)"> </text><text xml:space="preserve" font-family="Helvetica-Light" font-size="38.0" fill="#FEFFFF" transform="matrix(1.00, 0.00, -0.00, -1.00, 215.5, 597.0)">a</text><text xml:space="preserve" font-family="Helvetica-Light" font-size="38.0" fill="#FEFFFF" transform="matrix(1.00, 0.00, -0.00, -1.00, 236.6, 597.0)"> </text><text xml:space="preserve" font-family="Helvetica-Light" font-size="38.0" fill="#FEFFFF" transform="matrix(1.00, 0.00, -0.00, -1.00, 247.2, 597.0)">b</text><text xml:space="preserve" font-family="Helvetica-Light" font-size="38.0" fill="#FEFFFF" transform="matrix(1.00, 0.00, -0.00, -1.00, 270.4, 597.0)">e</text><text xml:space="preserve" font-family="Helvetica-Light" font-size="38.0" fill="#FEFFFF" transform="matrix(1.00, 0.00, -0.00, -1.00, 291.5, 597.0)">a</text><text xml:space="preserve" font-family="Helvetica-Light" font-size="38.0" fill="#FEFFFF" transform="matrix(1.00, 0.00, -0.00, -1.00, 312.7, 597.0)">u</text><text xml:space="preserve" font-family="Helvetica-Light" font-size="38.0" fill="#FEFFFF" transform="matrix(1.00, 0.00, -0.00, -1.00, 333.8, 597.0)">t</text><text xml:space="preserve" font-family="Helvetica-Light" font-size="38.0" fill="#FEFFFF" transform="matrix(1.00, 0.00, -0.00, -1.00, 344.4, 597.0)">i</text><text xml:space="preserve" font-family="Helvetica-Light" font-size="38.0" fill="#FEFFFF" transform="matrix(1.00, 0.00, -0.00, -1.00, 352.8, 597.0)">f</text><text xml:space="preserve" font-family="Helvetica-Light" font-size="38.0" fill="#FEFFFF" transform="matrix(1.00, 0.00, -0.00, -1.00, 363.4, 597.0)">u</text><text xml:space="preserve" font-family="Helvetica-Light" font-size="38.0" fill="#FEFFFF" transform="matrix(1.00, 0.00, -0.00, -1.00, 384.5, 597.0)">l</text><text xml:space="preserve" font-family="Helvetica-Light" font-size="38.0" fill="#FEFFFF" transform="matrix(1.00, 0.00, -0.00, -1.00, 392.9, 597.0)"> </text><text xml:space="preserve" font-family="Helvetica-Light" font-size="38.0" fill="#FEFFFF" transform="matrix(1.00, 0.00, -0.00, -1.00, 403.5, 597.0)">d</text><text xml:space="preserve" font-family="Helvetica-Light" font-size="38.0" fill="#FEFFFF" transform="matrix(1.00, 0.00, -0.00, -1.00, 426.7, 597.0)">a</text><text xml:space="preserve" font-family="Helvetica-Light" font-size="38.0" fill="#FEFFFF" transform="matrix(1.00, 0.00, -0.00, -1.00, 447.8, 597.0)">y</text><text xml:space="preserve" font-family="Helvetica-Light" font-size="38.0" fill="#FEFFFF" transform="matrix(1.00, 0.00, -0.00, -1.00, 463.3, 597.0)">.</text><text xml:space="preserve" font-family="Helvetica-Light" font-size="38.0" fill="#FEFFFF" transform="matrix(1.00, 0.00, -0.00, -1.00, 473.9, 597.0)"> </text><text xml:space="preserve" font-family="Helvetica-Light" font-size="38.0" fill="#FEFFFF" transform="matrix(1.00, 0.00, -0.00, -1.00, 484.5, 597.0)">A</text><text xml:space="preserve" font-family="Helvetica-Light" font-size="38.0" fill="#FEFFFF" transform="matrix(1.00, 0.00, -0.00, -1.00, 509.8, 597.0)">s</text><text xml:space="preserve" font-family="Helvetica-Light" font-size="38.0" fill="#FEFFFF" transform="matrix(1.00, 0.00, -0.00, -1.00, 528.8, 597.0)"> </text><text xml:space="preserve" font-family="Helvetica-Light" font-size="38.0" fill="#FEFFFF" transform="matrix(1.00, 0.00, -0.00, -1.00, 539.4, 597.0)">y</text><text xml:space="preserve" font-family="Helvetica-Light" font-size="38.0" fill="#FEFFFF" transform="matrix(1.00, 0.00, -0.00, -1.00, 558.4, 597.0)">o</text><text xml:space="preserve" font-family="Helvetica-Light" font-size="38.0" fill="#FEFFFF" transform="matrix(1.00, 0.00, -0.00, -1.00, 579.5, 597.0)">u</text><text xml:space="preserve" font-family="Helvetica-Light" font-size="38.0" fill="#FEFFFF" transform="matrix(1.00, 0.00, -0.00, -1.00, 600.6, 597.0)"> </text><text xml:space="preserve" font-family="Helvetica-Light" font-size="38.0" fill="#FEFFFF" transform="matrix(1.00, 0.00, -0.00, -1.00, 611.2, 597.0)">g</text><text xml:space="preserve" font-family="Helvetica-Light" font-size="38.0" fill="#FEFFFF" transform="matrix(1.00, 0.00, -0.00, -1.00, 634.4, 597.0)">e</text><text xml:space="preserve" font-family="Helvetica-Light" font-size="38.0" fill="#FEFFFF" transform="matrix(1.00, 0.00, -0.00, -1.00, 655.6, 597.0)">t</text><text xml:space="preserve" font-family="Helvetica-Light" font-size="38.0" fill="#FEFFFF" transform="matrix(1.00, 0.00, -0.00, -1.00, 666.1, 597.0)"> </text><text xml:space="preserve" font-family="Helvetica-Light" font-size="38.0" fill="#FEFFFF" transform="matrix(1.00, 0.00, -0.00, -1.00, 55.0, 551.0)">c</text><text xml:space="preserve" font-family="Helvetica-Light" font-size="38.0" fill="#FEFFFF" transform="matrix(1.00, 0.00, -0.00, -1.00, 76.1, 551.0)">l</text><text xml:space="preserve" font-family="Helvetica-Light" font-size="38.0" fill="#FEFFFF" transform="matrix(1.00, 0.00, -0.00, -1.00, 84.6, 551.0)">o</text><text xml:space="preserve" font-family="Helvetica-Light" font-size="38.0" fill="#FEFFFF" transform="matrix(1.00, 0.00, -0.00, -1.00, 105.7, 551.0)">s</text><text xml:space="preserve" font-family="Helvetica-Light" font-size="38.0" fill="#FEFFFF" transform="matrix(1.00, 0.00, -0.00, -1.00, 124.7, 551.0)">e</text><text xml:space="preserve" font-family="Helvetica-Light" font-size="38.0" fill="#FEFFFF" transform="matrix(1.00, 0.00, -0.00, -1.00, 145.8, 551.0)">r</text><text xml:space="preserve" font-family="Helvetica-Light" font-size="38.0" fill="#FEFFFF" transform="matrix(1.00, 0.00, -0.00, -1.00, 158.5, 551.0)"> </text><text xml:space="preserve" font-family="Helvetica-Light" font-size="38.0" fill="#FEFFFF" transform="matrix(1.00, 0.00, -0.00, -1.00, 169.0, 551.0)">y</text><text xml:space="preserve" font-family="Helvetica-Light" font-size="38.0" fill="#FEFFFF" transform="matrix(1.00, 0.00, -0.00, -1.00, 188.0, 551.0)">o</text><text xml:space="preserve" font-family="Helvetica-Light" font-size="38.0" fill="#FEFFFF" transform="matrix(1.00, 0.00, -0.00, -1.00, 209.2, 551.0)">u</text><text xml:space="preserve" font-family="Helvetica-Light" font-size="38.0" fill="#FEFFFF" transform="matrix(1.00, 0.00, -0.00, -1.00, 230.3, 551.0)"> </text><text xml:space="preserve" font-family="Helvetica-Light" font-size="38.0" fill="#FEFFFF" transform="matrix(1.00, 0.00, -0.00, -1.00, 240.9, 551.0)">c</text><text xml:space="preserve" font-family="Helvetica-Light" font-size="38.0" fill="#FEFFFF" transform="matrix(1.00, 0.00, -0.00, -1.00, 262.0, 551.0)">a</text><text xml:space="preserve" font-family="Helvetica-Light" font-size="38.0" fill="#FEFFFF" transform="matrix(1.00, 0.00, -0.00, -1.00, 283.1, 551.0)">n</text><text xml:space="preserve" font-family="Helvetica-Light" font-size="38.0" fill="#FEFFFF" transform="matrix(1.00, 0.00, -0.00, -1.00, 304.2, 551.0)"> </text><text xml:space="preserve" font-family="Helvetica-Light" font-size="38.0" fill="#FEFFFF" transform="matrix(1.00, 0.00, -0.00, -1.00, 314.8, 551.0)">s</text><text xml:space="preserve" font-family="Helvetica-Light" font-size="38.0" fill="#FEFFFF" transform="matrix(1.00, 0.00, -0.00, -1.00, 333.8, 551.0)">e</text><text xml:space="preserve" font-family="Helvetica-Light" font-size="38.0" fill="#FEFFFF" transform="matrix(1.00, 0.00, -0.00, -1.00, 354.9, 551.0)">e</text><text xml:space="preserve" font-family="Helvetica-Light" font-size="38.0" fill="#FEFFFF" transform="matrix(1.00, 0.00, -0.00, -1.00, 376.1, 551.0)"> </text><text xml:space="preserve" font-family="Helvetica-Light" font-size="38.0" fill="#FEFFFF" transform="matrix(1.00, 0.00, -0.00, -1.00, 386.6, 551.0)">t</text><text xml:space="preserve" font-family="Helvetica-Light" font-size="38.0" fill="#FEFFFF" transform="matrix(1.00, 0.00, -0.00, -1.00, 397.2, 551.0)">h</text><text xml:space="preserve" font-family="Helvetica-Light" font-size="38.0" fill="#FEFFFF" transform="matrix(1.00, 0.00, -0.00, -1.00, 418.3, 551.0)">a</text><text xml:space="preserve" font-family="Helvetica-Light" font-size="38.0" fill="#FEFFFF" transform="matrix(1.00, 0.00, -0.00, -1.00, 439.4, 551.0)">t</text><text xml:space="preserve" font-family="Helvetica-Light" font-size="38.0" fill="#FEFFFF" transform="matrix(1.00, 0.00, -0.00, -1.00, 450.0, 551.0)"> </text><text xml:space="preserve" font-family="Helvetica-Light" font-size="38.0" fill="#FEFFFF" transform="matrix(1.00, 0.00, -0.00, -1.00, 460.6, 551.0)">t</text><text xml:space="preserve" font-family="Helvetica-Light" font-size="38.0" fill="#FEFFFF" transform="matrix(1.00, 0.00, -0.00, -1.00, 471.1, 551.0)">h</text><text xml:space="preserve" font-family="Helvetica-Light" font-size="38.0" fill="#FEFFFF" transform="matrix(1.00, 0.00, -0.00, -1.00, 492.3, 551.0)">e</text><text xml:space="preserve" font-family="Helvetica-Light" font-size="38.0" fill="#FEFFFF" transform="matrix(1.00, 0.00, -0.00, -1.00, 513.4, 551.0)">r</text><text xml:space="preserve" font-family="Helvetica-Light" font-size="38.0" fill="#FEFFFF" transform="matrix(1.00, 0.00, -0.00, -1.00, 525.4, 551.0)">e</text><text xml:space="preserve" font-family="Helvetica-Light" font-size="38.0" fill="#FEFFFF" transform="matrix(1.00, 0.00, -0.00, -1.00, 546.5, 551.0)"> </text><text xml:space="preserve" font-family="Helvetica-Light" font-size="38.0" fill="#FEFFFF" transform="matrix(1.00, 0.00, -0.00, -1.00, 557.1, 551.0)">a</text><text xml:space="preserve" font-family="Helvetica-Light" font-size="38.0" fill="#FEFFFF" transform="matrix(1.00, 0.00, -0.00, -1.00, 578.2, 551.0)">r</text><text xml:space="preserve" font-family="Helvetica-Light" font-size="38.0" fill="#FEFFFF" transform="matrix(1.00, 0.00, -0.00, -1.00, 590.2, 551.0)">e</text><text xml:space="preserve" font-family="Helvetica-Light" font-size="38.0" fill="#FEFFFF" transform="matrix(1.00, 0.00, -0.00, -1.00, 611.3, 551.0)"> </text><text xml:space="preserve" font-family="Helvetica-Light" font-size="38.0" fill="#FEFFFF" transform="matrix(1.00, 0.00, -0.00, -1.00, 55.0, 505.0)">s</text><text xml:space="preserve" font-family="Helvetica-Light" font-size="38.0" fill="#FEFFFF" transform="matrix(1.00, 0.00, -0.00, -1.00, 74.0, 505.0)">e</text><text xml:space="preserve" font-family="Helvetica-Light" font-size="38.0" fill="#FEFFFF" transform="matrix(1.00, 0.00, -0.00, -1.00, 95.1, 505.0)">v</text><text xml:space="preserve" font-family="Helvetica-Light" font-size="38.0" fill="#FEFFFF" transform="matrix(1.00, 0.00, -0.00, -1.00, 114.1, 505.0)">e</text><text xml:space="preserve" font-family="Helvetica-Light" font-size="38.0" fill="#FEFFFF" transform="matrix(1.00, 0.00, -0.00, -1.00, 135.3, 505.0)">r</text><text xml:space="preserve" font-family="Helvetica-Light" font-size="38.0" fill="#FEFFFF" transform="matrix(1.00, 0.00, -0.00, -1.00, 147.9, 505.0)">a</text><text xml:space="preserve" font-family="Helvetica-Light" font-size="38.0" fill="#FEFFFF" transform="matrix(1.00, 0.00, -0.00, -1.00, 169.0, 505.0)">l</text><text xml:space="preserve" font-family="Helvetica-Light" font-size="38.0" fill="#FEFFFF" transform="matrix(1.00, 0.00, -0.00, -1.00, 177.5, 505.0)"> </text><text xml:space="preserve" font-family="Helvetica-Light" font-size="38.0" fill="#FEFFFF" transform="matrix(1.00, 0.00, -0.00, -1.00, 188.0, 505.0)">p</text><text xml:space="preserve" font-family="Helvetica-Light" font-size="38.0" fill="#FEFFFF" transform="matrix(1.00, 0.00, -0.00, -1.00, 211.3, 505.0)">e</text><text xml:space="preserve" font-family="Helvetica-Light" font-size="38.0" fill="#FEFFFF" transform="matrix(1.00, 0.00, -0.00, -1.00, 232.4, 505.0)">o</text><text xml:space="preserve" font-family="Helvetica-Light" font-size="38.0" fill="#FEFFFF" transform="matrix(1.00, 0.00, -0.00, -1.00, 253.5, 505.0)">p</text><text xml:space="preserve" font-family="Helvetica-Light" font-size="38.0" fill="#FEFFFF" transform="matrix(1.00, 0.00, -0.00, -1.00, 276.7, 505.0)">l</text><text xml:space="preserve" font-family="Helvetica-Light" font-size="38.0" fill="#FEFFFF" transform="matrix(1.00, 0.00, -0.00, -1.00, 285.2, 505.0)">e</text><text xml:space="preserve" font-family="Helvetica-Light" font-size="38.0" fill="#FEFFFF" transform="matrix(1.00, 0.00, -0.00, -1.00, 306.3, 505.0)"> </text><text xml:space="preserve" font-family="Helvetica-Light" font-size="38.0" fill="#FEFFFF" transform="matrix(1.00, 0.00, -0.00, -1.00, 316.9, 505.0)">a</text><text xml:space="preserve" font-family="Helvetica-Light" font-size="38.0" fill="#FEFFFF" transform="matrix(1.00, 0.00, -0.00, -1.00, 338.0, 505.0)">t</text><text xml:space="preserve" font-family="Helvetica-Light" font-size="38.0" fill="#FEFFFF" transform="matrix(1.00, 0.00, -0.00, -1.00, 348.5, 505.0)"> </text><text xml:space="preserve" font-family="Helvetica-Light" font-size="38.0" fill="#FEFFFF" transform="matrix(1.00, 0.00, -0.00, -1.00, 359.1, 505.0)">t</text><text xml:space="preserve" font-family="Helvetica-Light" font-size="38.0" fill="#FEFFFF" transform="matrix(1.00, 0.00, -0.00, -1.00, 369.7, 505.0)">h</text><text xml:space="preserve" font-family="Helvetica-Light" font-size="38.0" fill="#FEFFFF" transform="matrix(1.00, 0.00, -0.00, -1.00, 390.8, 505.0)">e</text><text xml:space="preserve" font-family="Helvetica-Light" font-size="38.0" fill="#FEFFFF" transform="matrix(1.00, 0.00, -0.00, -1.00, 411.9, 505.0)"> </text><text xml:space="preserve" font-family="Helvetica-Light" font-size="38.0" fill="#FEFFFF" transform="matrix(1.00, 0.00, -0.00, -1.00, 422.5, 505.0)">d</text><text xml:space="preserve" font-family="Helvetica-Light" font-size="38.0" fill="#FEFFFF" transform="matrix(1.00, 0.00, -0.00, -1.00, 445.7, 505.0)">o</text><text xml:space="preserve" font-family="Helvetica-Light" font-size="38.0" fill="#FEFFFF" transform="matrix(1.00, 0.00, -0.00, -1.00, 466.8, 505.0)">g</text><text xml:space="preserve" font-family="Helvetica-Light" font-size="38.0" fill="#FEFFFF" transform="matrix(1.00, 0.00, -0.00, -1.00, 490.1, 505.0)"> </text><text xml:space="preserve" font-family="Helvetica-Light" font-size="38.0" fill="#FEFFFF" transform="matrix(1.00, 0.00, -0.00, -1.00, 500.6, 505.0)">p</text><text xml:space="preserve" font-family="Helvetica-Light" font-size="38.0" fill="#FEFFFF" transform="matrix(1.00, 0.00, -0.00, -1.00, 523.8, 505.0)">a</text><text xml:space="preserve" font-family="Helvetica-Light" font-size="38.0" fill="#FEFFFF" transform="matrix(1.00, 0.00, -0.00, -1.00, 545.0, 505.0)">r</text><text xml:space="preserve" font-family="Helvetica-Light" font-size="38.0" fill="#FEFFFF" transform="matrix(1.00, 0.00, -0.00, -1.00, 557.6, 505.0)">k</text><text xml:space="preserve" font-family="Helvetica-Light" font-size="38.0" fill="#FEFFFF" transform="matrix(1.00, 0.00, -0.00, -1.00, 576.6, 505.0)"> </text><text xml:space="preserve" font-family="Helvetica-Light" font-size="38.0" fill="#FEFFFF" transform="matrix(1.00, 0.00, -0.00, -1.00, 587.2, 505.0)">a</text><text xml:space="preserve" font-family="Helvetica-Light" font-size="38.0" fill="#FEFFFF" transform="matrix(1.00, 0.00, -0.00, -1.00, 608.3, 505.0)">s</text><text xml:space="preserve" font-family="Helvetica-Light" font-size="38.0" fill="#FEFFFF" transform="matrix(1.00, 0.00, -0.00, -1.00, 627.3, 505.0)"> </text><text xml:space="preserve" font-family="Helvetica-Light" font-size="38.0" fill="#FEFFFF" transform="matrix(1.00, 0.00, -0.00, -1.00, 637.9, 505.0)">w</text><text xml:space="preserve" font-family="Helvetica-Light" font-size="38.0" fill="#FEFFFF" transform="matrix(1.00, 0.00, -0.00, -1.00, 665.3, 505.0)">e</text><text xml:space="preserve" font-family="Helvetica-Light" font-size="38.0" fill="#FEFFFF" transform="matrix(1.00, 0.00, -0.00, -1.00, 686.4, 505.0)">l</text><text xml:space="preserve" font-family="Helvetica-Light" font-size="38.0" fill="#FEFFFF" transform="matrix(1.00, 0.00, -0.00, -1.00, 694.9, 505.0)">l</text><text xml:space="preserve" font-family="Helvetica-Light" font-size="38.0" fill="#FEFFFF" transform="matrix(1.00, 0.00, -0.00, -1.00, 703.3, 505.0)">.</text><text xml:space="preserve" font-family="Helvetica-Light" font-size="38.0" fill="#FEFFFF" transform="matrix(1.00, 0.00, -0.00, -1.00, 713.9, 505.0)"> </text><text xml:space="preserve" font-family="Helvetica-Light" font-size="38.0" fill="#FEFFFF" transform="matrix(1.00, 0.00, -0.00, -1.00, 55.0, 459.0)">D</text><text xml:space="preserve" font-family="Helvetica-Light" font-size="38.0" fill="#FEFFFF" transform="matrix(1.00, 0.00, -0.00, -1.00, 82.4, 459.0)">o</text><text xml:space="preserve" font-family="Helvetica-Light" font-size="38.0" fill="#FEFFFF" transform="matrix(1.00, 0.00, -0.00, -1.00, 103.6, 459.0)"> </text><text xml:space="preserve" font-family="Helvetica-Light" font-size="38.0" fill="#FEFFFF" transform="matrix(1.00, 0.00, -0.00, -1.00, 114.1, 459.0)">y</text><text xml:space="preserve" font-family="Helvetica-Light" font-size="38.0" fill="#FEFFFF" transform="matrix(1.00, 0.00, -0.00, -1.00, 133.1, 459.0)">o</text><text xml:space="preserve" font-family="Helvetica-Light" font-size="38.0" fill="#FEFFFF" transform="matrix(1.00, 0.00, -0.00, -1.00, 154.3, 459.0)">u</text><text xml:space="preserve" font-family="Helvetica-Light" font-size="38.0" fill="#FEFFFF" transform="matrix(1.00, 0.00, -0.00, -1.00, 175.4, 459.0)"> </text><text xml:space="preserve" font-family="Helvetica-Light" font-size="38.0" fill="#FEFFFF" transform="matrix(1.00, 0.00, -0.00, -1.00, 185.9, 459.0)">s</text><text xml:space="preserve" font-family="Helvetica-Light" font-size="38.0" fill="#FEFFFF" transform="matrix(1.00, 0.00, -0.00, -1.00, 204.9, 459.0)">a</text><text xml:space="preserve" font-family="Helvetica-Light" font-size="38.0" fill="#FEFFFF" transform="matrix(1.00, 0.00, -0.00, -1.00, 226.1, 459.0)">y</text><text xml:space="preserve" font-family="Helvetica-Light" font-size="38.0" fill="#FEFFFF" transform="matrix(1.00, 0.00, -0.00, -1.00, 245.1, 459.0)"> </text><text xml:space="preserve" font-family="Helvetica-Light" font-size="38.0" fill="#FEFFFF" transform="matrix(1.00, 0.00, -0.00, -1.00, 255.6, 459.0)">h</text><text xml:space="preserve" font-family="Helvetica-Light" font-size="38.0" fill="#FEFFFF" transform="matrix(1.00, 0.00, -0.00, -1.00, 276.8, 459.0)">i</text><text xml:space="preserve" font-family="Helvetica-Light" font-size="38.0" fill="#FEFFFF" transform="matrix(1.00, 0.00, -0.00, -1.00, 285.2, 459.0)"> </text><text xml:space="preserve" font-family="Helvetica-Light" font-size="38.0" fill="#FEFFFF" transform="matrix(1.00, 0.00, -0.00, -1.00, 295.8, 459.0)">a</text><text xml:space="preserve" font-family="Helvetica-Light" font-size="38.0" fill="#FEFFFF" transform="matrix(1.00, 0.00, -0.00, -1.00, 316.9, 459.0)">n</text><text xml:space="preserve" font-family="Helvetica-Light" font-size="38.0" fill="#FEFFFF" transform="matrix(1.00, 0.00, -0.00, -1.00, 338.0, 459.0)">d</text><text xml:space="preserve" font-family="Helvetica-Light" font-size="38.0" fill="#FEFFFF" transform="matrix(1.00, 0.00, -0.00, -1.00, 361.2, 459.0)"> </text><text xml:space="preserve" font-family="Helvetica-Light" font-size="38.0" fill="#FEFFFF" transform="matrix(1.00, 0.00, -0.00, -1.00, 371.8, 459.0)">i</text><text xml:space="preserve" font-family="Helvetica-Light" font-size="38.0" fill="#FEFFFF" transform="matrix(1.00, 0.00, -0.00, -1.00, 380.2, 459.0)">n</text><text xml:space="preserve" font-family="Helvetica-Light" font-size="38.0" fill="#FEFFFF" transform="matrix(1.00, 0.00, -0.00, -1.00, 401.4, 459.0)">t</text><text xml:space="preserve" font-family="Helvetica-Light" font-size="38.0" fill="#FEFFFF" transform="matrix(1.00, 0.00, -0.00, -1.00, 411.9, 459.0)">r</text><text xml:space="preserve" font-family="Helvetica-Light" font-size="38.0" fill="#FEFFFF" transform="matrix(1.00, 0.00, -0.00, -1.00, 423.9, 459.0)">o</text><text xml:space="preserve" font-family="Helvetica-Light" font-size="38.0" fill="#FEFFFF" transform="matrix(1.00, 0.00, -0.00, -1.00, 445.0, 459.0)">d</text><text xml:space="preserve" font-family="Helvetica-Light" font-size="38.0" fill="#FEFFFF" transform="matrix(1.00, 0.00, -0.00, -1.00, 468.2, 459.0)">u</text><text xml:space="preserve" font-family="Helvetica-Light" font-size="38.0" fill="#FEFFFF" transform="matrix(1.00, 0.00, -0.00, -1.00, 489.4, 459.0)">c</text><text xml:space="preserve" font-family="Helvetica-Light" font-size="38.0" fill="#FEFFFF" transform="matrix(1.00, 0.00, -0.00, -1.00, 510.5, 459.0)">e</text><text xml:space="preserve" font-family="Helvetica-Light" font-size="38.0" fill="#FEFFFF" transform="matrix(1.00, 0.00, -0.00, -1.00, 531.6, 459.0)"> </text><text xml:space="preserve" font-family="Helvetica-Light" font-size="38.0" fill="#FEFFFF" transform="matrix(1.00, 0.00, -0.00, -1.00, 542.2, 459.0)">y</text><text xml:space="preserve" font-family="Helvetica-Light" font-size="38.0" fill="#FEFFFF" transform="matrix(1.00, 0.00, -0.00, -1.00, 561.2, 459.0)">o</text><text xml:space="preserve" font-family="Helvetica-Light" font-size="38.0" fill="#FEFFFF" transform="matrix(1.00, 0.00, -0.00, -1.00, 582.3, 459.0)">u</text><text xml:space="preserve" font-family="Helvetica-Light" font-size="38.0" fill="#FEFFFF" transform="matrix(1.00, 0.00, -0.00, -1.00, 603.5, 459.0)">r</text><text xml:space="preserve" font-family="Helvetica-Light" font-size="38.0" fill="#FEFFFF" transform="matrix(1.00, 0.00, -0.00, -1.00, 616.1, 459.0)">s</text><text xml:space="preserve" font-family="Helvetica-Light" font-size="38.0" fill="#FEFFFF" transform="matrix(1.00, 0.00, -0.00, -1.00, 635.1, 459.0)">e</text><text xml:space="preserve" font-family="Helvetica-Light" font-size="38.0" fill="#FEFFFF" transform="matrix(1.00, 0.00, -0.00, -1.00, 656.2, 459.0)">l</text><text xml:space="preserve" font-family="Helvetica-Light" font-size="38.0" fill="#FEFFFF" transform="matrix(1.00, 0.00, -0.00, -1.00, 664.7, 459.0)">f</text><text xml:space="preserve" font-family="Helvetica-Light" font-size="38.0" fill="#FEFFFF" transform="matrix(1.00, 0.00, -0.00, -1.00, 675.2, 459.0)"> </text><text xml:space="preserve" font-family="Helvetica-Light" font-size="38.0" fill="#FEFFFF" transform="matrix(1.00, 0.00, -0.00, -1.00, 55.0, 413.0)">w</text><text xml:space="preserve" font-family="Helvetica-Light" font-size="38.0" fill="#FEFFFF" transform="matrix(1.00, 0.00, -0.00, -1.00, 82.4, 413.0)">e</text><text xml:space="preserve" font-family="Helvetica-Light" font-size="38.0" fill="#FEFFFF" transform="matrix(1.00, 0.00, -0.00, -1.00, 103.6, 413.0)">n</text><text xml:space="preserve" font-family="Helvetica-Light" font-size="38.0" fill="#FEFFFF" transform="matrix(1.00, 0.00, -0.00, -1.00, 124.7, 413.0)">t</text><text xml:space="preserve" font-family="Helvetica-Light" font-size="38.0" fill="#FEFFFF" transform="matrix(1.00, 0.00, -0.00, -1.00, 135.3, 413.0)"> </text><text xml:space="preserve" font-family="Helvetica-Light" font-size="38.0" fill="#FEFFFF" transform="matrix(1.00, 0.00, -0.00, -1.00, 145.8, 413.0)">y</text><text xml:space="preserve" font-family="Helvetica-Light" font-size="38.0" fill="#FEFFFF" transform="matrix(1.00, 0.00, -0.00, -1.00, 164.8, 413.0)">o</text><text xml:space="preserve" font-family="Helvetica-Light" font-size="38.0" fill="#FEFFFF" transform="matrix(1.00, 0.00, -0.00, -1.00, 185.9, 413.0)">u</text><text xml:space="preserve" font-family="Helvetica-Light" font-size="38.0" fill="#FEFFFF" transform="matrix(1.00, 0.00, -0.00, -1.00, 207.1, 413.0)"> </text><text xml:space="preserve" font-family="Helvetica-Light" font-size="38.0" fill="#FEFFFF" transform="matrix(1.00, 0.00, -0.00, -1.00, 217.6, 413.0)">r</text><text xml:space="preserve" font-family="Helvetica-Light" font-size="38.0" fill="#FEFFFF" transform="matrix(1.00, 0.00, -0.00, -1.00, 229.6, 413.0)">e</text><text xml:space="preserve" font-family="Helvetica-Light" font-size="38.0" fill="#FEFFFF" transform="matrix(1.00, 0.00, -0.00, -1.00, 250.7, 413.0)">a</text><text xml:space="preserve" font-family="Helvetica-Light" font-size="38.0" fill="#FEFFFF" transform="matrix(1.00, 0.00, -0.00, -1.00, 271.9, 413.0)">c</text><text xml:space="preserve" font-family="Helvetica-Light" font-size="38.0" fill="#FEFFFF" transform="matrix(1.00, 0.00, -0.00, -1.00, 293.0, 413.0)">h</text><text xml:space="preserve" font-family="Helvetica-Light" font-size="38.0" fill="#FEFFFF" transform="matrix(1.00, 0.00, -0.00, -1.00, 314.1, 413.0)"> </text><text xml:space="preserve" font-family="Helvetica-Light" font-size="38.0" fill="#FEFFFF" transform="matrix(1.00, 0.00, -0.00, -1.00, 324.7, 413.0)">t</text><text xml:space="preserve" font-family="Helvetica-Light" font-size="38.0" fill="#FEFFFF" transform="matrix(1.00, 0.00, -0.00, -1.00, 335.2, 413.0)">h</text><text xml:space="preserve" font-family="Helvetica-Light" font-size="38.0" fill="#FEFFFF" transform="matrix(1.00, 0.00, -0.00, -1.00, 356.4, 413.0)">e</text><text xml:space="preserve" font-family="Helvetica-Light" font-size="38.0" fill="#FEFFFF" transform="matrix(1.00, 0.00, -0.00, -1.00, 377.5, 413.0)"> </text><text xml:space="preserve" font-family="Helvetica-Light" font-size="38.0" fill="#FEFFFF" transform="matrix(1.00, 0.00, -0.00, -1.00, 388.1, 413.0)">p</text><text xml:space="preserve" font-family="Helvetica-Light" font-size="38.0" fill="#FEFFFF" transform="matrix(1.00, 0.00, -0.00, -1.00, 411.3, 413.0)">a</text><text xml:space="preserve" font-family="Helvetica-Light" font-size="38.0" fill="#FEFFFF" transform="matrix(1.00, 0.00, -0.00, -1.00, 432.4, 413.0)">r</text><text xml:space="preserve" font-family="Helvetica-Light" font-size="38.0" fill="#FEFFFF" transform="matrix(1.00, 0.00, -0.00, -1.00, 445.1, 413.0)">k</text><text xml:space="preserve" font-family="Helvetica-Light" font-size="38.0" fill="#FEFFFF" transform="matrix(1.00, 0.00, -0.00, -1.00, 464.1, 413.0)"> </text><text xml:space="preserve" font-family="Helvetica-Light" font-size="38.0" fill="#FEFFFF" transform="matrix(1.00, 0.00, -0.00, -1.00, 474.6, 413.0)">o</text><text xml:space="preserve" font-family="Helvetica-Light" font-size="38.0" fill="#FEFFFF" transform="matrix(1.00, 0.00, -0.00, -1.00, 495.8, 413.0)">r</text><text xml:space="preserve" font-family="Helvetica-Light" font-size="38.0" fill="#FEFFFF" transform="matrix(1.00, 0.00, -0.00, -1.00, 508.4, 413.0)"> </text><text xml:space="preserve" font-family="Helvetica-Light" font-size="38.0" fill="#FEFFFF" transform="matrix(1.00, 0.00, -0.00, -1.00, 519.0, 413.0)">s</text><text xml:space="preserve" font-family="Helvetica-Light" font-size="38.0" fill="#FEFFFF" transform="matrix(1.00, 0.00, -0.00, -1.00, 538.0, 413.0)">t</text><text xml:space="preserve" font-family="Helvetica-Light" font-size="38.0" fill="#FEFFFF" transform="matrix(1.00, 0.00, -0.00, -1.00, 548.5, 413.0)">a</text><text xml:space="preserve" font-family="Helvetica-Light" font-size="38.0" fill="#FEFFFF" transform="matrix(1.00, 0.00, -0.00, -1.00, 569.7, 413.0)">y</text><text xml:space="preserve" font-family="Helvetica-Light" font-size="38.0" fill="#FEFFFF" transform="matrix(1.00, 0.00, -0.00, -1.00, 588.7, 413.0)"> </text><text xml:space="preserve" font-family="Helvetica-Light" font-size="38.0" fill="#FEFFFF" transform="matrix(1.00, 0.00, -0.00, -1.00, 599.2, 413.0)">t</text><text xml:space="preserve" font-family="Helvetica-Light" font-size="38.0" fill="#FEFFFF" transform="matrix(1.00, 0.00, -0.00, -1.00, 609.8, 413.0)">o</text><text xml:space="preserve" font-family="Helvetica-Light" font-size="38.0" fill="#FEFFFF" transform="matrix(1.00, 0.00, -0.00, -1.00, 630.9, 413.0)"> </text><text xml:space="preserve" font-family="Helvetica-Light" font-size="38.0" fill="#FEFFFF" transform="matrix(1.00, 0.00, -0.00, -1.00, 55.0, 367.0)">y</text><text xml:space="preserve" font-family="Helvetica-Light" font-size="38.0" fill="#FEFFFF" transform="matrix(1.00, 0.00, -0.00, -1.00, 74.0, 367.0)">o</text><text xml:space="preserve" font-family="Helvetica-Light" font-size="38.0" fill="#FEFFFF" transform="matrix(1.00, 0.00, -0.00, -1.00, 95.1, 367.0)">u</text><text xml:space="preserve" font-family="Helvetica-Light" font-size="38.0" fill="#FEFFFF" transform="matrix(1.00, 0.00, -0.00, -1.00, 116.3, 367.0)">r</text><text xml:space="preserve" font-family="Helvetica-Light" font-size="38.0" fill="#FEFFFF" transform="matrix(1.00, 0.00, -0.00, -1.00, 128.9, 367.0)">s</text><text xml:space="preserve" font-family="Helvetica-Light" font-size="38.0" fill="#FEFFFF" transform="matrix(1.00, 0.00, -0.00, -1.00, 147.9, 367.0)">e</text><text xml:space="preserve" font-family="Helvetica-Light" font-size="38.0" fill="#FEFFFF" transform="matrix(1.00, 0.00, -0.00, -1.00, 169.0, 367.0)">l</text><text xml:space="preserve" font-family="Helvetica-Light" font-size="38.0" fill="#FEFFFF" transform="matrix(1.00, 0.00, -0.00, -1.00, 177.5, 367.0)">f</text><text xml:space="preserve" font-family="Helvetica-Light" font-size="38.0" fill="#FEFFFF" transform="matrix(1.00, 0.00, -0.00, -1.00, 188.0, 367.0)"> </text><text xml:space="preserve" font-family="Helvetica-Light" font-size="38.0" fill="#FEFFFF" transform="matrix(1.00, 0.00, -0.00, -1.00, 198.6, 367.0)">a</text><text xml:space="preserve" font-family="Helvetica-Light" font-size="38.0" fill="#FEFFFF" transform="matrix(1.00, 0.00, -0.00, -1.00, 219.7, 367.0)">n</text><text xml:space="preserve" font-family="Helvetica-Light" font-size="38.0" fill="#FEFFFF" transform="matrix(1.00, 0.00, -0.00, -1.00, 240.9, 367.0)">d</text><text xml:space="preserve" font-family="Helvetica-Light" font-size="38.0" fill="#FEFFFF" transform="matrix(1.00, 0.00, -0.00, -1.00, 264.1, 367.0)"> </text><text xml:space="preserve" font-family="Helvetica-Light" font-size="38.0" fill="#FEFFFF" transform="matrix(1.00, 0.00, -0.00, -1.00, 274.6, 367.0)">m</text><text xml:space="preserve" font-family="Helvetica-Light" font-size="38.0" fill="#FEFFFF" transform="matrix(1.00, 0.00, -0.00, -1.00, 306.3, 367.0)">i</text><text xml:space="preserve" font-family="Helvetica-Light" font-size="38.0" fill="#FEFFFF" transform="matrix(1.00, 0.00, -0.00, -1.00, 314.7, 367.0)">n</text><text xml:space="preserve" font-family="Helvetica-Light" font-size="38.0" fill="#FEFFFF" transform="matrix(1.00, 0.00, -0.00, -1.00, 335.9, 367.0)">d</text><text xml:space="preserve" font-family="Helvetica-Light" font-size="38.0" fill="#FEFFFF" transform="matrix(1.00, 0.00, -0.00, -1.00, 359.1, 367.0)"> </text><text xml:space="preserve" font-family="Helvetica-Light" font-size="38.0" fill="#FEFFFF" transform="matrix(1.00, 0.00, -0.00, -1.00, 369.6, 367.0)">y</text><text xml:space="preserve" font-family="Helvetica-Light" font-size="38.0" fill="#FEFFFF" transform="matrix(1.00, 0.00, -0.00, -1.00, 388.6, 367.0)">o</text><text xml:space="preserve" font-family="Helvetica-Light" font-size="38.0" fill="#FEFFFF" transform="matrix(1.00, 0.00, -0.00, -1.00, 409.8, 367.0)">u</text><text xml:space="preserve" font-family="Helvetica-Light" font-size="38.0" fill="#FEFFFF" transform="matrix(1.00, 0.00, -0.00, -1.00, 430.9, 367.0)">r</text><text xml:space="preserve" font-family="Helvetica-Light" font-size="38.0" fill="#FEFFFF" transform="matrix(1.00, 0.00, -0.00, -1.00, 443.5, 367.0)"> </text><text xml:space="preserve" font-family="Helvetica-Light" font-size="38.0" fill="#FEFFFF" transform="matrix(1.00, 0.00, -0.00, -1.00, 454.1, 367.0)">o</text><text xml:space="preserve" font-family="Helvetica-Light" font-size="38.0" fill="#FEFFFF" transform="matrix(1.00, 0.00, -0.00, -1.00, 475.2, 367.0)">w</text><text xml:space="preserve" font-family="Helvetica-Light" font-size="38.0" fill="#FEFFFF" transform="matrix(1.00, 0.00, -0.00, -1.00, 502.7, 367.0)">n</text><text xml:space="preserve" font-family="Helvetica-Light" font-size="38.0" fill="#FEFFFF" transform="matrix(1.00, 0.00, -0.00, -1.00, 523.8, 367.0)"> </text><text xml:space="preserve" font-family="Helvetica-Light" font-size="38.0" fill="#FEFFFF" transform="matrix(1.00, 0.00, -0.00, -1.00, 534.4, 367.0)">b</text><text xml:space="preserve" font-family="Helvetica-Light" font-size="38.0" fill="#FEFFFF" transform="matrix(1.00, 0.00, -0.00, -1.00, 557.6, 367.0)">u</text><text xml:space="preserve" font-family="Helvetica-Light" font-size="38.0" fill="#FEFFFF" transform="matrix(1.00, 0.00, -0.00, -1.00, 578.7, 367.0)">s</text><text xml:space="preserve" font-family="Helvetica-Light" font-size="38.0" fill="#FEFFFF" transform="matrix(1.00, 0.00, -0.00, -1.00, 597.7, 367.0)">i</text><text xml:space="preserve" font-family="Helvetica-Light" font-size="38.0" fill="#FEFFFF" transform="matrix(1.00, 0.00, -0.00, -1.00, 606.2, 367.0)">n</text><text xml:space="preserve" font-family="Helvetica-Light" font-size="38.0" fill="#FEFFFF" transform="matrix(1.00, 0.00, -0.00, -1.00, 627.3, 367.0)">e</text><text xml:space="preserve" font-family="Helvetica-Light" font-size="38.0" fill="#FEFFFF" transform="matrix(1.00, 0.00, -0.00, -1.00, 648.4, 367.0)">s</text><text xml:space="preserve" font-family="Helvetica-Light" font-size="38.0" fill="#FEFFFF" transform="matrix(1.00, 0.00, -0.00, -1.00, 667.4, 367.0)">s</text><text xml:space="preserve" font-family="Helvetica-Light" font-size="38.0" fill="#FEFFFF" transform="matrix(1.00, 0.00, -0.00, -1.00, 686.4, 367.0)">?</text><image xlink:href="../../110255FE-1EE4-4DB4-BA48-88254A122DF0/assets/D0A6C36AF2D4C50543825D3A6240BB71.png" width="258.00" height="87.00" transform="matrix(1.00, 0.00, -0.00, -1.00, 384.2, 253.1)" opacity="0.80"></image><g><clipPath id="clip-210"><path d="M 390.2 247.1 L 636.3 247.1 L 636.3 171.7 L 390.2 171.7 Z M 390.2 247.1 "></path></clipPath><g clip-path="url(#clip-210)"><path d="M 390.2 247.1 L 636.3 247.1 L 636.3 171.7 L 390.2 171.7 Z M 390.2 247.1 " fill="url(#gradSh1.26)"></path></g></g><image xlink:href="../../0A76FFF6-BA01-4B15-834B-AA70FE53B6DD/assets/26D4692BA3DBBC554C3E6CFA6B144C50.png" width="167.00" height="27.00" transform="matrix(1.00, 0.00, -0.00, -1.00, 431.0, 219.0)"></image><g><clipPath id="clip-211"><path d="M 387.7 171.7 L 641.5 171.7 L 641.5 247.1 L 387.7 247.1 Z M 387.7 171.7 "></path></clipPath><g clip-path="url(#clip-211)"><text xml:space="preserve" font-family="Helvetica-Light" font-size="24.0" fill="#FEFFFF" transform="matrix(1.00, 0.00, -0.00, -1.00, 431.0, 200.0)">S</text><text xml:space="preserve" font-family="Helvetica-Light" font-size="24.0" fill="#FEFFFF" transform="matrix(1.00, 0.00, -0.00, -1.00, 445.7, 200.0)">t</text><text xml:space="preserve" font-family="Helvetica-Light" font-size="24.0" fill="#FEFFFF" transform="matrix(1.00, 0.00, -0.00, -1.00, 452.3, 200.0)">a</text><text xml:space="preserve" font-family="Helvetica-Light" font-size="24.0" fill="#FEFFFF" transform="matrix(1.00, 0.00, -0.00, -1.00, 465.7, 200.0)">y</text><text xml:space="preserve" font-family="Helvetica-Light" font-size="24.0" fill="#FEFFFF" transform="matrix(1.00, 0.00, -0.00, -1.00, 477.7, 200.0)"> </text><text xml:space="preserve" font-family="Helvetica-Light" font-size="24.0" fill="#FEFFFF" transform="matrix(1.00, 0.00, -0.00, -1.00, 484.4, 200.0)">t</text><text xml:space="preserve" font-family="Helvetica-Light" font-size="24.0" fill="#FEFFFF" transform="matrix(1.00, 0.00, -0.00, -1.00, 491.0, 200.0)">o</text><text xml:space="preserve" font-family="Helvetica-Light" font-size="24.0" fill="#FEFFFF" transform="matrix(1.00, 0.00, -0.00, -1.00, 504.4, 200.0)"> </text><text xml:space="preserve" font-family="Helvetica-Light" font-size="24.0" fill="#FEFFFF" transform="matrix(1.00, 0.00, -0.00, -1.00, 511.0, 200.0)">y</text><text xml:space="preserve" font-family="Helvetica-Light" font-size="24.0" fill="#FEFFFF" transform="matrix(1.00, 0.00, -0.00, -1.00, 523.0, 200.0)">o</text><text xml:space="preserve" font-family="Helvetica-Light" font-size="24.0" fill="#FEFFFF" transform="matrix(1.00, 0.00, -0.00, -1.00, 536.4, 200.0)">u</text><text xml:space="preserve" font-family="Helvetica-Light" font-size="24.0" fill="#FEFFFF" transform="matrix(1.00, 0.00, -0.00, -1.00, 549.7, 200.0)">r</text><text xml:space="preserve" font-family="Helvetica-Light" font-size="24.0" fill="#FEFFFF" transform="matrix(1.00, 0.00, -0.00, -1.00, 557.7, 200.0)">s</text><text xml:space="preserve" font-family="Helvetica-Light" font-size="24.0" fill="#FEFFFF" transform="matrix(1.00, 0.00, -0.00, -1.00, 569.7, 200.0)">e</text><text xml:space="preserve" font-family="Helvetica-Light" font-size="24.0" fill="#FEFFFF" transform="matrix(1.00, 0.00, -0.00, -1.00, 583.1, 200.0)">l</text><text xml:space="preserve" font-family="Helvetica-Light" font-size="24.0" fill="#FEFFFF" transform="matrix(1.00, 0.00, -0.00, -1.00, 588.4, 200.0)">f</text></g></g><image xlink:href="../../110255FE-1EE4-4DB4-BA48-88254A122DF0/assets/4637A8E4D4BC792151FA0E7E63BFDDF8.png" width="286.00" height="87.00" transform="matrix(1.00, 0.00, -0.00, -1.00, 48.9, 253.1)" opacity="0.80"></image><g><clipPath id="clip-212"><path d="M 54.9 247.1 L 328.9 247.1 L 328.9 171.7 L 54.9 171.7 Z M 54.9 247.1 "></path></clipPath><g clip-path="url(#clip-212)"><path d="M 54.9 247.1 L 328.9 247.1 L 328.9 171.7 L 54.9 171.7 Z M 54.9 247.1 " fill="url(#gradSh1.27)"></path></g></g><image xlink:href="../../0A76FFF6-BA01-4B15-834B-AA70FE53B6DD/assets/84C652CC1508E4A2A2C977A925916D19.png" width="136.00" height="27.00" transform="matrix(1.00, 0.00, -0.00, -1.00, 125.0, 219.0)"></image><g><clipPath id="clip-213"><path d="M 52.4 171.7 L 334.1 171.7 L 334.1 247.1 L 52.4 247.1 Z M 52.4 171.7 "></path></clipPath><g clip-path="url(#clip-213)"><text xml:space="preserve" font-family="Helvetica-Light" font-size="24.0" fill="#FEFFFF" transform="matrix(1.00, 0.00, -0.00, -1.00, 125.0, 200.0)">G</text><text xml:space="preserve" font-family="Helvetica-Light" font-size="24.0" fill="#FEFFFF" transform="matrix(1.00, 0.00, -0.00, -1.00, 143.7, 200.0)">o</text><text xml:space="preserve" font-family="Helvetica-Light" font-size="24.0" fill="#FEFFFF" transform="matrix(1.00, 0.00, -0.00, -1.00, 157.0, 200.0)"> </text><text xml:space="preserve" font-family="Helvetica-Light" font-size="24.0" fill="#FEFFFF" transform="matrix(1.00, 0.00, -0.00, -1.00, 163.7, 200.0)">s</text><text xml:space="preserve" font-family="Helvetica-Light" font-size="24.0" fill="#FEFFFF" transform="matrix(1.00, 0.00, -0.00, -1.00, 175.7, 200.0)">a</text><text xml:space="preserve" font-family="Helvetica-Light" font-size="24.0" fill="#FEFFFF" transform="matrix(1.00, 0.00, -0.00, -1.00, 189.0, 200.0)">y</text><text xml:space="preserve" font-family="Helvetica-Light" font-size="24.0" fill="#FEFFFF" transform="matrix(1.00, 0.00, -0.00, -1.00, 201.0, 200.0)"> </text><text xml:space="preserve" font-family="Helvetica-Light" font-size="24.0" fill="#FEFFFF" transform="matrix(1.00, 0.00, -0.00, -1.00, 207.7, 200.0)">h</text><text xml:space="preserve" font-family="Helvetica-Light" font-size="24.0" fill="#FEFFFF" transform="matrix(1.00, 0.00, -0.00, -1.00, 221.0, 200.0)">e</text><text xml:space="preserve" font-family="Helvetica-Light" font-size="24.0" fill="#FEFFFF" transform="matrix(1.00, 0.00, -0.00, -1.00, 234.4, 200.0)">l</text><text xml:space="preserve" font-family="Helvetica-Light" font-size="24.0" fill="#FEFFFF" transform="matrix(1.00, 0.00, -0.00, -1.00, 239.7, 200.0)">l</text><text xml:space="preserve" font-family="Helvetica-Light" font-size="24.0" fill="#FEFFFF" transform="matrix(1.00, 0.00, -0.00, -1.00, 245.0, 200.0)">o</text></g></g><g><clipPath id="clip-214"><path d="M 1006.0 1.0 L 1918.0 1.0 L 1918.0 801.0 L 1006.0 801.0 Z M 1006.0 1.0 "></path></clipPath><g clip-path="url(#clip-214)"><path d="M 1028.4 622.3 L 1028.4 631.1 L 1028.4 691.8 L 1057.1 684.7 L 1073.2 684.7 L 1083.5 691.8 L 1103.9 691.8 L 1114.1 691.8 L 1140.0 704.8 L 1124.3 712.5 L 1118.7 709.3 L 1123.4 702.2 L 1114.1 699.6 L 1102.1 699.6 L 1103.9 709.3 L 1092.8 701.6 L 1084.2 700.9 L 1070.6 700.9 L 1074.7 694.6 L 1079.6 694.6 L 1075.4 691.4 L 1066.8 693.3 L 1060.4 695.0 L 1053.2 691.4 L 1037.6 691.4 L 1036.9 695.3 L 1038.9 699.2 L 1045.4 699.5 L 1052.2 703.4 L 1049.6 706.4 L 1040.2 706.4 L 1032.7 709.0 L 1036.3 712.5 L 1041.5 710.6 L 1050.0 709.3 L 1051.9 712.5 L 1057.1 712.5 L 1062.7 712.5 L 1066.8 712.5 L 1073.7 710.9 L 1081.6 712.5 L 1092.8 714.5 L 1096.5 716.5 L 1102.1 718.7 L 1114.1 718.7 L 1128.0 718.7 L 1140.0 720.4 L 1145.6 720.4 L 1157.7 722.0 L 1184.8 722.0 L 1190.7 726.2 L 1197.5 726.2 L 1208.2 726.2 L 1214.4 729.8 L 1232.7 731.4 L 1244.7 733.1 L 1253.9 735.3 L 1271.4 733.7 L 1282.5 735.3 L 1288.4 735.3 L 1296.4 732.6 L 1303.5 732.6 L 1322.6 726.8 L 1332.1 725.2 L 1361.3 724.9 L 1368.8 727.2 L 1375.0 725.2 L 1030.7 628.2 Z M 1028.4 622.3 " fill="#414824"></path></g></g><g><clipPath id="clip-215"><path d="M 1006.0 801.0 L 1918.0 801.0 L 1918.0 1.0 L 1006.0 1.0 Z M 1006.0 801.0 "></path></clipPath><g clip-path="url(#clip-215)"><g><clipPath id="clip-216"><path d="M 1006.0 1.0 L 1918.0 1.0 L 1918.0 801.0 L 1006.0 801.0 Z M 1006.0 1.0 "></path></clipPath><g clip-path="url(#clip-216)"><path d="M 1410.7 425.0 L 1424.5 412.1 L 1439.7 379.4 L 1454.2 379.4 L 1454.2 386.1 L 1461.1 395.4 L 1463.9 412.1 L 1475.6 434.3 L 1490.1 423.2 L 1490.1 415.3 L 1497.7 416.7 L 1497.7 406.9 L 1501.2 390.8 L 1501.2 379.4 L 1507.4 373.2 L 1504.6 359.3 L 1501.2 343.5 L 1499.9 339.8 L 1509.1 334.9 L 1511.2 328.2 L 1511.2 321.9 L 1515.4 317.3 L 1515.4 313.1 L 1518.4 308.9 L 1518.4 299.7 L 1511.6 299.7 L 1508.3 295.9 L 1511.2 291.2 L 1506.6 291.2 L 1506.6 285.8 L 1507.0 280.7 L 1502.0 278.6 L 1509.5 273.6 L 1504.5 270.3 L 1507.0 263.1 L 1496.9 263.1 L 1500.3 257.6 L 1509.1 257.6 L 1518.4 257.6 L 1518.4 253.1 L 1530.7 253.1 L 1526.6 246.2 L 1537.4 241.6 L 1533.7 236.0 L 1540.8 232.3 L 1539.3 226.8 L 1535.5 226.8 L 1540.8 221.3 L 1536.7 215.0 L 1540.8 210.1 L 1537.0 206.0 L 1540.8 200.8 L 1540.8 196.7 L 1545.2 188.8 L 1545.2 182.9 L 1545.2 177.7 L 1549.0 171.2 L 1555.3 155.5 L 1569.1 120.2 L 1569.1 114.2 L 1578.9 104.1 L 1588.6 83.2 L 1596.0 79.1 L 1600.6 77.6 L 1605.0 82.8 L 1605.0 75.4 L 1613.6 72.4 L 1607.2 67.5 L 1617.7 67.5 L 1617.7 61.6 L 1619.9 56.7 L 1618.0 51.7 L 1622.5 56.9 L 1622.5 51.7 L 1622.5 47.1 L 1627.3 42.0 L 1623.7 37.5 L 1627.3 35.1 L 1630.3 36.6 L 1628.8 29.2 L 1627.6 25.9 L 1628.8 20.8 L 1630.3 16.0 L 1630.3 9.5 L 1641.9 7.7 L 1635.0 4.4 L 1640.4 1.0 L 1451.5 1.0 C 1451.5 1.0 1465.8 2.3 1469.7 7.7 L 1448.5 6.2 L 1448.5 11.5 L 1453.0 19.3 L 1457.2 23.8 L 1461.6 28.6 L 1467.3 36.0 L 1462.5 41.7 C 1462.5 41.7 1466.4 38.1 1469.4 45.9 L 1461.9 44.3 L 1461.9 47.3 L 1462.5 51.7 L 1461.3 55.1 L 1463.7 59.0 L 1456.0 59.0 L 1457.2 62.6 L 1459.0 67.0 L 1459.3 75.1 L 1456.3 79.3 L 1451.2 82.9 L 1450.9 88.5 L 1446.7 93.3 L 1445.8 98.0 L 1440.8 95.1 L 1437.5 99.9 L 1435.7 83.7 L 1439.3 77.8 L 1436.0 61.4 L 1440.5 56.3 L 1437.8 49.7 L 1437.8 44.3 L 1436.9 40.5 L 1437.5 33.9 L 1438.7 30.9 L 1438.1 22.6 L 1439.6 17.2 L 1433.0 19.9 L 1432.7 13.9 L 1427.0 13.9 L 1420.5 17.5 L 1415.4 60.8 L 1416.6 71.8 L 1418.4 86.7 L 1415.1 84.3 L 1416.0 91.2 L 1413.3 90.9 L 1409.4 85.5 L 1420.8 103.1 L 1409.4 89.1 L 1409.4 94.5 L 1409.4 105.2 L 1416.0 112.8 L 1416.0 119.8 L 1409.4 111.0 L 1409.4 119.8 L 1409.4 124.9 L 1405.8 111.9 L 1405.8 127.7 L 1400.5 120.4 L 1400.5 136.0 L 1407.3 141.3 L 1400.5 139.7 L 1402.3 151.7 L 1399.0 171.2 L 1404.9 179.8 L 1397.2 177.4 L 1405.2 187.6 L 1409.7 200.7 L 1402.0 199.0 L 1408.2 203.7 L 1406.7 207.0 L 1411.8 212.0 L 1402.9 210.5 L 1412.7 221.3 L 1403.2 223.4 L 1413.9 224.9 L 1420.5 230.2 L 1430.0 230.8 L 1426.7 234.2 L 1426.7 251.1 L 1430.3 256.2 L 1420.2 255.6 L 1405.2 255.3 L 1405.2 261.6 L 1401.7 264.0 L 1399.6 269.0 L 1391.2 270.3 L 1395.4 275.3 L 1393.3 280.1 L 1394.5 289.6 L 1394.5 293.8 L 1387.9 298.9 L 1393.6 300.6 L 1395.7 306.9 L 1394.8 312.0 L 1390.6 317.4 L 1394.2 320.9 L 1396.6 328.7 L 1394.5 335.0 L 1398.7 339.4 L 1399.0 343.5 L 1394.8 346.9 L 1394.8 354.7 L 1394.5 357.9 L 1397.8 361.1 L 1396.9 366.9 L 1396.3 374.3 L 1393.3 381.5 L 1393.9 388.4 L 1393.9 392.5 L 1396.9 395.5 L 1396.9 399.1 L 1398.7 407.5 L 1399.9 413.4 L 1400.5 419.5 L 1404.0 417.3 L 1406.1 423.2 Z M 1410.7 425.0 " fill="#F7F8F2"></path></g></g></g></g><g><clipPath id="clip-217"><path d="M 1006.0 801.0 L 1918.0 801.0 L 1918.0 1.0 L 1006.0 1.0 Z M 1006.0 801.0 "></path></clipPath><g clip-path="url(#clip-217)"><g><clipPath id="clip-218"><path d="M 1006.0 1.0 L 1918.0 1.0 L 1918.0 801.0 L 1006.0 801.0 Z M 1006.0 1.0 "></path></clipPath><g clip-path="url(#clip-218)"><g opacity="0.71"><g><clipPath id="clip-219"><path d="M 1006.0 632.4 L 1382.1 632.4 L 1382.1 737.1 L 1006.0 737.1 Z M 1006.0 632.4 "></path></clipPath><g clip-path="url(#clip-219)"><path d="M 1382.1 732.6 L 1339.5 721.3 L 1006.0 632.4 L 1006.0 653.8 L 1009.8 645.9 L 1013.8 653.0 L 1026.5 653.0 L 1033.6 658.6 L 1048.7 653.0 L 1051.1 665.7 L 1063.0 666.5 L 1080.5 667.3 L 1096.3 668.1 L 1109.0 672.8 L 1126.5 672.8 L 1126.5 682.5 L 1136.0 682.5 L 1147.2 682.5 L 1166.2 691.9 L 1176.5 690.3 L 1190.8 695.9 L 1198.0 695.9 L 1208.3 698.2 L 1223.4 698.2 L 1232.1 703.8 L 1244.0 703.8 L 1255.1 707.8 L 1267.8 707.8 L 1282.1 713.3 L 1291.6 713.3 L 1332.1 725.2 L 1322.6 726.8 L 1303.5 732.6 L 1296.4 732.6 L 1314.7 737.1 L 1322.6 737.1 L 1340.1 737.1 L 1350.4 737.1 L 1359.9 737.1 L 1367.0 737.1 Z M 1382.1 732.6 " fill="#8EAA4D"></path></g></g></g><path d="M 1132.6 366.4 C 1135.3 366.4 1135.3 370.6 1132.6 370.6 C 1129.9 370.6 1129.9 366.4 1132.6 366.4 " fill="#F3EBE0"></path><path d="M 1148.4 359.0 C 1151.1 359.0 1151.1 363.2 1148.4 363.2 C 1145.7 363.2 1145.7 359.0 1148.4 359.0 " fill="#F3EBE0"></path><path d="M 1185.5 393.3 C 1188.1 393.3 1188.1 397.5 1185.5 397.5 C 1182.8 397.5 1182.8 393.3 1185.5 393.3 " fill="#F3EBE0"></path><path d="M 1178.0 384.0 C 1180.7 384.0 1180.7 388.2 1178.0 388.2 C 1175.4 388.2 1175.4 384.0 1178.0 384.0 " fill="#F3EBE0"></path><path d="M 1166.9 388.7 C 1169.6 388.7 1169.6 392.8 1166.9 392.8 C 1164.2 392.8 1164.2 388.7 1166.9 388.7 " fill="#F3EBE0"></path><path d="M 1279.0 49.6 C 1281.7 49.6 1281.7 53.8 1279.0 53.8 C 1276.4 53.8 1276.4 49.6 1279.0 49.6 " fill="#F3EBE0"></path><path d="M 1280.9 66.3 C 1283.6 66.3 1283.6 70.5 1280.9 70.5 C 1278.2 70.5 1278.2 66.3 1280.9 66.3 " fill="#F3EBE0"></path><path d="M 1230.9 50.5 C 1233.5 50.5 1233.5 54.7 1230.9 54.7 C 1228.2 54.7 1228.2 50.5 1230.9 50.5 " fill="#F3EBE0"></path><path d="M 1237.3 71.8 C 1240.0 71.8 1240.0 76.0 1237.3 76.0 C 1234.7 76.0 1234.7 71.8 1237.3 71.8 " fill="#F3EBE0"></path><path d="M 1237.3 65.4 C 1240.0 65.4 1240.0 69.5 1237.3 69.5 C 1234.7 69.5 1234.7 65.4 1237.3 65.4 " fill="#F3EBE0"></path><path d="M 1258.7 108.0 C 1261.3 108.0 1261.4 112.1 1258.7 112.1 C 1256.0 112.1 1256.0 108.0 1258.7 108.0 " fill="#F3EBE0"></path><path d="M 1310.8 117.1 C 1310.5 118.2 1310.8 119.2 1311.4 120.1 C 1312.8 122.4 1309.2 124.5 1307.8 122.3 C 1306.6 120.4 1306.3 118.2 1306.7 116.0 C 1307.0 114.9 1308.3 114.3 1309.3 114.5 C 1310.4 114.9 1311.0 116.0 1310.8 117.1 " fill="#F3EBE0"></path><path d="M 1329.1 123.7 C 1331.8 123.7 1331.8 127.9 1329.1 127.9 C 1326.4 127.9 1326.4 123.7 1329.1 123.7 " fill="#F3EBE0"></path><path d="M 1340.2 129.3 C 1342.9 129.3 1342.9 133.4 1340.2 133.4 C 1337.5 133.4 1337.5 129.3 1340.2 129.3 " fill="#F3EBE0"></path><path d="M 1344.8 144.1 C 1347.5 144.1 1347.5 148.3 1344.8 148.3 C 1342.2 148.3 1342.2 144.1 1344.8 144.1 " fill="#F3EBE0"></path><path d="M 1673.8 126.5 C 1676.5 126.5 1676.5 130.7 1673.8 130.7 C 1671.1 130.7 1671.1 126.5 1673.8 126.5 " fill="#F3EBE0"></path><path d="M 1679.4 95.9 C 1682.1 95.9 1682.1 100.1 1679.4 100.1 C 1676.7 100.1 1676.7 95.9 1679.4 95.9 " fill="#F3EBE0"></path><path d="M 1839.7 20.9 C 1842.4 20.9 1842.4 25.1 1839.7 25.1 C 1837.0 25.1 1837.0 20.9 1839.7 20.9 " fill="#F3EBE0"></path><path d="M 1875.8 31.1 C 1878.5 31.1 1878.5 35.2 1875.8 35.2 C 1873.1 35.2 1873.1 31.1 1875.8 31.1 " fill="#F3EBE0"></path><path d="M 1798.9 49.6 C 1801.6 49.6 1801.6 53.8 1798.9 53.8 C 1796.2 53.8 1796.2 49.6 1798.9 49.6 " fill="#F3EBE0"></path><path d="M 1826.7 83.9 C 1829.4 83.9 1829.4 88.1 1826.7 88.1 C 1824.0 88.1 1824.0 83.9 1826.7 83.9 " fill="#F3EBE0"></path><path d="M 1096.5 190.4 C 1099.2 190.4 1099.2 194.6 1096.5 194.6 C 1093.8 194.6 1093.8 190.4 1096.5 190.4 " fill="#F3EBE0"></path><path d="M 1105.8 184.9 C 1108.4 184.9 1108.4 189.0 1105.8 189.0 C 1103.1 189.0 1103.1 184.9 1105.8 184.9 " fill="#F3EBE0"></path><path d="M 1106.7 192.3 C 1109.4 192.3 1109.4 196.4 1106.7 196.4 C 1104.0 196.4 1104.0 192.3 1106.7 192.3 " fill="#F3EBE0"></path><path d="M 1111.3 192.3 C 1114.0 192.3 1114.0 196.4 1111.3 196.4 C 1108.6 196.4 1108.6 192.3 1111.3 192.3 " fill="#F3EBE0"></path><path d="M 1118.7 189.5 C 1121.4 189.5 1121.4 193.7 1118.7 193.7 C 1116.0 193.7 1116.0 189.5 1118.7 189.5 " fill="#F3EBE0"></path><path d="M 1130.8 190.4 C 1133.5 190.4 1133.5 194.6 1130.8 194.6 C 1128.1 194.6 1128.1 190.4 1130.8 190.4 " fill="#F3EBE0"></path><path d="M 1128.9 179.3 C 1131.6 179.3 1131.6 183.5 1128.9 183.5 C 1126.2 183.5 1126.2 179.3 1128.9 179.3 " fill="#F3EBE0"></path><path d="M 1124.3 198.8 C 1127.0 198.8 1127.0 202.9 1124.3 202.9 C 1121.6 202.9 1121.6 198.8 1124.3 198.8 " fill="#F3EBE0"></path><path d="M 1132.6 196.9 C 1135.3 196.9 1135.3 201.1 1132.6 201.1 C 1129.9 201.1 1129.9 196.9 1132.6 196.9 " fill="#F3EBE0"></path><path d="M 1134.5 209.0 C 1137.2 209.0 1137.2 213.1 1134.5 213.1 C 1131.8 213.1 1131.8 209.0 1134.5 209.0 " fill="#F3EBE0"></path><path d="M 1128.9 211.7 C 1131.6 211.7 1131.6 215.9 1128.9 215.9 C 1126.2 215.9 1126.2 211.7 1128.9 211.7 " fill="#F3EBE0"></path><path d="M 1118.7 214.5 C 1121.4 214.5 1121.4 218.7 1118.7 218.7 C 1116.0 218.7 1116.0 214.5 1118.7 214.5 " fill="#F3EBE0"></path><path d="M 1123.4 217.3 C 1126.0 217.3 1126.1 221.5 1123.4 221.5 C 1120.7 221.5 1120.7 217.3 1123.4 217.3 " fill="#F3EBE0"></path><path d="M 1140.0 218.2 C 1142.7 218.2 1142.7 222.4 1140.0 222.4 C 1137.4 222.4 1137.4 218.2 1140.0 218.2 " fill="#F3EBE0"></path><path d="M 1132.6 226.6 C 1135.3 226.6 1135.3 230.7 1132.6 230.7 C 1129.9 230.7 1129.9 226.6 1132.6 226.6 " fill="#F3EBE0"></path><path d="M 1155.8 188.6 C 1158.5 188.6 1158.5 192.7 1155.8 192.7 C 1153.1 192.7 1153.1 188.6 1155.8 188.6 " fill="#F3EBE0"></path><path d="M 1154.9 174.7 C 1157.6 174.7 1157.6 178.8 1154.9 178.8 C 1152.2 178.8 1152.2 174.7 1154.9 174.7 " fill="#F3EBE0"></path><path d="M 1162.3 165.4 C 1165.0 165.4 1165.0 169.6 1162.3 169.6 C 1159.6 169.6 1159.6 165.4 1162.3 165.4 " fill="#F3EBE0"></path><path d="M 1161.4 158.9 C 1164.0 158.9 1164.0 163.1 1161.4 163.1 C 1158.7 163.1 1158.7 158.9 1161.4 158.9 " fill="#F3EBE0"></path><path d="M 1169.7 146.9 C 1172.4 146.9 1172.4 151.1 1169.7 151.1 C 1167.0 151.1 1167.0 146.9 1169.7 146.9 " fill="#F3EBE0"></path><path d="M 1165.1 143.2 C 1167.8 143.2 1167.8 147.3 1165.1 147.3 C 1162.4 147.3 1162.4 143.2 1165.1 143.2 " fill="#F3EBE0"></path><path d="M 1168.8 121.9 C 1171.5 121.9 1171.5 126.0 1168.8 126.0 C 1166.1 126.0 1166.1 121.9 1168.8 121.9 " fill="#F3EBE0"></path><path d="M 1148.4 138.5 C 1151.1 138.5 1151.1 142.7 1148.4 142.7 C 1145.7 142.7 1145.7 138.5 1148.4 138.5 " fill="#F3EBE0"></path><path d="M 1132.6 131.1 C 1135.3 131.1 1135.3 135.3 1132.6 135.3 C 1129.9 135.3 1129.9 131.1 1132.6 131.1 " fill="#F3EBE0"></path><path d="M 1078.9 134.8 C 1081.6 134.8 1081.6 139.0 1078.9 139.0 C 1076.2 139.0 1076.2 134.8 1078.9 134.8 " fill="#F3EBE0"></path><path d="M 1074.3 141.3 C 1076.9 141.3 1076.9 145.5 1074.3 145.5 C 1071.6 145.5 1071.6 141.3 1074.3 141.3 " fill="#F3EBE0"></path><path d="M 1351.3 349.8 C 1354.0 349.8 1354.0 353.9 1351.3 353.9 C 1348.6 353.9 1348.6 349.8 1351.3 349.8 " fill="#F3EBE0"></path><path d="M 1343.9 345.1 C 1346.6 345.1 1346.6 349.3 1343.9 349.3 C 1341.2 349.3 1341.2 345.1 1343.9 345.1 " fill="#F3EBE0"></path><path d="M 1306.8 337.7 C 1309.5 337.7 1309.5 341.9 1306.8 341.9 C 1304.2 341.9 1304.2 337.7 1306.8 337.7 " fill="#F3EBE0"></path><path d="M 1283.7 333.1 C 1286.4 333.1 1286.4 337.3 1283.7 337.3 C 1281.0 337.3 1281.0 333.1 1283.7 333.1 " fill="#F3EBE0"></path><path d="M 1261.4 322.0 C 1264.1 322.0 1264.1 326.1 1261.4 326.1 C 1258.8 326.1 1258.8 322.0 1261.4 322.0 " fill="#F3EBE0"></path><path d="M 1270.7 318.3 C 1273.4 318.3 1273.4 322.4 1270.7 322.4 C 1268.0 322.4 1268.0 318.3 1270.7 318.3 " fill="#F3EBE0"></path><path d="M 1279.0 318.3 C 1281.7 318.3 1281.7 322.4 1279.0 322.4 C 1276.4 322.4 1276.4 318.3 1279.0 318.3 " fill="#F3EBE0"></path><path d="M 1279.0 309.9 C 1281.7 309.9 1281.7 314.1 1279.0 314.1 C 1276.4 314.1 1276.4 309.9 1279.0 309.9 " fill="#F3EBE0"></path><path d="M 1752.6 361.8 C 1755.3 361.8 1755.3 366.0 1752.6 366.0 C 1749.9 366.0 1749.9 361.8 1752.6 361.8 " fill="#F3EBE0"></path><path d="M 1760.9 361.8 C 1763.6 361.8 1763.6 366.0 1760.9 366.0 C 1758.2 366.0 1758.2 361.8 1760.9 361.8 " fill="#F3EBE0"></path><path d="M 1655.3 224.7 C 1658.0 224.7 1658.0 228.9 1655.3 228.9 C 1652.6 228.9 1652.6 224.7 1655.3 224.7 " fill="#F3EBE0"></path><path d="M 1659.9 226.6 C 1662.6 226.6 1662.6 230.7 1659.9 230.7 C 1657.2 230.7 1657.2 226.6 1659.9 226.6 " fill="#F3EBE0"></path><path d="M 1658.1 244.2 C 1660.7 244.2 1660.7 248.3 1658.1 248.3 C 1655.4 248.3 1655.4 244.2 1658.1 244.2 " fill="#F3EBE0"></path><path d="M 1660.8 237.7 C 1663.5 237.7 1663.5 241.8 1660.8 241.8 C 1658.2 241.8 1658.2 237.7 1660.8 237.7 " fill="#F3EBE0"></path><path d="M 1600.6 226.6 C 1603.3 226.6 1603.3 230.7 1600.6 230.7 C 1597.9 230.7 1597.9 226.6 1600.6 226.6 " fill="#F3EBE0"></path><path d="M 1588.6 226.6 C 1591.2 226.6 1591.2 230.7 1588.6 230.7 C 1585.9 230.7 1585.9 226.6 1588.6 226.6 " fill="#F3EBE0"></path><path d="M 1596.0 230.3 C 1598.7 230.3 1598.7 234.4 1596.0 234.4 C 1593.3 234.4 1593.3 230.3 1596.0 230.3 " fill="#F3EBE0"></path><path d="M 1558.0 268.2 C 1560.7 268.2 1560.7 272.4 1558.0 272.4 C 1555.3 272.4 1555.3 268.2 1558.0 268.2 " fill="#F3EBE0"></path><path d="M 1598.8 432.2 C 1601.4 432.2 1601.4 436.4 1598.8 436.4 C 1596.1 436.4 1596.1 432.2 1598.8 432.2 " fill="#F3EBE0"></path><path d="M 1809.1 175.6 C 1811.8 175.6 1811.8 179.8 1809.1 179.8 C 1806.4 179.8 1806.4 175.6 1809.1 175.6 " fill="#F3EBE0"></path><path d="M 1798.0 186.7 C 1800.7 186.7 1800.7 190.9 1798.0 190.9 C 1795.3 190.9 1795.3 186.7 1798.0 186.7 " fill="#F3EBE0"></path><path d="M 1825.8 187.6 C 1828.5 187.6 1828.5 191.8 1825.8 191.8 C 1823.1 191.8 1823.1 187.6 1825.8 187.6 " fill="#F3EBE0"></path><path d="M 1761.8 161.7 C 1764.5 161.7 1764.5 165.9 1761.8 165.9 C 1759.2 165.9 1759.2 161.7 1761.8 161.7 " fill="#F3EBE0"></path><path d="M 1743.3 142.2 C 1746.0 142.2 1746.0 146.4 1743.3 146.4 C 1740.6 146.4 1740.6 142.2 1743.3 142.2 " fill="#F3EBE0"></path><path d="M 1748.0 136.7 C 1750.6 136.7 1750.6 140.9 1748.0 140.9 C 1745.3 140.9 1745.3 136.7 1748.0 136.7 " fill="#F3EBE0"></path><path d="M 1739.6 133.9 C 1742.3 133.9 1742.3 138.1 1739.6 138.1 C 1736.9 138.1 1736.9 133.9 1739.6 133.9 " fill="#F3EBE0"></path><path d="M 1756.3 132.1 C 1759.0 132.1 1759.0 136.2 1756.3 136.2 C 1753.6 136.2 1753.6 132.1 1756.3 132.1 " fill="#F3EBE0"></path><path d="M 1771.1 119.1 C 1773.8 119.1 1773.8 123.3 1771.1 123.3 C 1768.4 123.3 1768.4 119.1 1771.1 119.1 " fill="#F3EBE0"></path><path d="M 1760.9 109.8 C 1763.6 109.8 1763.6 114.0 1760.9 114.0 C 1758.2 114.0 1758.2 109.8 1760.9 109.8 " fill="#F3EBE0"></path><path d="M 1750.7 118.2 C 1753.4 118.2 1753.4 122.3 1750.7 122.3 C 1748.0 122.3 1748.0 118.2 1750.7 118.2 " fill="#F3EBE0"></path><path d="M 1736.8 110.8 C 1739.5 110.8 1739.5 114.9 1736.8 114.9 C 1734.1 114.9 1734.1 110.8 1736.8 110.8 " fill="#F3EBE0"></path><path d="M 1873.1 82.0 C 1875.7 82.0 1875.7 86.2 1873.1 86.2 C 1870.4 86.2 1870.4 82.0 1873.1 82.0 " fill="#F3EBE0"></path><path d="M 1879.5 79.3 C 1882.2 79.3 1882.2 83.4 1879.5 83.4 C 1876.9 83.4 1876.9 79.3 1879.5 79.3 " fill="#F3EBE0"></path><path d="M 1876.8 87.6 C 1879.4 87.6 1879.4 91.8 1876.8 91.8 C 1874.1 91.8 1874.1 87.6 1876.8 87.6 " fill="#F3EBE0"></path><path d="M 1874.9 73.7 C 1877.6 73.7 1877.6 77.9 1874.9 77.9 C 1872.2 77.9 1872.2 73.7 1874.9 73.7 " fill="#F3EBE0"></path><path d="M 1883.2 67.2 C 1885.9 67.2 1885.9 71.4 1883.2 71.4 C 1880.6 71.4 1880.6 67.2 1883.2 67.2 " fill="#F3EBE0"></path><path d="M 1891.6 54.2 C 1894.3 54.2 1894.3 58.4 1891.6 58.4 C 1888.9 58.4 1888.9 54.2 1891.6 54.2 " fill="#F3EBE0"></path><path d="M 1667.3 49.6 C 1670.0 49.6 1670.0 53.8 1667.3 53.8 C 1664.6 53.8 1664.6 49.6 1667.3 49.6 " fill="#F3EBE0"></path><path d="M 1666.4 42.2 C 1669.1 42.2 1669.1 46.4 1666.4 46.4 C 1663.7 46.4 1663.7 42.2 1666.4 42.2 " fill="#F3EBE0"></path><path d="M 1128.0 334.9 C 1130.7 334.9 1130.7 339.1 1128.0 339.1 C 1125.3 339.1 1125.3 334.9 1128.0 334.9 " fill="#B6ACA1"></path><path d="M 1138.2 334.9 C 1140.9 334.9 1140.9 339.1 1138.2 339.1 C 1135.5 339.1 1135.5 334.9 1138.2 334.9 " fill="#B6ACA1"></path><path d="M 1158.6 342.4 C 1161.3 342.4 1161.3 346.5 1158.6 346.5 C 1155.9 346.5 1155.9 342.4 1158.6 342.4 " fill="#B6ACA1"></path><path d="M 1130.8 349.8 C 1133.5 349.8 1133.5 353.9 1130.8 353.9 C 1128.1 353.9 1128.1 349.8 1130.8 349.8 " fill="#B6ACA1"></path><path d="M 1167.8 360.9 C 1170.5 360.9 1170.5 365.1 1167.8 365.1 C 1165.2 365.1 1165.2 360.9 1167.8 360.9 " fill="#B6ACA1"></path><path d="M 1157.7 369.2 C 1160.3 369.2 1160.3 373.4 1157.7 373.4 C 1155.0 373.4 1155.0 369.2 1157.7 369.2 " fill="#B6ACA1"></path><path d="M 1189.2 371.1 C 1191.8 371.1 1191.8 375.2 1189.2 375.2 C 1186.5 375.2 1186.5 371.1 1189.2 371.1 " fill="#B6ACA1"></path><path d="M 1103.9 246.0 C 1106.6 246.0 1106.6 250.2 1103.9 250.2 C 1101.2 250.2 1101.2 246.0 1103.9 246.0 " fill="#B6ACA1"></path><path d="M 1109.5 238.6 C 1112.1 238.6 1112.2 242.8 1109.5 242.8 C 1106.8 242.8 1106.8 238.6 1109.5 238.6 " fill="#B6ACA1"></path><path d="M 1092.8 228.4 C 1095.5 228.4 1095.5 232.6 1092.8 232.6 C 1090.1 232.6 1090.1 228.4 1092.8 228.4 " fill="#B6ACA1"></path><path d="M 1114.1 220.1 C 1116.8 220.1 1116.8 224.2 1114.1 224.2 C 1111.4 224.2 1111.4 220.1 1114.1 220.1 " fill="#B6ACA1"></path><path d="M 1066.8 208.0 C 1069.5 208.0 1069.5 212.2 1066.8 212.2 C 1064.2 212.2 1064.2 208.0 1066.8 208.0 " fill="#B6ACA1"></path><path d="M 1140.0 194.1 C 1142.7 194.1 1142.7 198.3 1140.0 198.3 C 1137.4 198.3 1137.4 194.1 1140.0 194.1 " fill="#B6ACA1"></path><path d="M 1141.0 205.2 C 1143.7 205.2 1143.7 209.4 1141.0 209.4 C 1138.3 209.4 1138.3 205.2 1141.0 205.2 " fill="#B6ACA1"></path><path d="M 1159.5 205.2 C 1162.2 205.2 1162.2 209.4 1159.5 209.4 C 1156.8 209.4 1156.8 205.2 1159.5 205.2 " fill="#B6ACA1"></path><path d="M 1164.1 225.6 C 1166.8 225.6 1166.8 229.8 1164.1 229.8 C 1161.5 229.8 1161.5 225.6 1164.1 225.6 " fill="#B6ACA1"></path><path d="M 1145.6 229.3 C 1148.3 229.3 1148.3 233.5 1145.6 233.5 C 1142.9 233.5 1142.9 229.3 1145.6 229.3 " fill="#B6ACA1"></path><path d="M 1144.7 239.5 C 1147.4 239.5 1147.4 243.7 1144.7 243.7 C 1142.0 243.7 1142.0 239.5 1144.7 239.5 " fill="#B6ACA1"></path><path d="M 1192.9 217.3 C 1195.6 217.3 1195.6 221.5 1192.9 221.5 C 1190.2 221.5 1190.2 217.3 1192.9 217.3 " fill="#B6ACA1"></path><path d="M 1102.1 167.3 C 1104.7 167.3 1104.7 171.4 1102.1 171.4 C 1099.4 171.4 1099.4 167.3 1102.1 167.3 " fill="#B6ACA1"></path><path d="M 1092.8 177.5 C 1095.5 177.5 1095.5 181.6 1092.8 181.6 C 1090.1 181.6 1090.1 177.5 1092.8 177.5 " fill="#B6ACA1"></path><path d="M 1131.7 157.1 C 1134.4 157.1 1134.4 161.2 1131.7 161.2 C 1129.0 161.2 1129.0 157.1 1131.7 157.1 " fill="#B6ACA1"></path><path d="M 1147.5 145.0 C 1150.1 145.0 1150.1 149.2 1147.5 149.2 C 1144.8 149.2 1144.8 145.0 1147.5 145.0 " fill="#B6ACA1"></path><path d="M 1140.0 142.2 C 1142.7 142.2 1142.7 146.4 1140.0 146.4 C 1137.4 146.4 1137.4 142.2 1140.0 142.2 " fill="#B6ACA1"></path><path d="M 1141.0 114.5 C 1143.7 114.5 1143.7 118.6 1141.0 118.6 C 1138.3 118.6 1138.3 114.5 1141.0 114.5 " fill="#B6ACA1"></path><path d="M 1147.5 128.4 C 1150.1 128.4 1150.1 132.5 1147.5 132.5 C 1144.8 132.5 1144.8 128.4 1147.5 128.4 " fill="#B6ACA1"></path><path d="M 1121.5 120.0 C 1124.2 120.0 1124.2 124.2 1121.5 124.2 C 1118.8 124.2 1118.8 120.0 1121.5 120.0 " fill="#B6ACA1"></path><path d="M 1095.6 115.4 C 1098.2 115.4 1098.3 119.6 1095.6 119.6 C 1092.9 119.6 1092.9 115.4 1095.6 115.4 " fill="#B6ACA1"></path><path d="M 1071.5 125.6 C 1074.2 125.6 1074.2 129.7 1071.5 129.7 C 1068.8 129.7 1068.8 125.6 1071.5 125.6 " fill="#B6ACA1"></path><path d="M 1083.5 114.5 C 1086.2 114.5 1086.2 118.6 1083.5 118.6 C 1080.8 118.6 1080.8 114.5 1083.5 114.5 " fill="#B6ACA1"></path><path d="M 1054.8 133.9 C 1057.5 133.9 1057.5 138.1 1054.8 138.1 C 1052.1 138.1 1052.1 133.9 1054.8 133.9 " fill="#B6ACA1"></path><path d="M 1575.6 196.9 C 1578.3 196.9 1578.3 201.1 1575.6 201.1 C 1572.9 201.1 1572.9 196.9 1575.6 196.9 " fill="#B6ACA1"></path><path d="M 1613.6 214.5 C 1616.3 214.5 1616.3 218.7 1613.6 218.7 C 1610.9 218.7 1610.9 214.5 1613.6 214.5 " fill="#B6ACA1"></path><path d="M 1613.6 222.8 C 1616.3 222.8 1616.3 227.0 1613.6 227.0 C 1610.9 227.0 1610.9 222.8 1613.6 222.8 " fill="#B6ACA1"></path><path d="M 1561.7 232.1 C 1564.4 232.1 1564.4 236.3 1561.7 236.3 C 1559.0 236.3 1559.0 232.1 1561.7 232.1 " fill="#B6ACA1"></path><path d="M 1569.1 239.5 C 1571.8 239.5 1571.8 243.7 1569.1 243.7 C 1566.4 243.7 1566.4 239.5 1569.1 239.5 " fill="#B6ACA1"></path><path d="M 1569.1 234.0 C 1571.8 234.0 1571.8 238.1 1569.1 238.1 C 1566.4 238.1 1566.4 234.0 1569.1 234.0 " fill="#B6ACA1"></path><path d="M 1577.4 269.2 C 1580.1 269.2 1580.1 273.3 1577.4 273.3 C 1574.8 273.3 1574.8 269.2 1577.4 269.2 " fill="#B6ACA1"></path><path d="M 1780.4 175.6 C 1783.1 175.6 1783.1 179.8 1780.4 179.8 C 1777.7 179.8 1777.7 175.6 1780.4 175.6 " fill="#B6ACA1"></path><path d="M 1788.7 170.0 C 1791.4 170.0 1791.4 174.2 1788.7 174.2 C 1786.0 174.2 1786.0 170.0 1788.7 170.0 " fill="#B6ACA1"></path><path d="M 1780.4 164.5 C 1783.1 164.5 1783.1 168.7 1780.4 168.7 C 1777.7 168.7 1777.7 164.5 1780.4 164.5 " fill="#B6ACA1"></path><path d="M 1769.3 174.7 C 1771.9 174.7 1772.0 178.8 1769.3 178.8 C 1766.6 178.8 1766.6 174.7 1769.3 174.7 " fill="#B6ACA1"></path><path d="M 1804.5 157.1 C 1807.2 157.1 1807.2 161.2 1804.5 161.2 C 1801.8 161.2 1801.8 157.1 1804.5 157.1 " fill="#B6ACA1"></path><path d="M 1781.3 143.2 C 1784.0 143.2 1784.0 147.3 1781.3 147.3 C 1778.6 147.3 1778.6 143.2 1781.3 143.2 " fill="#B6ACA1"></path><path d="M 1760.9 153.4 C 1763.6 153.4 1763.6 157.5 1760.9 157.5 C 1758.2 157.5 1758.2 153.4 1760.9 153.4 " fill="#B6ACA1"></path><path d="M 1792.4 125.6 C 1795.1 125.6 1795.1 129.7 1792.4 129.7 C 1789.7 129.7 1789.7 125.6 1792.4 125.6 " fill="#B6ACA1"></path><path d="M 1757.2 124.6 C 1759.9 124.6 1759.9 128.8 1757.2 128.8 C 1754.5 128.8 1754.5 124.6 1757.2 124.6 " fill="#B6ACA1"></path><path d="M 1716.4 125.6 C 1719.1 125.6 1719.1 129.7 1716.4 129.7 C 1713.8 129.7 1713.8 125.6 1716.4 125.6 " fill="#B6ACA1"></path><path d="M 1707.2 105.2 C 1709.9 105.2 1709.9 109.4 1707.2 109.4 C 1704.5 109.4 1704.5 105.2 1707.2 105.2 " fill="#B6ACA1"></path><path d="M 1685.9 113.5 C 1688.5 113.5 1688.5 117.7 1685.9 117.7 C 1683.2 117.7 1683.2 113.5 1685.9 113.5 " fill="#B6ACA1"></path><path d="M 1702.5 113.5 C 1705.2 113.5 1705.2 117.7 1702.5 117.7 C 1699.9 117.7 1699.9 113.5 1702.5 113.5 " fill="#B6ACA1"></path><path d="M 1701.6 121.9 C 1704.3 121.9 1704.3 126.0 1701.6 126.0 C 1698.9 126.0 1698.9 121.9 1701.6 121.9 " fill="#B6ACA1"></path><path d="M 1675.7 113.5 C 1678.4 113.5 1678.4 117.7 1675.7 117.7 C 1673.0 117.7 1673.0 113.5 1675.7 113.5 " fill="#B6ACA1"></path><path d="M 1658.1 108.9 C 1660.7 108.9 1660.7 113.1 1658.1 113.1 C 1655.4 113.1 1655.4 108.9 1658.1 108.9 " fill="#B6ACA1"></path><path d="M 1643.2 109.8 C 1645.9 109.8 1645.9 114.0 1643.2 114.0 C 1640.5 114.0 1640.5 109.8 1643.2 109.8 " fill="#B6ACA1"></path><path d="M 1643.2 120.9 C 1645.9 120.9 1645.9 125.1 1643.2 125.1 C 1640.5 125.1 1640.5 120.9 1643.2 120.9 " fill="#B6ACA1"></path><path d="M 1660.8 137.6 C 1663.5 137.6 1663.5 141.8 1660.8 141.8 C 1658.2 141.8 1658.2 137.6 1660.8 137.6 " fill="#B6ACA1"></path><path d="M 1653.4 129.3 C 1656.1 129.3 1656.1 133.4 1653.4 133.4 C 1650.7 133.4 1650.7 129.3 1653.4 129.3 " fill="#B6ACA1"></path><path d="M 1680.3 135.8 C 1683.0 135.8 1683.0 139.9 1680.3 139.9 C 1677.6 139.9 1677.6 135.8 1680.3 135.8 " fill="#B6ACA1"></path><path d="M 1638.6 144.1 C 1641.3 144.1 1641.3 148.3 1638.6 148.3 C 1635.9 148.3 1635.9 144.1 1638.6 144.1 " fill="#B6ACA1"></path><path d="M 1659.0 149.7 C 1661.7 149.7 1661.7 153.8 1659.0 153.8 C 1656.3 153.8 1656.3 149.7 1659.0 149.7 " fill="#B6ACA1"></path><path d="M 1665.5 169.1 C 1668.2 169.1 1668.2 173.3 1665.5 173.3 C 1662.8 173.3 1662.8 169.1 1665.5 169.1 " fill="#B6ACA1"></path><path d="M 1904.6 114.5 C 1907.2 114.5 1907.2 118.6 1904.6 118.6 C 1901.9 118.6 1901.9 114.5 1904.6 114.5 " fill="#B6ACA1"></path><path d="M 1893.4 106.1 C 1896.1 106.1 1896.1 110.3 1893.4 110.3 C 1890.8 110.3 1890.8 106.1 1893.4 106.1 " fill="#B6ACA1"></path><path d="M 1913.8 106.1 C 1916.5 106.1 1916.5 110.3 1913.8 110.3 C 1911.1 110.3 1911.1 106.1 1913.8 106.1 " fill="#B6ACA1"></path><path d="M 1912.9 124.6 C 1915.6 124.6 1915.6 128.8 1912.9 128.8 C 1910.2 128.8 1910.2 124.6 1912.9 124.6 " fill="#B6ACA1"></path><path d="M 1893.4 131.1 C 1896.1 131.1 1896.1 135.3 1893.4 135.3 C 1890.8 135.3 1890.8 131.1 1893.4 131.1 " fill="#B6ACA1"></path><path d="M 1737.8 343.3 C 1740.4 343.3 1740.4 347.5 1737.8 347.5 C 1735.1 347.5 1735.1 343.3 1737.8 343.3 " fill="#B6ACA1"></path><path d="M 1750.7 341.4 C 1753.4 341.4 1753.4 345.6 1750.7 345.6 C 1748.0 345.6 1748.0 341.4 1750.7 341.4 " fill="#B6ACA1"></path><path d="M 1739.6 359.0 C 1742.3 359.0 1742.3 363.2 1739.6 363.2 C 1736.9 363.2 1736.9 359.0 1739.6 359.0 " fill="#B6ACA1"></path><path d="M 1768.3 347.9 C 1771.0 347.9 1771.0 352.1 1768.3 352.1 C 1765.7 352.1 1765.6 347.9 1768.3 347.9 " fill="#B6ACA1"></path><path d="M 1776.7 357.2 C 1779.4 357.2 1779.4 361.3 1776.7 361.3 C 1774.0 361.3 1774.0 357.2 1776.7 357.2 " fill="#B6ACA1"></path><path d="M 1595.0 421.1 C 1597.7 421.1 1597.7 425.3 1595.0 425.3 C 1592.4 425.3 1592.4 421.1 1595.0 421.1 " fill="#B6ACA1"></path><path d="M 1583.0 419.3 C 1585.7 419.3 1585.7 423.4 1583.0 423.4 C 1580.3 423.4 1580.3 419.3 1583.0 419.3 " fill="#B6ACA1"></path><path d="M 1590.4 410.0 C 1593.1 410.0 1593.1 414.2 1590.4 414.2 C 1587.7 414.2 1587.7 410.0 1590.4 410.0 " fill="#B6ACA1"></path><path d="M 1609.9 417.4 C 1612.6 417.4 1612.6 421.6 1609.9 421.6 C 1607.2 421.6 1607.2 417.4 1609.9 417.4 " fill="#B6ACA1"></path><path d="M 1605.2 423.0 C 1607.9 423.0 1607.9 427.1 1605.2 427.1 C 1602.6 427.1 1602.6 423.0 1605.2 423.0 " fill="#B6ACA1"></path><path d="M 1588.6 427.6 C 1591.2 427.6 1591.2 431.8 1588.6 431.8 C 1585.9 431.8 1585.9 427.6 1588.6 427.6 " fill="#B6ACA1"></path><path d="M 1611.7 432.2 C 1614.4 432.2 1614.4 436.4 1611.7 436.4 C 1609.0 436.4 1609.0 432.2 1611.7 432.2 " fill="#B6ACA1"></path></g></g></g></g><g><clipPath id="clip-220"><path d="M 1006.0 801.0 L 1918.0 801.0 L 1918.0 1.0 L 1006.0 1.0 Z M 1006.0 801.0 "></path></clipPath><g clip-path="url(#clip-220)"><g><clipPath id="clip-221"><path d="M 1006.0 1.0 L 1918.0 1.0 L 1918.0 801.0 L 1006.0 801.0 Z M 1006.0 1.0 "></path></clipPath><g clip-path="url(#clip-221)"><g opacity="0.33"><g><clipPath id="clip-222"><path d="M 1028.4 500.1 L 1301.0 500.1 L 1301.0 668.8 L 1028.4 668.8 Z M 1028.4 500.1 "></path></clipPath><g clip-path="url(#clip-222)"><path d="M 1028.4 561.1 L 1028.4 500.1 L 1148.4 561.1 L 1154.9 578.4 L 1270.7 639.3 L 1247.2 639.3 L 1301.0 668.8 L 1248.2 668.8 L 1212.6 646.4 L 1194.0 627.1 L 1141.0 619.0 L 1106.7 602.8 L 1074.3 584.5 Z M 1028.4 561.1 " fill="#A89D89"></path></g></g></g></g></g></g></g><g><clipPath id="clip-223"><path d="M 1006.0 801.0 L 1918.0 801.0 L 1918.0 1.0 L 1006.0 1.0 Z M 1006.0 801.0 "></path></clipPath><g clip-path="url(#clip-223)"><g><clipPath id="clip-224"><path d="M 1006.0 1.0 L 1918.0 1.0 L 1918.0 801.0 L 1006.0 801.0 Z M 1006.0 1.0 "></path></clipPath><g clip-path="url(#clip-224)"><g opacity="0.33"><g><clipPath id="clip-225"><path d="M 1675.7 519.1 L 1918.0 519.1 L 1918.0 675.3 L 1675.7 675.3 Z M 1675.7 519.1 "></path></clipPath><g clip-path="url(#clip-225)"><path d="M 1729.2 668.8 L 1710.0 668.8 L 1685.9 675.3 L 1693.2 665.6 L 1675.7 665.6 L 1693.9 652.7 L 1680.3 646.9 L 1702.5 630.7 L 1702.5 618.5 L 1739.6 609.4 L 1760.9 596.5 L 1771.1 599.8 L 1798.0 586.9 L 1825.8 581.7 L 1852.0 572.7 L 1835.9 567.5 L 1839.7 556.8 L 1820.4 562.3 L 1839.7 544.3 L 1864.3 544.3 L 1883.2 530.1 L 1899.8 519.1 L 1918.0 519.1 L 1918.0 600.4 Z M 1729.2 668.8 " fill="#96928D"></path></g></g></g></g></g></g></g><g><clipPath id="clip-226"><path d="M 1006.0 801.0 L 1918.0 801.0 L 1918.0 1.0 L 1006.0 1.0 Z M 1006.0 801.0 "></path></clipPath><g clip-path="url(#clip-226)"><g><clipPath id="clip-227"><path d="M 1006.0 1.0 L 1918.0 1.0 L 1918.0 801.0 L 1006.0 801.0 Z M 1006.0 1.0 "></path></clipPath><g clip-path="url(#clip-227)"><g opacity="0.18"><g><clipPath id="clip-228"><path d="M 1028.4 335.2 L 1387.9 335.2 L 1387.9 675.3 L 1028.4 675.3 Z M 1028.4 335.2 "></path></clipPath><g clip-path="url(#clip-228)"><path d="M 1114.1 425.0 L 1360.7 654.7 L 1387.9 675.3 L 1382.1 656.1 L 1301.0 569.8 L 1301.0 550.1 L 1314.0 550.1 L 1290.0 531.6 L 1244.7 500.1 L 1230.9 487.8 L 1178.0 455.3 L 1167.8 434.3 L 1155.8 429.7 L 1134.5 390.8 L 1102.1 361.1 L 1060.8 339.8 L 1028.4 335.2 L 1028.4 351.9 Z M 1114.1 425.0 " fill="#7A746A"></path></g></g></g></g></g></g></g><g><clipPath id="clip-229"><path d="M 1006.0 801.0 L 1918.0 801.0 L 1918.0 1.0 L 1006.0 1.0 Z M 1006.0 801.0 "></path></clipPath><g clip-path="url(#clip-229)"><g><clipPath id="clip-230"><path d="M 1006.0 1.0 L 1918.0 1.0 L 1918.0 801.0 L 1006.0 801.0 Z M 1006.0 1.0 "></path></clipPath><g clip-path="url(#clip-230)"><g opacity="0.11"><g><clipPath id="clip-231"><path d="M 1493.9 236.1 L 1918.0 236.1 L 1918.0 684.8 L 1493.9 684.8 Z M 1493.9 236.1 "></path></clipPath><g clip-path="url(#clip-231)"><path d="M 1493.9 632.4 L 1502.4 657.3 L 1511.3 638.2 L 1517.2 644.8 L 1514.9 653.4 L 1523.6 650.9 L 1532.4 652.9 L 1532.4 644.8 L 1546.2 644.8 L 1555.5 628.8 L 1549.6 605.2 L 1561.7 568.2 L 1551.7 535.8 L 1583.0 535.8 L 1577.4 505.2 L 1569.1 488.5 L 1609.9 482.6 L 1621.1 500.1 L 1638.6 494.4 L 1638.6 461.9 L 1611.7 434.3 L 1625.5 412.1 L 1660.8 395.4 L 1655.3 363.9 L 1692.0 320.4 L 1748.0 299.4 L 1788.7 262.5 L 1737.8 386.1 L 1701.6 395.4 L 1695.0 412.1 L 1695.0 445.7 L 1675.7 445.7 L 1675.7 459.9 L 1667.3 475.2 L 1673.8 500.1 L 1665.5 519.1 L 1625.5 547.6 L 1611.7 584.5 L 1596.0 614.0 L 1583.0 624.4 L 1613.6 603.7 L 1630.0 574.2 L 1643.2 563.8 L 1660.8 546.1 L 1693.5 556.8 L 1693.5 569.7 L 1701.6 584.5 L 1667.3 597.2 L 1643.2 609.6 L 1627.0 632.4 L 1605.2 649.5 L 1575.6 684.7 L 1600.6 668.8 L 1613.6 668.8 L 1643.2 668.8 L 1675.7 665.6 L 1680.3 646.9 L 1675.7 618.5 L 1716.4 597.2 L 1743.3 568.2 L 1760.9 547.6 L 1776.7 534.3 L 1780.4 519.1 L 1796.8 531.3 L 1817.6 519.1 L 1839.7 519.1 L 1856.0 500.1 L 1879.5 467.8 L 1904.6 467.8 L 1918.0 445.7 L 1913.8 236.0 L 1776.7 359.3 L 1776.7 386.1 L 1756.3 395.4 L 1726.0 412.1 L 1707.2 434.3 L 1693.5 460.4 L 1659.9 500.1 L 1624.1 519.1 L 1598.8 547.6 L 1583.0 574.2 L 1548.7 556.8 L 1528.0 584.5 L 1505.9 597.2 Z M 1493.9 632.4 " fill="#7A746A"></path></g></g></g></g></g></g></g><g><clipPath id="clip-232"><path d="M 1006.0 801.0 L 1918.0 801.0 L 1918.0 1.0 L 1006.0 1.0 Z M 1006.0 801.0 "></path></clipPath><g clip-path="url(#clip-232)"><g><clipPath id="clip-233"><path d="M 1006.0 1.0 L 1918.0 1.0 L 1918.0 801.0 L 1006.0 801.0 Z M 1006.0 1.0 "></path></clipPath><g clip-path="url(#clip-233)"><g opacity="0.58"><g><clipPath id="clip-234"><path d="M 1403.0 380.7 L 1424.1 380.7 L 1424.1 412.2 L 1403.0 412.2 Z M 1403.0 380.7 "></path></clipPath><g clip-path="url(#clip-234)"><path d="M 1415.4 402.7 L 1419.0 399.4 L 1419.0 404.3 L 1415.4 412.1 C 1415.4 412.1 1410.1 413.9 1407.1 403.2 L 1404.5 396.9 L 1403.0 388.5 L 1405.8 391.3 L 1414.2 385.5 L 1415.4 387.8 L 1406.6 394.1 L 1415.9 390.3 L 1421.8 380.7 L 1424.1 380.7 L 1422.3 384.5 L 1416.7 392.6 L 1413.5 396.4 L 1409.9 398.2 L 1409.6 403.5 L 1413.5 399.2 Z M 1415.4 402.7 " fill="#9FA9AA"></path></g></g></g></g></g></g></g><g><clipPath id="clip-235"><path d="M 1006.0 801.0 L 1918.0 801.0 L 1918.0 1.0 L 1006.0 1.0 Z M 1006.0 801.0 "></path></clipPath><g clip-path="url(#clip-235)"><g><clipPath id="clip-236"><path d="M 1006.0 1.0 L 1918.0 1.0 L 1918.0 801.0 L 1006.0 801.0 Z M 1006.0 1.0 "></path></clipPath><g clip-path="url(#clip-236)"><g opacity="0.63"><g><clipPath id="clip-237"><path d="M 1401.0 378.9 L 1417.1 378.9 L 1417.1 384.9 L 1401.0 384.9 Z M 1401.0 378.9 "></path></clipPath><g clip-path="url(#clip-237)"><path d="M 1401.0 384.9 L 1405.8 382.5 L 1410.6 383.7 L 1413.5 380.7 L 1417.1 379.5 L 1413.5 378.9 L 1410.2 380.7 L 1408.1 378.9 L 1405.6 380.7 L 1401.0 379.9 Z M 1401.0 384.9 " fill="#9FA9AA"></path></g></g></g></g></g></g></g><g><clipPath id="clip-238"><path d="M 1006.0 801.0 L 1918.0 801.0 L 1918.0 1.0 L 1006.0 1.0 Z M 1006.0 801.0 "></path></clipPath><g clip-path="url(#clip-238)"><g><clipPath id="clip-239"><path d="M 1006.0 1.0 L 1918.0 1.0 L 1918.0 801.0 L 1006.0 801.0 Z M 1006.0 1.0 "></path></clipPath><g clip-path="url(#clip-239)"><g opacity="0.47"><g><clipPath id="clip-240"><path d="M 1401.0 344.9 L 1437.6 344.9 L 1437.6 376.7 L 1401.0 376.7 Z M 1401.0 344.9 "></path></clipPath><g clip-path="url(#clip-240)"><path d="M 1401.0 376.7 L 1405.9 375.8 L 1409.1 375.8 L 1407.4 373.7 L 1404.4 373.7 L 1407.1 371.6 L 1410.0 368.7 L 1413.5 367.2 L 1415.5 367.2 L 1418.2 367.2 L 1422.8 364.2 L 1426.3 362.7 L 1426.3 365.5 L 1422.3 367.0 L 1426.3 367.6 L 1428.1 366.9 L 1429.3 364.8 L 1431.4 363.8 L 1431.4 357.4 L 1434.3 355.8 L 1436.6 355.8 L 1437.6 354.0 L 1437.6 351.9 L 1433.9 347.3 L 1434.5 351.9 L 1432.6 351.8 L 1431.4 353.4 L 1430.0 354.6 L 1428.6 351.6 L 1425.7 350.4 L 1424.1 352.0 L 1422.5 352.0 L 1421.0 350.3 L 1418.6 347.3 L 1414.8 344.9 L 1411.8 345.8 L 1409.1 344.9 L 1406.2 347.2 L 1403.0 349.7 L 1401.0 352.6 L 1401.0 354.3 L 1404.1 354.3 L 1406.5 354.1 L 1407.8 352.3 L 1411.2 350.9 L 1415.2 350.0 L 1417.1 352.9 L 1414.2 352.8 L 1410.0 353.4 L 1408.1 354.6 L 1405.0 356.3 L 1403.0 356.3 L 1401.0 356.3 L 1401.0 360.8 L 1403.6 360.2 L 1407.9 358.4 L 1410.6 357.4 L 1412.0 356.1 L 1415.5 355.9 L 1417.1 355.8 L 1419.3 357.1 L 1422.5 359.0 L 1425.6 358.9 L 1427.5 359.5 L 1422.0 360.8 L 1417.1 359.0 L 1412.4 359.9 L 1410.0 360.8 L 1406.2 362.3 L 1403.8 363.0 L 1401.7 362.9 L 1401.7 365.2 L 1405.1 365.4 L 1407.7 364.5 L 1410.6 363.5 L 1414.8 360.8 L 1417.1 362.7 L 1413.5 364.2 L 1410.0 365.8 L 1407.5 366.1 L 1404.7 368.5 L 1401.0 367.9 Z M 1401.0 376.7 " fill="#A2ACB3"></path></g></g></g><path d="M 1425.1 335.9 L 1429.7 342.3 L 1429.7 339.1 Z M 1425.1 335.9 " fill="#9FA9AA"></path><path d="M 1419.3 325.0 L 1428.3 334.4 L 1428.3 329.7 L 1425.1 327.4 L 1427.4 327.2 L 1427.4 325.0 L 1423.8 323.9 L 1422.6 326.4 Z M 1419.3 325.0 " fill="#9FA9AA"></path></g></g></g></g><g><clipPath id="clip-241"><path d="M 1006.0 801.0 L 1918.0 801.0 L 1918.0 1.0 L 1006.0 1.0 Z M 1006.0 801.0 "></path></clipPath><g clip-path="url(#clip-241)"><g><clipPath id="clip-242"><path d="M 1006.0 1.0 L 1918.0 1.0 L 1918.0 801.0 L 1006.0 801.0 Z M 1006.0 1.0 "></path></clipPath><g clip-path="url(#clip-242)"><g opacity="0.23"><g><clipPath id="clip-243"><path d="M 1406.1 322.5 L 1427.4 322.5 L 1427.4 344.9 L 1406.1 344.9 Z M 1406.1 322.5 "></path></clipPath><g clip-path="url(#clip-243)"><path d="M 1417.1 333.4 L 1427.4 344.9 L 1418.2 329.2 L 1419.3 327.4 L 1417.1 325.0 L 1413.5 325.0 L 1410.3 322.5 L 1409.1 326.8 L 1406.1 325.2 L 1412.1 334.4 L 1416.7 335.9 Z M 1417.1 333.4 " fill="#9FA9AA"></path></g></g></g></g></g></g></g><g><clipPath id="clip-244"><path d="M 1006.0 801.0 L 1918.0 801.0 L 1918.0 1.0 L 1006.0 1.0 Z M 1006.0 801.0 "></path></clipPath><g clip-path="url(#clip-244)"><g><clipPath id="clip-245"><path d="M 1006.0 1.0 L 1918.0 1.0 L 1918.0 801.0 L 1006.0 801.0 Z M 1006.0 1.0 "></path></clipPath><g clip-path="url(#clip-245)"><g opacity="0.11"><g><clipPath id="clip-246"><path d="M 1438.8 333.7 L 1442.6 333.7 L 1442.6 350.0 L 1438.8 350.0 Z M 1438.8 333.7 "></path></clipPath><g clip-path="url(#clip-246)"><path d="M 1438.8 340.9 L 1441.8 350.0 L 1442.6 335.9 L 1440.7 333.7 L 1440.7 339.9 Z M 1438.8 340.9 " fill="#9FA9AA"></path></g></g></g></g></g></g></g><g><clipPath id="clip-247"><path d="M 1006.0 801.0 L 1918.0 801.0 L 1918.0 1.0 L 1006.0 1.0 Z M 1006.0 801.0 "></path></clipPath><g clip-path="url(#clip-247)"><g><clipPath id="clip-248"><path d="M 1006.0 1.0 L 1918.0 1.0 L 1918.0 801.0 L 1006.0 801.0 Z M 1006.0 1.0 "></path></clipPath><g clip-path="url(#clip-248)"><g opacity="0.36"><g><clipPath id="clip-249"><path d="M 1438.8 350.0 L 1462.2 350.0 L 1462.2 374.8 L 1438.8 374.8 Z M 1438.8 350.0 "></path></clipPath><g clip-path="url(#clip-249)"><path d="M 1438.8 370.2 L 1442.6 365.9 L 1442.6 362.9 L 1443.9 360.8 L 1442.6 355.4 L 1441.8 350.0 L 1446.1 352.2 L 1450.5 350.0 L 1456.0 350.0 L 1458.2 353.0 L 1461.4 353.0 L 1459.6 355.0 L 1462.2 360.8 L 1456.8 362.1 L 1457.4 366.3 L 1461.2 368.6 L 1456.8 370.2 L 1450.5 370.2 L 1455.0 368.2 L 1455.0 363.7 L 1452.7 357.5 L 1450.5 354.6 L 1447.3 357.9 L 1447.3 360.1 L 1446.1 362.7 L 1448.3 364.1 L 1445.3 366.1 L 1448.9 367.4 L 1448.1 370.2 L 1451.7 372.6 L 1452.9 374.8 L 1450.5 374.8 L 1446.7 372.8 L 1443.9 371.2 Z M 1438.8 370.2 " fill="#9FA9AA"></path></g></g></g><path d="M 1426.7 251.1 L 1437.3 236.0 L 1458.9 239.0 L 1458.9 241.6 L 1465.4 241.6 L 1467.8 241.6 L 1478.3 252.7 L 1480.5 243.3 L 1485.1 253.9 L 1486.3 245.0 L 1489.4 251.0 L 1492.5 255.8 L 1496.9 263.1 L 1500.3 257.6 L 1498.0 254.8 L 1469.2 225.6 L 1451.7 192.7 L 1444.7 199.0 L 1443.5 204.2 L 1441.1 204.7 L 1452.4 221.5 L 1443.5 219.8 L 1434.2 217.7 L 1430.0 230.8 L 1426.7 234.2 Z M 1426.7 251.1 " fill="#0F1219"></path><path d="M 1434.3 154.8 L 1446.4 151.7 L 1443.0 135.7 L 1437.1 115.6 L 1435.6 88.8 L 1424.5 1.0 L 1409.4 1.0 Z M 1434.3 154.8 " fill="#D2373A"></path><path d="M 1429.3 192.7 C 1429.3 192.7 1425.2 198.0 1429.3 198.0 C 1433.5 198.0 1435.0 195.3 1435.0 195.3 L 1446.4 192.7 C 1446.4 192.7 1454.5 196.8 1451.5 188.5 C 1451.5 188.5 1454.8 178.8 1446.4 184.7 L 1432.3 186.5 C 1432.3 186.5 1428.9 182.6 1426.7 186.8 C 1424.6 190.9 1429.3 192.7 1429.3 192.7 " fill="#746C69"></path></g></g></g></g><g><clipPath id="clip-250"><path d="M 1006.0 801.0 L 1918.0 801.0 L 1918.0 1.0 L 1006.0 1.0 Z M 1006.0 801.0 "></path></clipPath><g clip-path="url(#clip-250)"><g><clipPath id="clip-251"><path d="M 1006.0 1.0 L 1918.0 1.0 L 1918.0 801.0 L 1006.0 801.0 Z M 1006.0 1.0 "></path></clipPath><g clip-path="url(#clip-251)"><g opacity="0.29"><g><clipPath id="clip-252"><path d="M 1466.4 350.0 L 1496.2 350.0 L 1496.2 370.2 L 1466.4 370.2 Z M 1466.4 350.0 "></path></clipPath><g clip-path="url(#clip-252)"><path d="M 1466.4 365.9 L 1468.2 362.4 L 1472.1 362.4 L 1472.1 359.9 L 1476.3 359.9 L 1478.1 356.9 L 1478.1 353.7 L 1483.9 351.1 L 1490.1 350.0 L 1492.6 351.7 L 1484.3 353.7 L 1484.3 355.7 L 1488.5 355.7 L 1490.9 353.7 L 1492.6 356.9 L 1496.2 360.8 L 1491.5 360.8 L 1491.9 362.4 L 1496.2 365.1 L 1492.1 367.2 L 1493.9 370.2 L 1489.7 368.0 L 1487.1 367.0 L 1485.1 367.0 L 1482.9 368.4 L 1474.1 367.8 L 1470.0 367.8 Z M 1466.4 365.9 " fill="#746C69"></path></g></g></g><path d="M 1434.3 154.8 L 1432.1 155.7 C 1432.1 155.7 1435.2 161.8 1439.8 160.8 L 1439.8 157.9 L 1442.8 157.9 L 1442.8 159.8 L 1446.4 159.3 L 1447.1 154.8 L 1443.6 154.8 L 1438.4 154.8 L 1438.2 158.5 L 1436.1 157.9 Z M 1434.3 154.8 " fill="#0F1219"></path><path d="M 1433.9 152.1 L 1431.7 152.1 L 1430.4 154.8 L 1430.4 151.5 L 1433.6 150.0 Z M 1433.9 152.1 " fill="#797571"></path><path d="M 1430.9 156.6 L 1436.0 163.3 L 1441.3 163.3 L 1442.7 167.6 L 1443.1 172.6 L 1441.5 169.8 L 1440.3 165.1 L 1436.4 164.6 L 1434.7 163.6 L 1432.8 161.5 Z M 1430.9 156.6 " fill="#C2BFB9"></path></g></g></g></g><g><clipPath id="clip-253"><path d="M 1006.0 801.0 L 1918.0 801.0 L 1918.0 1.0 L 1006.0 1.0 Z M 1006.0 801.0 "></path></clipPath><g clip-path="url(#clip-253)"><g><clipPath id="clip-254"><path d="M 1006.0 1.0 L 1918.0 1.0 L 1918.0 801.0 L 1006.0 801.0 Z M 1006.0 1.0 "></path></clipPath><g clip-path="url(#clip-254)"><g opacity="0.17"><g><clipPath id="clip-255"><path d="M 1332.9 710.6 L 1585.5 710.6 L 1585.5 727.1 L 1332.9 727.1 Z M 1332.9 710.6 "></path></clipPath><g clip-path="url(#clip-255)"><path d="M 1337.0 715.7 L 1379.2 723.4 L 1407.6 723.4 L 1421.8 727.1 L 1436.0 724.8 L 1448.0 727.1 L 1453.0 724.8 L 1463.5 724.4 L 1473.7 725.3 L 1489.2 724.8 L 1501.2 724.8 L 1518.1 723.9 L 1528.2 724.4 L 1542.9 723.9 L 1573.1 718.9 L 1585.5 715.7 L 1566.7 715.7 L 1547.9 715.7 L 1524.5 715.7 L 1505.7 715.7 L 1487.4 713.4 L 1473.7 713.4 L 1461.3 713.4 L 1450.3 715.2 L 1438.8 715.2 L 1420.9 710.6 L 1409.9 713.8 L 1398.0 713.8 L 1382.1 710.6 L 1362.7 710.6 L 1349.8 710.6 L 1332.9 712.9 Z M 1337.0 715.7 " fill="#9C9084"></path></g></g></g></g></g></g></g><g><clipPath id="clip-256"><path d="M 1006.0 801.0 L 1918.0 801.0 L 1918.0 1.0 L 1006.0 1.0 Z M 1006.0 801.0 "></path></clipPath><g clip-path="url(#clip-256)"><g><clipPath id="clip-257"><path d="M 1006.0 1.0 L 1918.0 1.0 L 1918.0 801.0 L 1006.0 801.0 Z M 1006.0 1.0 "></path></clipPath><g clip-path="url(#clip-257)"><g opacity="0.21"><g><clipPath id="clip-258"><path d="M 1387.9 710.6 L 1453.0 710.6 L 1453.0 727.1 L 1387.9 727.1 Z M 1387.9 710.6 "></path></clipPath><g clip-path="url(#clip-258)"><path d="M 1421.8 727.1 L 1436.0 724.8 L 1448.0 727.1 L 1453.0 724.8 L 1447.3 723.5 L 1441.7 721.7 L 1433.3 721.7 L 1430.7 717.7 L 1429.6 712.9 L 1420.9 710.6 L 1409.9 713.8 L 1398.0 713.8 L 1391.0 712.4 L 1387.9 713.5 L 1391.3 716.1 L 1397.1 718.9 L 1404.3 720.7 L 1407.6 723.5 Z M 1421.8 727.1 " fill="#A1948D"></path></g></g></g></g></g></g></g><g><clipPath id="clip-259"><path d="M 1006.0 801.0 L 1918.0 801.0 L 1918.0 1.0 L 1006.0 1.0 Z M 1006.0 801.0 "></path></clipPath><g clip-path="url(#clip-259)"><g><clipPath id="clip-260"><path d="M 1006.0 1.0 L 1918.0 1.0 L 1918.0 801.0 L 1006.0 801.0 Z M 1006.0 1.0 "></path></clipPath><g clip-path="url(#clip-260)"><g opacity="0.28"><g><clipPath id="clip-261"><path d="M 1454.9 713.4 L 1496.0 713.4 L 1496.0 725.0 L 1454.9 725.0 Z M 1454.9 713.4 "></path></clipPath><g clip-path="url(#clip-261)"><path d="M 1470.1 725.0 L 1473.7 721.1 L 1471.9 716.5 L 1461.5 716.5 L 1454.9 714.4 L 1461.3 713.4 L 1487.4 713.4 L 1496.0 714.4 L 1487.2 715.2 L 1481.0 716.9 L 1481.0 720.0 L 1485.6 720.0 L 1488.5 718.9 L 1491.8 719.2 L 1495.1 717.1 L 1495.1 719.2 L 1496.0 721.3 L 1493.9 725.0 L 1489.2 724.8 L 1485.6 722.9 L 1482.0 725.0 Z M 1470.1 725.0 " fill="#A1948D"></path></g></g></g></g></g></g></g><g><clipPath id="clip-262"><path d="M 1006.0 801.0 L 1918.0 801.0 L 1918.0 1.0 L 1006.0 1.0 Z M 1006.0 801.0 "></path></clipPath><g clip-path="url(#clip-262)"><g><clipPath id="clip-263"><path d="M 1006.0 1.0 L 1918.0 1.0 L 1918.0 801.0 L 1006.0 801.0 Z M 1006.0 1.0 "></path></clipPath><g clip-path="url(#clip-263)"><g opacity="0.32"><g><clipPath id="clip-264"><path d="M 1525.5 715.7 L 1555.1 715.7 L 1555.1 724.2 L 1525.5 724.2 Z M 1525.5 715.7 "></path></clipPath><g clip-path="url(#clip-264)"><path d="M 1525.5 724.2 L 1529.4 718.9 L 1528.3 715.7 L 1540.5 715.7 L 1555.1 715.7 L 1543.7 719.2 L 1539.4 718.9 L 1536.2 720.0 L 1538.6 722.7 L 1535.6 724.2 Z M 1525.5 724.2 " fill="#A1948D"></path></g></g></g></g></g></g></g><g><clipPath id="clip-265"><path d="M 1006.0 801.0 L 1918.0 801.0 L 1918.0 1.0 L 1006.0 1.0 Z M 1006.0 801.0 "></path></clipPath><g clip-path="url(#clip-265)"><g><clipPath id="clip-266"><path d="M 1006.0 1.0 L 1918.0 1.0 L 1918.0 801.0 L 1006.0 801.0 Z M 1006.0 1.0 "></path></clipPath><g clip-path="url(#clip-266)"><g opacity="0.50"><g><clipPath id="clip-267"><path d="M 1037.6 678.8 L 1154.7 678.8 L 1154.7 712.5 L 1037.6 712.5 Z M 1037.6 678.8 "></path></clipPath><g clip-path="url(#clip-267)"><path d="M 1037.6 691.4 L 1081.9 678.8 L 1114.1 691.8 L 1138.2 696.0 L 1154.7 705.1 L 1124.3 712.5 L 1118.7 709.3 L 1123.4 702.2 L 1102.1 699.6 L 1084.2 700.9 L 1091.8 691.0 L 1075.4 691.4 Z M 1037.6 691.4 " fill="#667537"></path></g></g></g><path d="M 1236.3 801.0 L 1240.4 801.0 L 1240.4 706.4 L 1236.3 706.4 Z M 1236.3 801.0 " fill="#1D231D"></path></g></g></g></g><g><clipPath id="clip-268"><path d="M 1006.0 801.0 L 1918.0 801.0 L 1918.0 1.0 L 1006.0 1.0 Z M 1006.0 801.0 "></path></clipPath><g clip-path="url(#clip-268)"><g><clipPath id="clip-269"><path d="M 1006.0 1.0 L 1918.0 1.0 L 1918.0 801.0 L 1006.0 801.0 Z M 1006.0 1.0 "></path></clipPath><g clip-path="url(#clip-269)"><g opacity="0.22"><g><clipPath id="clip-270"><path d="M 1450.5 241.1 L 1506.6 241.1 L 1506.6 346.0 L 1450.5 346.0 Z M 1450.5 241.1 "></path></clipPath><g clip-path="url(#clip-270)"><path d="M 1456.1 346.0 L 1456.1 335.9 L 1454.0 332.1 L 1455.0 323.9 L 1456.1 321.2 L 1456.1 313.7 L 1456.1 306.6 L 1458.8 295.9 L 1462.2 290.3 L 1462.2 279.3 L 1465.0 285.5 L 1466.4 283.8 L 1466.4 276.0 L 1466.4 271.4 L 1461.1 267.1 L 1462.2 265.0 L 1460.2 261.7 L 1455.9 257.3 L 1460.2 257.3 L 1451.8 253.4 L 1451.8 244.9 L 1450.5 241.1 L 1456.3 244.5 L 1454.9 246.5 L 1460.0 249.9 L 1463.5 255.4 L 1463.5 260.0 L 1466.4 263.1 L 1467.9 267.3 L 1468.8 265.0 L 1466.4 260.8 L 1466.4 256.3 L 1466.4 253.8 L 1464.4 249.2 L 1456.1 241.1 L 1462.2 243.8 L 1466.4 243.4 L 1468.8 249.6 L 1473.7 252.8 L 1473.7 260.0 L 1471.4 267.9 L 1473.7 274.5 L 1473.7 279.7 L 1470.4 288.0 L 1470.8 281.6 L 1470.6 277.6 L 1468.8 277.6 L 1466.4 288.8 L 1465.2 295.2 L 1462.2 298.4 L 1459.4 301.9 L 1458.6 313.9 L 1460.7 311.6 L 1462.2 305.2 L 1468.5 300.6 L 1471.5 293.5 L 1477.5 284.5 L 1484.5 283.2 L 1491.8 278.5 L 1496.2 273.5 L 1494.7 278.2 L 1499.2 278.7 L 1492.4 280.3 L 1485.5 285.9 L 1482.2 288.2 L 1480.4 291.3 L 1486.2 291.5 L 1491.5 288.6 L 1494.7 287.0 L 1502.1 286.3 L 1506.6 285.8 L 1504.2 289.4 L 1506.6 291.2 L 1503.4 295.0 L 1500.3 295.0 L 1496.2 292.6 L 1491.6 293.5 L 1484.1 297.3 L 1481.3 297.3 L 1476.2 300.4 L 1472.1 301.7 L 1469.4 305.4 L 1465.0 306.7 L 1463.5 308.9 L 1462.2 314.3 L 1458.6 316.8 L 1460.5 320.3 L 1459.6 325.5 L 1459.6 332.6 L 1459.8 334.4 L 1458.8 341.9 Z M 1456.1 346.0 " fill="#92A3A3"></path></g></g></g><path d="M 1444.4 163.5 L 1447.1 174.9 L 1448.0 171.5 L 1446.2 161.7 L 1444.4 161.7 Z M 1444.4 163.5 " fill="#BABBB7"></path><path d="M 1451.3 176.9 L 1451.3 174.9 L 1448.9 174.4 L 1448.0 171.5 L 1447.1 174.9 L 1447.1 177.5 Z M 1451.3 176.9 " fill="#797571"></path><path d="M 1437.0 182.8 C 1437.0 182.8 1436.5 177.0 1443.9 177.0 L 1443.1 172.6 L 1442.0 171.5 L 1438.1 174.5 L 1436.4 176.7 L 1435.8 180.7 Z M 1437.0 182.8 " fill="#1F251D"></path><path d="M 1439.2 180.4 L 1440.9 182.8 L 1443.1 182.5 L 1445.4 181.0 L 1446.4 184.7 L 1444.4 184.9 L 1440.5 184.6 L 1439.8 185.5 L 1438.8 185.7 Z M 1439.2 180.4 " fill="#1F251D"></path><path d="M 1441.1 204.7 L 1442.6 201.1 L 1437.4 196.0 L 1437.8 199.4 Z M 1441.1 204.7 " fill="#1F251D"></path><path d="M 1437.4 194.8 L 1441.8 195.3 L 1441.8 193.7 Z M 1437.4 194.8 " fill="#1F251D"></path></g></g></g></g><g><clipPath id="clip-271"><path d="M 1006.0 801.0 L 1918.0 801.0 L 1918.0 1.0 L 1006.0 1.0 Z M 1006.0 801.0 "></path></clipPath><g clip-path="url(#clip-271)"><g><clipPath id="clip-272"><path d="M 1006.0 1.0 L 1918.0 1.0 L 1918.0 801.0 L 1006.0 801.0 Z M 1006.0 1.0 "></path></clipPath><g clip-path="url(#clip-272)"><g opacity="0.25"><g><clipPath id="clip-273"><path d="M 1467.2 300.5 L 1511.3 300.5 L 1511.3 327.0 L 1467.2 327.0 Z M 1467.2 300.5 "></path></clipPath><g clip-path="url(#clip-273)"><path d="M 1475.4 327.0 C 1475.4 327.0 1486.2 321.6 1494.8 320.8 C 1495.7 320.7 1496.5 320.7 1497.3 320.7 L 1492.2 322.5 L 1498.5 323.9 L 1502.3 323.9 L 1507.8 322.5 L 1506.6 320.7 L 1507.8 319.1 L 1510.4 317.1 L 1508.5 313.4 L 1509.5 310.6 L 1503.9 310.6 L 1501.2 308.1 L 1503.9 307.4 L 1506.6 304.9 L 1511.3 304.9 L 1509.7 300.5 L 1504.6 300.5 L 1499.4 300.5 L 1503.5 303.7 L 1500.3 303.7 L 1495.2 304.2 L 1496.2 305.8 L 1489.5 304.5 L 1486.3 305.4 L 1467.2 318.4 L 1483.8 312.0 L 1489.2 312.0 L 1493.9 313.0 L 1490.6 313.8 L 1489.2 317.5 L 1487.4 319.4 L 1478.6 323.1 Z M 1475.4 327.0 " fill="#C0C3B2"></path></g></g></g></g></g></g></g><g><clipPath id="clip-274"><path d="M 1006.0 801.0 L 1918.0 801.0 L 1918.0 1.0 L 1006.0 1.0 Z M 1006.0 801.0 "></path></clipPath><g clip-path="url(#clip-274)"><g><clipPath id="clip-275"><path d="M 1006.0 1.0 L 1918.0 1.0 L 1918.0 801.0 L 1006.0 801.0 Z M 1006.0 1.0 "></path></clipPath><g clip-path="url(#clip-275)"><g opacity="0.40"><g><clipPath id="clip-276"><path d="M 1443.1 13.5 L 1570.0 13.5 L 1570.0 177.5 L 1443.1 177.5 Z M 1443.1 13.5 "></path></clipPath><g clip-path="url(#clip-276)"><path d="M 1452.2 171.5 L 1461.3 174.9 L 1456.7 168.3 L 1470.4 171.6 L 1465.8 167.1 L 1465.1 163.1 L 1475.4 168.3 L 1471.2 159.8 L 1468.4 154.8 L 1477.3 161.7 L 1484.9 168.3 L 1482.9 160.9 L 1474.2 154.8 L 1481.8 156.6 L 1486.7 157.8 L 1481.8 153.7 L 1475.4 148.1 L 1468.1 137.9 L 1462.0 125.5 L 1468.1 131.4 L 1468.4 126.8 L 1472.7 125.5 L 1478.8 131.4 L 1486.7 135.4 L 1485.6 128.6 L 1490.0 128.6 L 1499.1 131.4 L 1490.2 115.6 L 1489.2 123.0 L 1484.4 115.6 L 1484.4 111.0 L 1493.8 113.8 L 1499.1 119.1 L 1502.9 127.0 L 1500.3 115.6 L 1506.0 120.9 L 1507.5 127.5 L 1509.3 131.4 L 1511.8 133.1 L 1511.8 144.0 L 1519.4 146.2 L 1523.3 152.4 L 1523.3 157.8 L 1518.4 161.7 L 1510.5 156.6 L 1510.0 165.9 L 1510.0 168.3 L 1511.8 177.5 L 1513.3 168.3 L 1516.1 168.3 L 1516.9 174.9 L 1516.9 164.6 L 1520.7 164.6 L 1526.8 157.8 L 1533.4 154.8 L 1543.3 147.6 L 1540.8 154.8 L 1532.7 166.6 L 1539.8 161.7 L 1538.5 164.6 L 1535.4 168.3 L 1531.4 172.6 L 1529.9 177.5 L 1534.7 174.9 L 1541.3 168.3 L 1544.1 164.6 L 1548.2 160.9 L 1549.4 154.8 L 1561.1 146.2 L 1548.7 151.7 L 1545.4 157.8 L 1541.5 157.8 L 1545.1 152.4 L 1552.5 144.3 L 1557.0 144.3 L 1561.1 140.7 L 1561.1 136.7 L 1565.7 130.1 L 1558.1 135.1 L 1555.8 137.9 L 1551.5 139.7 L 1546.4 146.2 L 1535.4 148.1 L 1542.6 139.7 L 1547.1 137.9 L 1549.2 133.4 L 1554.2 133.1 L 1565.7 123.0 L 1554.8 128.6 L 1549.4 129.8 L 1554.5 125.5 L 1558.6 123.0 L 1564.4 118.9 L 1570.0 118.1 L 1567.0 115.6 L 1558.8 118.9 L 1546.4 126.5 L 1542.6 131.4 L 1542.6 134.6 L 1540.0 137.9 L 1533.9 142.8 L 1532.1 147.6 L 1528.6 151.7 L 1525.8 148.6 L 1521.7 146.2 L 1526.0 140.7 L 1522.5 140.7 L 1522.5 134.6 L 1518.7 131.4 L 1519.9 126.5 L 1514.9 125.2 L 1514.9 120.9 L 1514.9 115.6 L 1519.2 117.4 L 1521.5 120.7 L 1519.7 113.3 L 1519.7 108.7 L 1517.9 104.2 L 1522.7 106.7 L 1524.5 100.9 L 1517.2 89.7 L 1511.1 83.6 L 1511.1 76.0 L 1514.9 66.8 L 1521.2 71.9 L 1527.8 76.0 L 1531.6 80.3 L 1526.3 69.4 L 1521.0 62.5 L 1527.8 62.5 L 1533.4 64.3 L 1543.6 75.2 L 1536.2 61.0 L 1535.2 57.9 L 1539.8 57.9 L 1547.6 67.6 L 1550.7 67.6 L 1540.8 51.7 L 1538.0 48.5 L 1537.0 44.3 L 1537.0 35.6 L 1530.4 33.0 L 1529.1 24.9 L 1521.5 17.8 L 1522.2 24.9 L 1516.1 16.5 L 1508.5 16.5 L 1498.4 13.5 L 1484.4 16.3 L 1493.0 16.5 L 1502.4 18.0 L 1509.0 28.5 L 1510.0 33.0 L 1505.7 29.0 L 1499.1 25.2 L 1495.3 25.2 L 1490.0 25.2 L 1485.9 25.2 L 1500.1 28.2 L 1501.1 33.3 L 1502.2 37.6 L 1497.1 34.6 L 1487.2 32.0 L 1480.1 32.0 L 1493.0 36.3 L 1494.5 41.7 L 1488.4 41.7 L 1485.4 39.6 L 1477.3 39.4 L 1493.3 54.4 L 1486.2 53.6 L 1477.3 46.2 L 1475.4 42.7 L 1479.0 53.9 L 1473.5 50.6 L 1466.1 50.0 L 1463.7 59.0 L 1464.1 71.4 L 1460.0 77.9 L 1455.4 83.8 L 1455.4 93.5 L 1449.3 100.3 L 1447.1 111.0 L 1443.1 121.7 L 1449.2 150.1 L 1453.6 154.8 L 1453.4 157.8 L 1449.2 163.3 L 1449.2 168.3 Z M 1452.2 171.5 " fill="#BAC6C6"></path></g></g></g></g></g></g></g></g></svg>