<?xml version="1.0" encoding="UTF-8" standalone="no"?><svg xmlns="http://www.w3.org/2000/svg" xmlns:xlink="http://www.w3.org/1999/xlink" clip-rule="evenodd" stroke-miterlimit="4.00" viewBox="0 0 1920 800"><desc>SVG generated by Keynote</desc><defs><linearGradient id="gradSh1.18" x1="0.0" y1="0.0" x2="100.0" y2="0.0" gradientUnits="userSpaceOnUse" gradientTransform="matrix(0.00, -0.77, -2.48, 0.00, 513.2, 248.1)"><stop offset="0.00000" stop-color="#008C91"></stop><stop offset="1.00000" stop-color="#008C91"></stop></linearGradient><linearGradient id="gradSh1.19" x1="0.0" y1="0.0" x2="100.0" y2="0.0" gradientUnits="userSpaceOnUse" gradientTransform="matrix(0.00, -0.77, -2.76, 0.00, 191.9, 248.1)"><stop offset="0.00000" stop-color="#008C91"></stop><stop offset="1.00000" stop-color="#008C91"></stop></linearGradient></defs><g transform="matrix(1.00, 0.00, -0.00, -1.00, 0.0, 800.0)"><path d="M 0.0 800.0 L 1920.0 800.0 L 1920.0 0.0 L 0.0 0.0 Z M 0.0 800.0 " fill="#52575F"></path><text xml:space="preserve" font-family="Helvetica-Light" font-size="38.0" fill="#FEFFFF" transform="matrix(1.00, 0.00, -0.00, -1.00, 55.0, 689.0)">O</text><text xml:space="preserve" font-family="Helvetica-Light" font-size="38.0" fill="#FEFFFF" transform="matrix(1.00, 0.00, -0.00, -1.00, 84.6, 689.0)">n</text><text xml:space="preserve" font-family="Helvetica-Light" font-size="38.0" fill="#FEFFFF" transform="matrix(1.00, 0.00, -0.00, -1.00, 105.7, 689.0)">c</text><text xml:space="preserve" font-family="Helvetica-Light" font-size="38.0" fill="#FEFFFF" transform="matrix(1.00, 0.00, -0.00, -1.00, 126.8, 689.0)">e</text><text xml:space="preserve" font-family="Helvetica-Light" font-size="38.0" fill="#FEFFFF" transform="matrix(1.00, 0.00, -0.00, -1.00, 147.9, 689.0)"> </text><text xml:space="preserve" font-family="Helvetica-Light" font-size="38.0" fill="#FEFFFF" transform="matrix(1.00, 0.00, -0.00, -1.00, 158.5, 689.0)">d</text><text xml:space="preserve" font-family="Helvetica-Light" font-size="38.0" fill="#FEFFFF" transform="matrix(1.00, 0.00, -0.00, -1.00, 181.7, 689.0)">o</text><text xml:space="preserve" font-family="Helvetica-Light" font-size="38.0" fill="#FEFFFF" transform="matrix(1.00, 0.00, -0.00, -1.00, 202.9, 689.0)">n</text><text xml:space="preserve" font-family="Helvetica-Light" font-size="38.0" fill="#FEFFFF" transform="matrix(1.00, 0.00, -0.00, -1.00, 224.0, 689.0)">e</text><text xml:space="preserve" font-family="Helvetica-Light" font-size="38.0" fill="#FEFFFF" transform="matrix(1.00, 0.00, -0.00, -1.00, 245.1, 689.0)"> </text><text xml:space="preserve" font-family="Helvetica-Light" font-size="38.0" fill="#FEFFFF" transform="matrix(1.00, 0.00, -0.00, -1.00, 255.7, 689.0)">w</text><text xml:space="preserve" font-family="Helvetica-Light" font-size="38.0" fill="#FEFFFF" transform="matrix(1.00, 0.00, -0.00, -1.00, 283.1, 689.0)">i</text><text xml:space="preserve" font-family="Helvetica-Light" font-size="38.0" fill="#FEFFFF" transform="matrix(1.00, 0.00, -0.00, -1.00, 291.5, 689.0)">t</text><text xml:space="preserve" font-family="Helvetica-Light" font-size="38.0" fill="#FEFFFF" transform="matrix(1.00, 0.00, -0.00, -1.00, 302.1, 689.0)">h</text><text xml:space="preserve" font-family="Helvetica-Light" font-size="38.0" fill="#FEFFFF" transform="matrix(1.00, 0.00, -0.00, -1.00, 323.2, 689.0)"> </text><text xml:space="preserve" font-family="Helvetica-Light" font-size="38.0" fill="#FEFFFF" transform="matrix(1.00, 0.00, -0.00, -1.00, 333.8, 689.0)">t</text><text xml:space="preserve" font-family="Helvetica-Light" font-size="38.0" fill="#FEFFFF" transform="matrix(1.00, 0.00, -0.00, -1.00, 344.4, 689.0)">h</text><text xml:space="preserve" font-family="Helvetica-Light" font-size="38.0" fill="#FEFFFF" transform="matrix(1.00, 0.00, -0.00, -1.00, 365.5, 689.0)">e</text><text xml:space="preserve" font-family="Helvetica-Light" font-size="38.0" fill="#FEFFFF" transform="matrix(1.00, 0.00, -0.00, -1.00, 386.6, 689.0)"> </text><text xml:space="preserve" font-family="Helvetica-Light" font-size="38.0" fill="#FEFFFF" transform="matrix(1.00, 0.00, -0.00, -1.00, 397.2, 689.0)">m</text><text xml:space="preserve" font-family="Helvetica-Light" font-size="38.0" fill="#FEFFFF" transform="matrix(1.00, 0.00, -0.00, -1.00, 428.8, 689.0)">o</text><text xml:space="preserve" font-family="Helvetica-Light" font-size="38.0" fill="#FEFFFF" transform="matrix(1.00, 0.00, -0.00, -1.00, 450.0, 689.0)">v</text><text xml:space="preserve" font-family="Helvetica-Light" font-size="38.0" fill="#FEFFFF" transform="matrix(1.00, 0.00, -0.00, -1.00, 469.0, 689.0)">i</text><text xml:space="preserve" font-family="Helvetica-Light" font-size="38.0" fill="#FEFFFF" transform="matrix(1.00, 0.00, -0.00, -1.00, 477.4, 689.0)">e</text><text xml:space="preserve" font-family="Helvetica-Light" font-size="38.0" fill="#FEFFFF" transform="matrix(1.00, 0.00, -0.00, -1.00, 498.5, 689.0)"> </text><text xml:space="preserve" font-family="Helvetica-Light" font-size="38.0" fill="#FEFFFF" transform="matrix(1.00, 0.00, -0.00, -1.00, 509.1, 689.0)">y</text><text xml:space="preserve" font-family="Helvetica-Light" font-size="38.0" fill="#FEFFFF" transform="matrix(1.00, 0.00, -0.00, -1.00, 528.1, 689.0)">o</text><text xml:space="preserve" font-family="Helvetica-Light" font-size="38.0" fill="#FEFFFF" transform="matrix(1.00, 0.00, -0.00, -1.00, 549.2, 689.0)">u</text><text xml:space="preserve" font-family="Helvetica-Light" font-size="38.0" fill="#FEFFFF" transform="matrix(1.00, 0.00, -0.00, -1.00, 570.4, 689.0)"> </text><text xml:space="preserve" font-family="Helvetica-Light" font-size="38.0" fill="#FEFFFF" transform="matrix(1.00, 0.00, -0.00, -1.00, 580.9, 689.0)">d</text><text xml:space="preserve" font-family="Helvetica-Light" font-size="38.0" fill="#FEFFFF" transform="matrix(1.00, 0.00, -0.00, -1.00, 604.1, 689.0)">e</text><text xml:space="preserve" font-family="Helvetica-Light" font-size="38.0" fill="#FEFFFF" transform="matrix(1.00, 0.00, -0.00, -1.00, 625.3, 689.0)">c</text><text xml:space="preserve" font-family="Helvetica-Light" font-size="38.0" fill="#FEFFFF" transform="matrix(1.00, 0.00, -0.00, -1.00, 646.4, 689.0)">i</text><text xml:space="preserve" font-family="Helvetica-Light" font-size="38.0" fill="#FEFFFF" transform="matrix(1.00, 0.00, -0.00, -1.00, 654.8, 689.0)">d</text><text xml:space="preserve" font-family="Helvetica-Light" font-size="38.0" fill="#FEFFFF" transform="matrix(1.00, 0.00, -0.00, -1.00, 678.0, 689.0)">e</text><text xml:space="preserve" font-family="Helvetica-Light" font-size="38.0" fill="#FEFFFF" transform="matrix(1.00, 0.00, -0.00, -1.00, 699.2, 689.0)"> </text><text xml:space="preserve" font-family="Helvetica-Light" font-size="38.0" fill="#FEFFFF" transform="matrix(1.00, 0.00, -0.00, -1.00, 55.0, 643.0)">t</text><text xml:space="preserve" font-family="Helvetica-Light" font-size="38.0" fill="#FEFFFF" transform="matrix(1.00, 0.00, -0.00, -1.00, 65.6, 643.0)">o</text><text xml:space="preserve" font-family="Helvetica-Light" font-size="38.0" fill="#FEFFFF" transform="matrix(1.00, 0.00, -0.00, -1.00, 86.7, 643.0)"> </text><text xml:space="preserve" font-family="Helvetica-Light" font-size="38.0" fill="#FEFFFF" transform="matrix(1.00, 0.00, -0.00, -1.00, 97.3, 643.0)">s</text><text xml:space="preserve" font-family="Helvetica-Light" font-size="38.0" fill="#FEFFFF" transform="matrix(1.00, 0.00, -0.00, -1.00, 116.3, 643.0)">t</text><text xml:space="preserve" font-family="Helvetica-Light" font-size="38.0" fill="#FEFFFF" transform="matrix(1.00, 0.00, -0.00, -1.00, 126.8, 643.0)">a</text><text xml:space="preserve" font-family="Helvetica-Light" font-size="38.0" fill="#FEFFFF" transform="matrix(1.00, 0.00, -0.00, -1.00, 147.9, 643.0)">r</text><text xml:space="preserve" font-family="Helvetica-Light" font-size="38.0" fill="#FEFFFF" transform="matrix(1.00, 0.00, -0.00, -1.00, 161.3, 643.0)">t</text><text xml:space="preserve" font-family="Helvetica-Light" font-size="38.0" fill="#FEFFFF" transform="matrix(1.00, 0.00, -0.00, -1.00, 171.8, 643.0)"> </text><text xml:space="preserve" font-family="Helvetica-Light" font-size="38.0" fill="#FEFFFF" transform="matrix(1.00, 0.00, -0.00, -1.00, 182.4, 643.0)">ﬂ</text><text xml:space="preserve" font-family="Helvetica-Light" font-size="38.0" fill="#FEFFFF" transform="matrix(1.00, 0.00, -0.00, -1.00, 201.4, 643.0)">i</text><text xml:space="preserve" font-family="Helvetica-Light" font-size="38.0" fill="#FEFFFF" transform="matrix(1.00, 0.00, -0.00, -1.00, 209.8, 643.0)">p</text><text xml:space="preserve" font-family="Helvetica-Light" font-size="38.0" fill="#FEFFFF" transform="matrix(1.00, 0.00, -0.00, -1.00, 233.1, 643.0)">p</text><text xml:space="preserve" font-family="Helvetica-Light" font-size="38.0" fill="#FEFFFF" transform="matrix(1.00, 0.00, -0.00, -1.00, 256.3, 643.0)">i</text><text xml:space="preserve" font-family="Helvetica-Light" font-size="38.0" fill="#FEFFFF" transform="matrix(1.00, 0.00, -0.00, -1.00, 264.7, 643.0)">n</text><text xml:space="preserve" font-family="Helvetica-Light" font-size="38.0" fill="#FEFFFF" transform="matrix(1.00, 0.00, -0.00, -1.00, 285.8, 643.0)">g</text><text xml:space="preserve" font-family="Helvetica-Light" font-size="38.0" fill="#FEFFFF" transform="matrix(1.00, 0.00, -0.00, -1.00, 309.1, 643.0)"> </text><text xml:space="preserve" font-family="Helvetica-Light" font-size="38.0" fill="#FEFFFF" transform="matrix(1.00, 0.00, -0.00, -1.00, 319.6, 643.0)">t</text><text xml:space="preserve" font-family="Helvetica-Light" font-size="38.0" fill="#FEFFFF" transform="matrix(1.00, 0.00, -0.00, -1.00, 330.2, 643.0)">h</text><text xml:space="preserve" font-family="Helvetica-Light" font-size="38.0" fill="#FEFFFF" transform="matrix(1.00, 0.00, -0.00, -1.00, 351.3, 643.0)">r</text><text xml:space="preserve" font-family="Helvetica-Light" font-size="38.0" fill="#FEFFFF" transform="matrix(1.00, 0.00, -0.00, -1.00, 363.3, 643.0)">o</text><text xml:space="preserve" font-family="Helvetica-Light" font-size="38.0" fill="#FEFFFF" transform="matrix(1.00, 0.00, -0.00, -1.00, 384.4, 643.0)">u</text><text xml:space="preserve" font-family="Helvetica-Light" font-size="38.0" fill="#FEFFFF" transform="matrix(1.00, 0.00, -0.00, -1.00, 405.5, 643.0)">g</text><text xml:space="preserve" font-family="Helvetica-Light" font-size="38.0" fill="#FEFFFF" transform="matrix(1.00, 0.00, -0.00, -1.00, 428.8, 643.0)">h</text><text xml:space="preserve" font-family="Helvetica-Light" font-size="38.0" fill="#FEFFFF" transform="matrix(1.00, 0.00, -0.00, -1.00, 449.9, 643.0)"> </text><text xml:space="preserve" font-family="Helvetica-Light" font-size="38.0" fill="#FEFFFF" transform="matrix(1.00, 0.00, -0.00, -1.00, 460.5, 643.0)">c</text><text xml:space="preserve" font-family="Helvetica-Light" font-size="38.0" fill="#FEFFFF" transform="matrix(1.00, 0.00, -0.00, -1.00, 481.6, 643.0)">h</text><text xml:space="preserve" font-family="Helvetica-Light" font-size="38.0" fill="#FEFFFF" transform="matrix(1.00, 0.00, -0.00, -1.00, 502.7, 643.0)">a</text><text xml:space="preserve" font-family="Helvetica-Light" font-size="38.0" fill="#FEFFFF" transform="matrix(1.00, 0.00, -0.00, -1.00, 523.8, 643.0)">n</text><text xml:space="preserve" font-family="Helvetica-Light" font-size="38.0" fill="#FEFFFF" transform="matrix(1.00, 0.00, -0.00, -1.00, 545.0, 643.0)">n</text><text xml:space="preserve" font-family="Helvetica-Light" font-size="38.0" fill="#FEFFFF" transform="matrix(1.00, 0.00, -0.00, -1.00, 566.1, 643.0)">e</text><text xml:space="preserve" font-family="Helvetica-Light" font-size="38.0" fill="#FEFFFF" transform="matrix(1.00, 0.00, -0.00, -1.00, 587.2, 643.0)">l</text><text xml:space="preserve" font-family="Helvetica-Light" font-size="38.0" fill="#FEFFFF" transform="matrix(1.00, 0.00, -0.00, -1.00, 595.7, 643.0)">s</text><text xml:space="preserve" font-family="Helvetica-Light" font-size="38.0" fill="#FEFFFF" transform="matrix(1.00, 0.00, -0.00, -1.00, 614.7, 643.0)"> </text><text xml:space="preserve" font-family="Helvetica-Light" font-size="38.0" fill="#FEFFFF" transform="matrix(1.00, 0.00, -0.00, -1.00, 625.2, 643.0)">t</text><text xml:space="preserve" font-family="Helvetica-Light" font-size="38.0" fill="#FEFFFF" transform="matrix(1.00, 0.00, -0.00, -1.00, 635.8, 643.0)">o</text><text xml:space="preserve" font-family="Helvetica-Light" font-size="38.0" fill="#FEFFFF" transform="matrix(1.00, 0.00, -0.00, -1.00, 656.9, 643.0)"> </text><text xml:space="preserve" font-family="Helvetica-Light" font-size="38.0" fill="#FEFFFF" transform="matrix(1.00, 0.00, -0.00, -1.00, 55.0, 597.0)">s</text><text xml:space="preserve" font-family="Helvetica-Light" font-size="38.0" fill="#FEFFFF" transform="matrix(1.00, 0.00, -0.00, -1.00, 74.0, 597.0)">e</text><text xml:space="preserve" font-family="Helvetica-Light" font-size="38.0" fill="#FEFFFF" transform="matrix(1.00, 0.00, -0.00, -1.00, 95.1, 597.0)">e</text><text xml:space="preserve" font-family="Helvetica-Light" font-size="38.0" fill="#FEFFFF" transform="matrix(1.00, 0.00, -0.00, -1.00, 116.3, 597.0)"> </text><text xml:space="preserve" font-family="Helvetica-Light" font-size="38.0" fill="#FEFFFF" transform="matrix(1.00, 0.00, -0.00, -1.00, 126.8, 597.0)">w</text><text xml:space="preserve" font-family="Helvetica-Light" font-size="38.0" fill="#FEFFFF" transform="matrix(1.00, 0.00, -0.00, -1.00, 154.3, 597.0)">h</text><text xml:space="preserve" font-family="Helvetica-Light" font-size="38.0" fill="#FEFFFF" transform="matrix(1.00, 0.00, -0.00, -1.00, 175.4, 597.0)">a</text><text xml:space="preserve" font-family="Helvetica-Light" font-size="38.0" fill="#FEFFFF" transform="matrix(1.00, 0.00, -0.00, -1.00, 196.5, 597.0)">t</text><text xml:space="preserve" font-family="Helvetica-Light" font-size="38.0" fill="#FEFFFF" transform="matrix(1.00, 0.00, -0.00, -1.00, 207.1, 597.0)"> </text><text xml:space="preserve" font-family="Helvetica-Light" font-size="38.0" fill="#FEFFFF" transform="matrix(1.00, 0.00, -0.00, -1.00, 217.6, 597.0)">e</text><text xml:space="preserve" font-family="Helvetica-Light" font-size="38.0" fill="#FEFFFF" transform="matrix(1.00, 0.00, -0.00, -1.00, 238.8, 597.0)">l</text><text xml:space="preserve" font-family="Helvetica-Light" font-size="38.0" fill="#FEFFFF" transform="matrix(1.00, 0.00, -0.00, -1.00, 247.2, 597.0)">s</text><text xml:space="preserve" font-family="Helvetica-Light" font-size="38.0" fill="#FEFFFF" transform="matrix(1.00, 0.00, -0.00, -1.00, 266.2, 597.0)">e</text><text xml:space="preserve" font-family="Helvetica-Light" font-size="38.0" fill="#FEFFFF" transform="matrix(1.00, 0.00, -0.00, -1.00, 287.3, 597.0)"> </text><text xml:space="preserve" font-family="Helvetica-Light" font-size="38.0" fill="#FEFFFF" transform="matrix(1.00, 0.00, -0.00, -1.00, 297.9, 597.0)">i</text><text xml:space="preserve" font-family="Helvetica-Light" font-size="38.0" fill="#FEFFFF" transform="matrix(1.00, 0.00, -0.00, -1.00, 306.3, 597.0)">s</text><text xml:space="preserve" font-family="Helvetica-Light" font-size="38.0" fill="#FEFFFF" transform="matrix(1.00, 0.00, -0.00, -1.00, 325.3, 597.0)"> </text><text xml:space="preserve" font-family="Helvetica-Light" font-size="38.0" fill="#FEFFFF" transform="matrix(1.00, 0.00, -0.00, -1.00, 335.9, 597.0)">o</text><text xml:space="preserve" font-family="Helvetica-Light" font-size="38.0" fill="#FEFFFF" transform="matrix(1.00, 0.00, -0.00, -1.00, 357.0, 597.0)">n</text><text xml:space="preserve" font-family="Helvetica-Light" font-size="38.0" fill="#FEFFFF" transform="matrix(1.00, 0.00, -0.00, -1.00, 378.2, 597.0)">.</text><text xml:space="preserve" font-family="Helvetica-Light" font-size="38.0" fill="#FEFFFF" transform="matrix(1.00, 0.00, -0.00, -1.00, 388.7, 597.0)"> </text><text xml:space="preserve" font-family="Helvetica-Light" font-size="38.0" fill="#FEFFFF" transform="matrix(1.00, 0.00, -0.00, -1.00, 399.3, 597.0)">T</text><text xml:space="preserve" font-family="Helvetica-Light" font-size="38.0" fill="#FEFFFF" transform="matrix(1.00, 0.00, -0.00, -1.00, 420.4, 597.0)">h</text><text xml:space="preserve" font-family="Helvetica-Light" font-size="38.0" fill="#FEFFFF" transform="matrix(1.00, 0.00, -0.00, -1.00, 441.5, 597.0)">e</text><text xml:space="preserve" font-family="Helvetica-Light" font-size="38.0" fill="#FEFFFF" transform="matrix(1.00, 0.00, -0.00, -1.00, 462.7, 597.0)">n</text><text xml:space="preserve" font-family="Helvetica-Light" font-size="38.0" fill="#FEFFFF" transform="matrix(1.00, 0.00, -0.00, -1.00, 483.8, 597.0)"> </text><text xml:space="preserve" font-family="Helvetica-Light" font-size="38.0" fill="#FEFFFF" transform="matrix(1.00, 0.00, -0.00, -1.00, 494.4, 597.0)">y</text><text xml:space="preserve" font-family="Helvetica-Light" font-size="38.0" fill="#FEFFFF" transform="matrix(1.00, 0.00, -0.00, -1.00, 513.4, 597.0)">o</text><text xml:space="preserve" font-family="Helvetica-Light" font-size="38.0" fill="#FEFFFF" transform="matrix(1.00, 0.00, -0.00, -1.00, 534.5, 597.0)">u</text><text xml:space="preserve" font-family="Helvetica-Light" font-size="38.0" fill="#FEFFFF" transform="matrix(1.00, 0.00, -0.00, -1.00, 555.6, 597.0)"> </text><text xml:space="preserve" font-family="Helvetica-Light" font-size="38.0" fill="#FEFFFF" transform="matrix(1.00, 0.00, -0.00, -1.00, 55.0, 551.0)">r</text><text xml:space="preserve" font-family="Helvetica-Light" font-size="38.0" fill="#FEFFFF" transform="matrix(1.00, 0.00, -0.00, -1.00, 67.0, 551.0)">e</text><text xml:space="preserve" font-family="Helvetica-Light" font-size="38.0" fill="#FEFFFF" transform="matrix(1.00, 0.00, -0.00, -1.00, 88.1, 551.0)">m</text><text xml:space="preserve" font-family="Helvetica-Light" font-size="38.0" fill="#FEFFFF" transform="matrix(1.00, 0.00, -0.00, -1.00, 119.8, 551.0)">e</text><text xml:space="preserve" font-family="Helvetica-Light" font-size="38.0" fill="#FEFFFF" transform="matrix(1.00, 0.00, -0.00, -1.00, 140.9, 551.0)">m</text><text xml:space="preserve" font-family="Helvetica-Light" font-size="38.0" fill="#FEFFFF" transform="matrix(1.00, 0.00, -0.00, -1.00, 172.5, 551.0)">b</text><text xml:space="preserve" font-family="Helvetica-Light" font-size="38.0" fill="#FEFFFF" transform="matrix(1.00, 0.00, -0.00, -1.00, 195.8, 551.0)">e</text><text xml:space="preserve" font-family="Helvetica-Light" font-size="38.0" fill="#FEFFFF" transform="matrix(1.00, 0.00, -0.00, -1.00, 216.9, 551.0)">r</text><text xml:space="preserve" font-family="Helvetica-Light" font-size="38.0" fill="#FEFFFF" transform="matrix(1.00, 0.00, -0.00, -1.00, 229.5, 551.0)"> </text><text xml:space="preserve" font-family="Helvetica-Light" font-size="38.0" fill="#FEFFFF" transform="matrix(1.00, 0.00, -0.00, -1.00, 240.1, 551.0)">t</text><text xml:space="preserve" font-family="Helvetica-Light" font-size="38.0" fill="#FEFFFF" transform="matrix(1.00, 0.00, -0.00, -1.00, 250.7, 551.0)">h</text><text xml:space="preserve" font-family="Helvetica-Light" font-size="38.0" fill="#FEFFFF" transform="matrix(1.00, 0.00, -0.00, -1.00, 271.8, 551.0)">a</text><text xml:space="preserve" font-family="Helvetica-Light" font-size="38.0" fill="#FEFFFF" transform="matrix(1.00, 0.00, -0.00, -1.00, 292.9, 551.0)">t</text><text xml:space="preserve" font-family="Helvetica-Light" font-size="38.0" fill="#FEFFFF" transform="matrix(1.00, 0.00, -0.00, -1.00, 303.5, 551.0)"> </text><text xml:space="preserve" font-family="Helvetica-Light" font-size="38.0" fill="#FEFFFF" transform="matrix(1.00, 0.00, -0.00, -1.00, 314.0, 551.0)">y</text><text xml:space="preserve" font-family="Helvetica-Light" font-size="38.0" fill="#FEFFFF" transform="matrix(1.00, 0.00, -0.00, -1.00, 333.0, 551.0)">o</text><text xml:space="preserve" font-family="Helvetica-Light" font-size="38.0" fill="#FEFFFF" transform="matrix(1.00, 0.00, -0.00, -1.00, 354.2, 551.0)">u</text><text xml:space="preserve" font-family="Helvetica-Light" font-size="38.0" fill="#FEFFFF" transform="matrix(1.00, 0.00, -0.00, -1.00, 375.3, 551.0)"> </text><text xml:space="preserve" font-family="Helvetica-Light" font-size="38.0" fill="#FEFFFF" transform="matrix(1.00, 0.00, -0.00, -1.00, 385.9, 551.0)">h</text><text xml:space="preserve" font-family="Helvetica-Light" font-size="38.0" fill="#FEFFFF" transform="matrix(1.00, 0.00, -0.00, -1.00, 407.0, 551.0)">a</text><text xml:space="preserve" font-family="Helvetica-Light" font-size="38.0" fill="#FEFFFF" transform="matrix(1.00, 0.00, -0.00, -1.00, 428.1, 551.0)">v</text><text xml:space="preserve" font-family="Helvetica-Light" font-size="38.0" fill="#FEFFFF" transform="matrix(1.00, 0.00, -0.00, -1.00, 447.1, 551.0)">e</text><text xml:space="preserve" font-family="Helvetica-Light" font-size="38.0" fill="#FEFFFF" transform="matrix(1.00, 0.00, -0.00, -1.00, 468.2, 551.0)">n</text><text xml:space="preserve" font-family="Helvetica-Light" font-size="38.0" fill="#FEFFFF" transform="matrix(1.00, 0.00, -0.00, -1.00, 489.4, 551.0)">'</text><text xml:space="preserve" font-family="Helvetica-Light" font-size="38.0" fill="#FEFFFF" transform="matrix(1.00, 0.00, -0.00, -1.00, 497.8, 551.0)">t</text><text xml:space="preserve" font-family="Helvetica-Light" font-size="38.0" fill="#FEFFFF" transform="matrix(1.00, 0.00, -0.00, -1.00, 508.4, 551.0)"> </text><text xml:space="preserve" font-family="Helvetica-Light" font-size="38.0" fill="#FEFFFF" transform="matrix(1.00, 0.00, -0.00, -1.00, 518.9, 551.0)">t</text><text xml:space="preserve" font-family="Helvetica-Light" font-size="38.0" fill="#FEFFFF" transform="matrix(1.00, 0.00, -0.00, -1.00, 529.5, 551.0)">a</text><text xml:space="preserve" font-family="Helvetica-Light" font-size="38.0" fill="#FEFFFF" transform="matrix(1.00, 0.00, -0.00, -1.00, 550.6, 551.0)">k</text><text xml:space="preserve" font-family="Helvetica-Light" font-size="38.0" fill="#FEFFFF" transform="matrix(1.00, 0.00, -0.00, -1.00, 569.6, 551.0)">e</text><text xml:space="preserve" font-family="Helvetica-Light" font-size="38.0" fill="#FEFFFF" transform="matrix(1.00, 0.00, -0.00, -1.00, 590.8, 551.0)">n</text><text xml:space="preserve" font-family="Helvetica-Light" font-size="38.0" fill="#FEFFFF" transform="matrix(1.00, 0.00, -0.00, -1.00, 611.9, 551.0)"> </text><text xml:space="preserve" font-family="Helvetica-Light" font-size="38.0" fill="#FEFFFF" transform="matrix(1.00, 0.00, -0.00, -1.00, 622.5, 551.0)">o</text><text xml:space="preserve" font-family="Helvetica-Light" font-size="38.0" fill="#FEFFFF" transform="matrix(1.00, 0.00, -0.00, -1.00, 643.6, 551.0)">u</text><text xml:space="preserve" font-family="Helvetica-Light" font-size="38.0" fill="#FEFFFF" transform="matrix(1.00, 0.00, -0.00, -1.00, 664.7, 551.0)">t</text><text xml:space="preserve" font-family="Helvetica-Light" font-size="38.0" fill="#FEFFFF" transform="matrix(1.00, 0.00, -0.00, -1.00, 675.3, 551.0)"> </text><text xml:space="preserve" font-family="Helvetica-Light" font-size="38.0" fill="#FEFFFF" transform="matrix(1.00, 0.00, -0.00, -1.00, 55.0, 505.0)">t</text><text xml:space="preserve" font-family="Helvetica-Light" font-size="38.0" fill="#FEFFFF" transform="matrix(1.00, 0.00, -0.00, -1.00, 65.6, 505.0)">h</text><text xml:space="preserve" font-family="Helvetica-Light" font-size="38.0" fill="#FEFFFF" transform="matrix(1.00, 0.00, -0.00, -1.00, 86.7, 505.0)">e</text><text xml:space="preserve" font-family="Helvetica-Light" font-size="38.0" fill="#FEFFFF" transform="matrix(1.00, 0.00, -0.00, -1.00, 107.8, 505.0)"> </text><text xml:space="preserve" font-family="Helvetica-Light" font-size="38.0" fill="#FEFFFF" transform="matrix(1.00, 0.00, -0.00, -1.00, 118.4, 505.0)">d</text><text xml:space="preserve" font-family="Helvetica-Light" font-size="38.0" fill="#FEFFFF" transform="matrix(1.00, 0.00, -0.00, -1.00, 141.6, 505.0)">o</text><text xml:space="preserve" font-family="Helvetica-Light" font-size="38.0" fill="#FEFFFF" transform="matrix(1.00, 0.00, -0.00, -1.00, 162.7, 505.0)">g</text><text xml:space="preserve" font-family="Helvetica-Light" font-size="38.0" fill="#FEFFFF" transform="matrix(1.00, 0.00, -0.00, -1.00, 185.9, 505.0)"> </text><text xml:space="preserve" font-family="Helvetica-Light" font-size="38.0" fill="#FEFFFF" transform="matrix(1.00, 0.00, -0.00, -1.00, 196.5, 505.0)">f</text><text xml:space="preserve" font-family="Helvetica-Light" font-size="38.0" fill="#FEFFFF" transform="matrix(1.00, 0.00, -0.00, -1.00, 207.1, 505.0)">o</text><text xml:space="preserve" font-family="Helvetica-Light" font-size="38.0" fill="#FEFFFF" transform="matrix(1.00, 0.00, -0.00, -1.00, 228.2, 505.0)">r</text><text xml:space="preserve" font-family="Helvetica-Light" font-size="38.0" fill="#FEFFFF" transform="matrix(1.00, 0.00, -0.00, -1.00, 240.9, 505.0)"> </text><text xml:space="preserve" font-family="Helvetica-Light" font-size="38.0" fill="#FEFFFF" transform="matrix(1.00, 0.00, -0.00, -1.00, 251.4, 505.0)">a</text><text xml:space="preserve" font-family="Helvetica-Light" font-size="38.0" fill="#FEFFFF" transform="matrix(1.00, 0.00, -0.00, -1.00, 272.6, 505.0)"> </text><text xml:space="preserve" font-family="Helvetica-Light" font-size="38.0" fill="#FEFFFF" transform="matrix(1.00, 0.00, -0.00, -1.00, 283.1, 505.0)">w</text><text xml:space="preserve" font-family="Helvetica-Light" font-size="38.0" fill="#FEFFFF" transform="matrix(1.00, 0.00, -0.00, -1.00, 310.6, 505.0)">a</text><text xml:space="preserve" font-family="Helvetica-Light" font-size="38.0" fill="#FEFFFF" transform="matrix(1.00, 0.00, -0.00, -1.00, 331.7, 505.0)">l</text><text xml:space="preserve" font-family="Helvetica-Light" font-size="38.0" fill="#FEFFFF" transform="matrix(1.00, 0.00, -0.00, -1.00, 340.1, 505.0)">k</text><text xml:space="preserve" font-family="Helvetica-Light" font-size="38.0" fill="#FEFFFF" transform="matrix(1.00, 0.00, -0.00, -1.00, 359.1, 505.0)"> </text><text xml:space="preserve" font-family="Helvetica-Light" font-size="38.0" fill="#FEFFFF" transform="matrix(1.00, 0.00, -0.00, -1.00, 369.7, 505.0)">t</text><text xml:space="preserve" font-family="Helvetica-Light" font-size="38.0" fill="#FEFFFF" transform="matrix(1.00, 0.00, -0.00, -1.00, 380.2, 505.0)">o</text><text xml:space="preserve" font-family="Helvetica-Light" font-size="38.0" fill="#FEFFFF" transform="matrix(1.00, 0.00, -0.00, -1.00, 401.4, 505.0)">d</text><text xml:space="preserve" font-family="Helvetica-Light" font-size="38.0" fill="#FEFFFF" transform="matrix(1.00, 0.00, -0.00, -1.00, 424.6, 505.0)">a</text><text xml:space="preserve" font-family="Helvetica-Light" font-size="38.0" fill="#FEFFFF" transform="matrix(1.00, 0.00, -0.00, -1.00, 445.7, 505.0)">y</text><text xml:space="preserve" font-family="Helvetica-Light" font-size="38.0" fill="#FEFFFF" transform="matrix(1.00, 0.00, -0.00, -1.00, 461.2, 505.0)">,</text><text xml:space="preserve" font-family="Helvetica-Light" font-size="38.0" fill="#FEFFFF" transform="matrix(1.00, 0.00, -0.00, -1.00, 471.8, 505.0)"> </text><text xml:space="preserve" font-family="Helvetica-Light" font-size="38.0" fill="#FEFFFF" transform="matrix(1.00, 0.00, -0.00, -1.00, 482.3, 505.0)">b</text><text xml:space="preserve" font-family="Helvetica-Light" font-size="38.0" fill="#FEFFFF" transform="matrix(1.00, 0.00, -0.00, -1.00, 505.6, 505.0)">u</text><text xml:space="preserve" font-family="Helvetica-Light" font-size="38.0" fill="#FEFFFF" transform="matrix(1.00, 0.00, -0.00, -1.00, 526.7, 505.0)">t</text><text xml:space="preserve" font-family="Helvetica-Light" font-size="38.0" fill="#FEFFFF" transform="matrix(1.00, 0.00, -0.00, -1.00, 537.3, 505.0)"> </text><text xml:space="preserve" font-family="Helvetica-Light" font-size="38.0" fill="#FEFFFF" transform="matrix(1.00, 0.00, -0.00, -1.00, 547.8, 505.0)">y</text><text xml:space="preserve" font-family="Helvetica-Light" font-size="38.0" fill="#FEFFFF" transform="matrix(1.00, 0.00, -0.00, -1.00, 566.8, 505.0)">o</text><text xml:space="preserve" font-family="Helvetica-Light" font-size="38.0" fill="#FEFFFF" transform="matrix(1.00, 0.00, -0.00, -1.00, 588.0, 505.0)">u</text><text xml:space="preserve" font-family="Helvetica-Light" font-size="38.0" fill="#FEFFFF" transform="matrix(1.00, 0.00, -0.00, -1.00, 609.1, 505.0)"> </text><text xml:space="preserve" font-family="Helvetica-Light" font-size="38.0" fill="#FEFFFF" transform="matrix(1.00, 0.00, -0.00, -1.00, 619.6, 505.0)">r</text><text xml:space="preserve" font-family="Helvetica-Light" font-size="38.0" fill="#FEFFFF" transform="matrix(1.00, 0.00, -0.00, -1.00, 631.6, 505.0)">e</text><text xml:space="preserve" font-family="Helvetica-Light" font-size="38.0" fill="#FEFFFF" transform="matrix(1.00, 0.00, -0.00, -1.00, 652.7, 505.0)">a</text><text xml:space="preserve" font-family="Helvetica-Light" font-size="38.0" fill="#FEFFFF" transform="matrix(1.00, 0.00, -0.00, -1.00, 673.9, 505.0)">l</text><text xml:space="preserve" font-family="Helvetica-Light" font-size="38.0" fill="#FEFFFF" transform="matrix(1.00, 0.00, -0.00, -1.00, 682.3, 505.0)">l</text><text xml:space="preserve" font-family="Helvetica-Light" font-size="38.0" fill="#FEFFFF" transform="matrix(1.00, 0.00, -0.00, -1.00, 690.7, 505.0)">y</text><text xml:space="preserve" font-family="Helvetica-Light" font-size="38.0" fill="#FEFFFF" transform="matrix(1.00, 0.00, -0.00, -1.00, 709.7, 505.0)"> </text><text xml:space="preserve" font-family="Helvetica-Light" font-size="38.0" fill="#FEFFFF" transform="matrix(1.00, 0.00, -0.00, -1.00, 55.0, 459.0)">w</text><text xml:space="preserve" font-family="Helvetica-Light" font-size="38.0" fill="#FEFFFF" transform="matrix(1.00, 0.00, -0.00, -1.00, 82.4, 459.0)">a</text><text xml:space="preserve" font-family="Helvetica-Light" font-size="38.0" fill="#FEFFFF" transform="matrix(1.00, 0.00, -0.00, -1.00, 103.6, 459.0)">n</text><text xml:space="preserve" font-family="Helvetica-Light" font-size="38.0" fill="#FEFFFF" transform="matrix(1.00, 0.00, -0.00, -1.00, 124.7, 459.0)">t</text><text xml:space="preserve" font-family="Helvetica-Light" font-size="38.0" fill="#FEFFFF" transform="matrix(1.00, 0.00, -0.00, -1.00, 135.3, 459.0)"> </text><text xml:space="preserve" font-family="Helvetica-Light" font-size="38.0" fill="#FEFFFF" transform="matrix(1.00, 0.00, -0.00, -1.00, 145.8, 459.0)">t</text><text xml:space="preserve" font-family="Helvetica-Light" font-size="38.0" fill="#FEFFFF" transform="matrix(1.00, 0.00, -0.00, -1.00, 156.4, 459.0)">o</text><text xml:space="preserve" font-family="Helvetica-Light" font-size="38.0" fill="#FEFFFF" transform="matrix(1.00, 0.00, -0.00, -1.00, 177.5, 459.0)"> </text><text xml:space="preserve" font-family="Helvetica-Light" font-size="38.0" fill="#FEFFFF" transform="matrix(1.00, 0.00, -0.00, -1.00, 188.1, 459.0)">s</text><text xml:space="preserve" font-family="Helvetica-Light" font-size="38.0" fill="#FEFFFF" transform="matrix(1.00, 0.00, -0.00, -1.00, 207.1, 459.0)">c</text><text xml:space="preserve" font-family="Helvetica-Light" font-size="38.0" fill="#FEFFFF" transform="matrix(1.00, 0.00, -0.00, -1.00, 228.2, 459.0)">r</text><text xml:space="preserve" font-family="Helvetica-Light" font-size="38.0" fill="#FEFFFF" transform="matrix(1.00, 0.00, -0.00, -1.00, 240.2, 459.0)">o</text><text xml:space="preserve" font-family="Helvetica-Light" font-size="38.0" fill="#FEFFFF" transform="matrix(1.00, 0.00, -0.00, -1.00, 261.3, 459.0)">l</text><text xml:space="preserve" font-family="Helvetica-Light" font-size="38.0" fill="#FEFFFF" transform="matrix(1.00, 0.00, -0.00, -1.00, 269.7, 459.0)">l</text><text xml:space="preserve" font-family="Helvetica-Light" font-size="38.0" fill="#FEFFFF" transform="matrix(1.00, 0.00, -0.00, -1.00, 278.2, 459.0)"> </text><text xml:space="preserve" font-family="Helvetica-Light" font-size="38.0" fill="#FEFFFF" transform="matrix(1.00, 0.00, -0.00, -1.00, 288.7, 459.0)">t</text><text xml:space="preserve" font-family="Helvetica-Light" font-size="38.0" fill="#FEFFFF" transform="matrix(1.00, 0.00, -0.00, -1.00, 299.3, 459.0)">h</text><text xml:space="preserve" font-family="Helvetica-Light" font-size="38.0" fill="#FEFFFF" transform="matrix(1.00, 0.00, -0.00, -1.00, 320.4, 459.0)">r</text><text xml:space="preserve" font-family="Helvetica-Light" font-size="38.0" fill="#FEFFFF" transform="matrix(1.00, 0.00, -0.00, -1.00, 332.4, 459.0)">o</text><text xml:space="preserve" font-family="Helvetica-Light" font-size="38.0" fill="#FEFFFF" transform="matrix(1.00, 0.00, -0.00, -1.00, 353.5, 459.0)">u</text><text xml:space="preserve" font-family="Helvetica-Light" font-size="38.0" fill="#FEFFFF" transform="matrix(1.00, 0.00, -0.00, -1.00, 374.7, 459.0)">g</text><text xml:space="preserve" font-family="Helvetica-Light" font-size="38.0" fill="#FEFFFF" transform="matrix(1.00, 0.00, -0.00, -1.00, 397.9, 459.0)">h</text><text xml:space="preserve" font-family="Helvetica-Light" font-size="38.0" fill="#FEFFFF" transform="matrix(1.00, 0.00, -0.00, -1.00, 419.0, 459.0)"> </text><text xml:space="preserve" font-family="Helvetica-Light" font-size="38.0" fill="#FEFFFF" transform="matrix(1.00, 0.00, -0.00, -1.00, 429.6, 459.0)">F</text><text xml:space="preserve" font-family="Helvetica-Light" font-size="38.0" fill="#FEFFFF" transform="matrix(1.00, 0.00, -0.00, -1.00, 450.7, 459.0)">a</text><text xml:space="preserve" font-family="Helvetica-Light" font-size="38.0" fill="#FEFFFF" transform="matrix(1.00, 0.00, -0.00, -1.00, 471.8, 459.0)">c</text><text xml:space="preserve" font-family="Helvetica-Light" font-size="38.0" fill="#FEFFFF" transform="matrix(1.00, 0.00, -0.00, -1.00, 492.9, 459.0)">e</text><text xml:space="preserve" font-family="Helvetica-Light" font-size="38.0" fill="#FEFFFF" transform="matrix(1.00, 0.00, -0.00, -1.00, 514.1, 459.0)">b</text><text xml:space="preserve" font-family="Helvetica-Light" font-size="38.0" fill="#FEFFFF" transform="matrix(1.00, 0.00, -0.00, -1.00, 537.3, 459.0)">o</text><text xml:space="preserve" font-family="Helvetica-Light" font-size="38.0" fill="#FEFFFF" transform="matrix(1.00, 0.00, -0.00, -1.00, 558.4, 459.0)">o</text><text xml:space="preserve" font-family="Helvetica-Light" font-size="38.0" fill="#FEFFFF" transform="matrix(1.00, 0.00, -0.00, -1.00, 579.6, 459.0)">k</text><text xml:space="preserve" font-family="Helvetica-Light" font-size="38.0" fill="#FEFFFF" transform="matrix(1.00, 0.00, -0.00, -1.00, 598.6, 459.0)"> </text><text xml:space="preserve" font-family="Helvetica-Light" font-size="38.0" fill="#FEFFFF" transform="matrix(1.00, 0.00, -0.00, -1.00, 609.1, 459.0)">f</text><text xml:space="preserve" font-family="Helvetica-Light" font-size="38.0" fill="#FEFFFF" transform="matrix(1.00, 0.00, -0.00, -1.00, 619.7, 459.0)">o</text><text xml:space="preserve" font-family="Helvetica-Light" font-size="38.0" fill="#FEFFFF" transform="matrix(1.00, 0.00, -0.00, -1.00, 640.8, 459.0)">r</text><text xml:space="preserve" font-family="Helvetica-Light" font-size="38.0" fill="#FEFFFF" transform="matrix(1.00, 0.00, -0.00, -1.00, 653.5, 459.0)"> </text><text xml:space="preserve" font-family="Helvetica-Light" font-size="38.0" fill="#FEFFFF" transform="matrix(1.00, 0.00, -0.00, -1.00, 664.0, 459.0)">a</text><text xml:space="preserve" font-family="Helvetica-Light" font-size="38.0" fill="#FEFFFF" transform="matrix(1.00, 0.00, -0.00, -1.00, 685.2, 459.0)"> </text><text xml:space="preserve" font-family="Helvetica-Light" font-size="38.0" fill="#FEFFFF" transform="matrix(1.00, 0.00, -0.00, -1.00, 55.0, 413.0)">b</text><text xml:space="preserve" font-family="Helvetica-Light" font-size="38.0" fill="#FEFFFF" transform="matrix(1.00, 0.00, -0.00, -1.00, 78.2, 413.0)">i</text><text xml:space="preserve" font-family="Helvetica-Light" font-size="38.0" fill="#FEFFFF" transform="matrix(1.00, 0.00, -0.00, -1.00, 86.7, 413.0)">t</text><text xml:space="preserve" font-family="Helvetica-Light" font-size="38.0" fill="#FEFFFF" transform="matrix(1.00, 0.00, -0.00, -1.00, 97.2, 413.0)"> </text><text xml:space="preserve" font-family="Helvetica-Light" font-size="38.0" fill="#FEFFFF" transform="matrix(1.00, 0.00, -0.00, -1.00, 107.8, 413.0)">i</text><text xml:space="preserve" font-family="Helvetica-Light" font-size="38.0" fill="#FEFFFF" transform="matrix(1.00, 0.00, -0.00, -1.00, 116.2, 413.0)">n</text><text xml:space="preserve" font-family="Helvetica-Light" font-size="38.0" fill="#FEFFFF" transform="matrix(1.00, 0.00, -0.00, -1.00, 137.3, 413.0)">s</text><text xml:space="preserve" font-family="Helvetica-Light" font-size="38.0" fill="#FEFFFF" transform="matrix(1.00, 0.00, -0.00, -1.00, 156.3, 413.0)">t</text><text xml:space="preserve" font-family="Helvetica-Light" font-size="38.0" fill="#FEFFFF" transform="matrix(1.00, 0.00, -0.00, -1.00, 166.9, 413.0)">e</text><text xml:space="preserve" font-family="Helvetica-Light" font-size="38.0" fill="#FEFFFF" transform="matrix(1.00, 0.00, -0.00, -1.00, 188.0, 413.0)">a</text><text xml:space="preserve" font-family="Helvetica-Light" font-size="38.0" fill="#FEFFFF" transform="matrix(1.00, 0.00, -0.00, -1.00, 209.2, 413.0)">d</text><text xml:space="preserve" font-family="Helvetica-Light" font-size="38.0" fill="#FEFFFF" transform="matrix(1.00, 0.00, -0.00, -1.00, 232.4, 413.0)"> </text><text xml:space="preserve" font-family="Helvetica-Light" font-size="38.0" fill="#FEFFFF" transform="matrix(1.00, 0.00, -0.00, -1.00, 242.9, 413.0)">s</text><text xml:space="preserve" font-family="Helvetica-Light" font-size="38.0" fill="#FEFFFF" transform="matrix(1.00, 0.00, -0.00, -1.00, 261.9, 413.0)">i</text><text xml:space="preserve" font-family="Helvetica-Light" font-size="38.0" fill="#FEFFFF" transform="matrix(1.00, 0.00, -0.00, -1.00, 270.4, 413.0)">n</text><text xml:space="preserve" font-family="Helvetica-Light" font-size="38.0" fill="#FEFFFF" transform="matrix(1.00, 0.00, -0.00, -1.00, 291.5, 413.0)">c</text><text xml:space="preserve" font-family="Helvetica-Light" font-size="38.0" fill="#FEFFFF" transform="matrix(1.00, 0.00, -0.00, -1.00, 312.6, 413.0)">e</text><text xml:space="preserve" font-family="Helvetica-Light" font-size="38.0" fill="#FEFFFF" transform="matrix(1.00, 0.00, -0.00, -1.00, 333.8, 413.0)"> </text><text xml:space="preserve" font-family="Helvetica-Light" font-size="38.0" fill="#FEFFFF" transform="matrix(1.00, 0.00, -0.00, -1.00, 344.3, 413.0)">y</text><text xml:space="preserve" font-family="Helvetica-Light" font-size="38.0" fill="#FEFFFF" transform="matrix(1.00, 0.00, -0.00, -1.00, 363.3, 413.0)">o</text><text xml:space="preserve" font-family="Helvetica-Light" font-size="38.0" fill="#FEFFFF" transform="matrix(1.00, 0.00, -0.00, -1.00, 384.5, 413.0)">u</text><text xml:space="preserve" font-family="Helvetica-Light" font-size="38.0" fill="#FEFFFF" transform="matrix(1.00, 0.00, -0.00, -1.00, 405.6, 413.0)"> </text><text xml:space="preserve" font-family="Helvetica-Light" font-size="38.0" fill="#FEFFFF" transform="matrix(1.00, 0.00, -0.00, -1.00, 416.2, 413.0)">d</text><text xml:space="preserve" font-family="Helvetica-Light" font-size="38.0" fill="#FEFFFF" transform="matrix(1.00, 0.00, -0.00, -1.00, 439.4, 413.0)">i</text><text xml:space="preserve" font-family="Helvetica-Light" font-size="38.0" fill="#FEFFFF" transform="matrix(1.00, 0.00, -0.00, -1.00, 447.8, 413.0)">d</text><text xml:space="preserve" font-family="Helvetica-Light" font-size="38.0" fill="#FEFFFF" transform="matrix(1.00, 0.00, -0.00, -1.00, 471.0, 413.0)"> </text><text xml:space="preserve" font-family="Helvetica-Light" font-size="38.0" fill="#FEFFFF" transform="matrix(1.00, 0.00, -0.00, -1.00, 481.6, 413.0)">t</text><text xml:space="preserve" font-family="Helvetica-Light" font-size="38.0" fill="#FEFFFF" transform="matrix(1.00, 0.00, -0.00, -1.00, 492.2, 413.0)">a</text><text xml:space="preserve" font-family="Helvetica-Light" font-size="38.0" fill="#FEFFFF" transform="matrix(1.00, 0.00, -0.00, -1.00, 513.3, 413.0)">k</text><text xml:space="preserve" font-family="Helvetica-Light" font-size="38.0" fill="#FEFFFF" transform="matrix(1.00, 0.00, -0.00, -1.00, 532.3, 413.0)">e</text><text xml:space="preserve" font-family="Helvetica-Light" font-size="38.0" fill="#FEFFFF" transform="matrix(1.00, 0.00, -0.00, -1.00, 553.4, 413.0)"> </text><text xml:space="preserve" font-family="Helvetica-Light" font-size="38.0" fill="#FEFFFF" transform="matrix(1.00, 0.00, -0.00, -1.00, 564.0, 413.0)">t</text><text xml:space="preserve" font-family="Helvetica-Light" font-size="38.0" fill="#FEFFFF" transform="matrix(1.00, 0.00, -0.00, -1.00, 574.5, 413.0)">h</text><text xml:space="preserve" font-family="Helvetica-Light" font-size="38.0" fill="#FEFFFF" transform="matrix(1.00, 0.00, -0.00, -1.00, 595.7, 413.0)">e</text><text xml:space="preserve" font-family="Helvetica-Light" font-size="38.0" fill="#FEFFFF" transform="matrix(1.00, 0.00, -0.00, -1.00, 616.8, 413.0)"> </text><text xml:space="preserve" font-family="Helvetica-Light" font-size="38.0" fill="#FEFFFF" transform="matrix(1.00, 0.00, -0.00, -1.00, 627.4, 413.0)">d</text><text xml:space="preserve" font-family="Helvetica-Light" font-size="38.0" fill="#FEFFFF" transform="matrix(1.00, 0.00, -0.00, -1.00, 650.6, 413.0)">o</text><text xml:space="preserve" font-family="Helvetica-Light" font-size="38.0" fill="#FEFFFF" transform="matrix(1.00, 0.00, -0.00, -1.00, 671.7, 413.0)">g</text><text xml:space="preserve" font-family="Helvetica-Light" font-size="38.0" fill="#FEFFFF" transform="matrix(1.00, 0.00, -0.00, -1.00, 694.9, 413.0)"> </text><text xml:space="preserve" font-family="Helvetica-Light" font-size="38.0" fill="#FEFFFF" transform="matrix(1.00, 0.00, -0.00, -1.00, 55.0, 367.0)">o</text><text xml:space="preserve" font-family="Helvetica-Light" font-size="38.0" fill="#FEFFFF" transform="matrix(1.00, 0.00, -0.00, -1.00, 76.1, 367.0)">u</text><text xml:space="preserve" font-family="Helvetica-Light" font-size="38.0" fill="#FEFFFF" transform="matrix(1.00, 0.00, -0.00, -1.00, 97.3, 367.0)">t</text><text xml:space="preserve" font-family="Helvetica-Light" font-size="38.0" fill="#FEFFFF" transform="matrix(1.00, 0.00, -0.00, -1.00, 107.8, 367.0)"> </text><text xml:space="preserve" font-family="Helvetica-Light" font-size="38.0" fill="#FEFFFF" transform="matrix(1.00, 0.00, -0.00, -1.00, 118.4, 367.0)">y</text><text xml:space="preserve" font-family="Helvetica-Light" font-size="38.0" fill="#FEFFFF" transform="matrix(1.00, 0.00, -0.00, -1.00, 137.4, 367.0)">e</text><text xml:space="preserve" font-family="Helvetica-Light" font-size="38.0" fill="#FEFFFF" transform="matrix(1.00, 0.00, -0.00, -1.00, 158.5, 367.0)">s</text><text xml:space="preserve" font-family="Helvetica-Light" font-size="38.0" fill="#FEFFFF" transform="matrix(1.00, 0.00, -0.00, -1.00, 177.5, 367.0)">t</text><text xml:space="preserve" font-family="Helvetica-Light" font-size="38.0" fill="#FEFFFF" transform="matrix(1.00, 0.00, -0.00, -1.00, 188.1, 367.0)">e</text><text xml:space="preserve" font-family="Helvetica-Light" font-size="38.0" fill="#FEFFFF" transform="matrix(1.00, 0.00, -0.00, -1.00, 209.2, 367.0)">r</text><text xml:space="preserve" font-family="Helvetica-Light" font-size="38.0" fill="#FEFFFF" transform="matrix(1.00, 0.00, -0.00, -1.00, 221.2, 367.0)">d</text><text xml:space="preserve" font-family="Helvetica-Light" font-size="38.0" fill="#FEFFFF" transform="matrix(1.00, 0.00, -0.00, -1.00, 244.4, 367.0)">a</text><text xml:space="preserve" font-family="Helvetica-Light" font-size="38.0" fill="#FEFFFF" transform="matrix(1.00, 0.00, -0.00, -1.00, 265.5, 367.0)">y</text><text xml:space="preserve" font-family="Helvetica-Light" font-size="38.0" fill="#FEFFFF" transform="matrix(1.00, 0.00, -0.00, -1.00, 284.5, 367.0)"> </text><text xml:space="preserve" font-family="Helvetica-Light" font-size="38.0" fill="#FEFFFF" transform="matrix(1.00, 0.00, -0.00, -1.00, 295.1, 367.0)">a</text><text xml:space="preserve" font-family="Helvetica-Light" font-size="38.0" fill="#FEFFFF" transform="matrix(1.00, 0.00, -0.00, -1.00, 316.2, 367.0)">n</text><text xml:space="preserve" font-family="Helvetica-Light" font-size="38.0" fill="#FEFFFF" transform="matrix(1.00, 0.00, -0.00, -1.00, 337.3, 367.0)">y</text><text xml:space="preserve" font-family="Helvetica-Light" font-size="38.0" fill="#FEFFFF" transform="matrix(1.00, 0.00, -0.00, -1.00, 356.3, 367.0)">w</text><text xml:space="preserve" font-family="Helvetica-Light" font-size="38.0" fill="#FEFFFF" transform="matrix(1.00, 0.00, -0.00, -1.00, 383.8, 367.0)">a</text><text xml:space="preserve" font-family="Helvetica-Light" font-size="38.0" fill="#FEFFFF" transform="matrix(1.00, 0.00, -0.00, -1.00, 404.9, 367.0)">y</text><text xml:space="preserve" font-family="Helvetica-Light" font-size="38.0" fill="#FEFFFF" transform="matrix(1.00, 0.00, -0.00, -1.00, 420.4, 367.0)">.</text><text xml:space="preserve" font-family="Helvetica-Light" font-size="38.0" fill="#FEFFFF" transform="matrix(1.00, 0.00, -0.00, -1.00, 431.0, 367.0)"> </text><text xml:space="preserve" font-family="Helvetica-Light" font-size="38.0" fill="#FEFFFF" transform="matrix(1.00, 0.00, -0.00, -1.00, 441.5, 367.0)">D</text><text xml:space="preserve" font-family="Helvetica-Light" font-size="38.0" fill="#FEFFFF" transform="matrix(1.00, 0.00, -0.00, -1.00, 469.0, 367.0)">o</text><text xml:space="preserve" font-family="Helvetica-Light" font-size="38.0" fill="#FEFFFF" transform="matrix(1.00, 0.00, -0.00, -1.00, 490.1, 367.0)"> </text><text xml:space="preserve" font-family="Helvetica-Light" font-size="38.0" fill="#FEFFFF" transform="matrix(1.00, 0.00, -0.00, -1.00, 500.7, 367.0)">y</text><text xml:space="preserve" font-family="Helvetica-Light" font-size="38.0" fill="#FEFFFF" transform="matrix(1.00, 0.00, -0.00, -1.00, 519.7, 367.0)">o</text><text xml:space="preserve" font-family="Helvetica-Light" font-size="38.0" fill="#FEFFFF" transform="matrix(1.00, 0.00, -0.00, -1.00, 540.8, 367.0)">u</text><text xml:space="preserve" font-family="Helvetica-Light" font-size="38.0" fill="#FEFFFF" transform="matrix(1.00, 0.00, -0.00, -1.00, 561.9, 367.0)"> </text><text xml:space="preserve" font-family="Helvetica-Light" font-size="38.0" fill="#FEFFFF" transform="matrix(1.00, 0.00, -0.00, -1.00, 572.5, 367.0)">t</text><text xml:space="preserve" font-family="Helvetica-Light" font-size="38.0" fill="#FEFFFF" transform="matrix(1.00, 0.00, -0.00, -1.00, 583.0, 367.0)">a</text><text xml:space="preserve" font-family="Helvetica-Light" font-size="38.0" fill="#FEFFFF" transform="matrix(1.00, 0.00, -0.00, -1.00, 604.2, 367.0)">k</text><text xml:space="preserve" font-family="Helvetica-Light" font-size="38.0" fill="#FEFFFF" transform="matrix(1.00, 0.00, -0.00, -1.00, 623.2, 367.0)">e</text><text xml:space="preserve" font-family="Helvetica-Light" font-size="38.0" fill="#FEFFFF" transform="matrix(1.00, 0.00, -0.00, -1.00, 644.3, 367.0)"> </text><text xml:space="preserve" font-family="Helvetica-Light" font-size="38.0" fill="#FEFFFF" transform="matrix(1.00, 0.00, -0.00, -1.00, 654.9, 367.0)">t</text><text xml:space="preserve" font-family="Helvetica-Light" font-size="38.0" fill="#FEFFFF" transform="matrix(1.00, 0.00, -0.00, -1.00, 665.4, 367.0)">h</text><text xml:space="preserve" font-family="Helvetica-Light" font-size="38.0" fill="#FEFFFF" transform="matrix(1.00, 0.00, -0.00, -1.00, 686.6, 367.0)">e</text><text xml:space="preserve" font-family="Helvetica-Light" font-size="38.0" fill="#FEFFFF" transform="matrix(1.00, 0.00, -0.00, -1.00, 707.7, 367.0)"> </text><text xml:space="preserve" font-family="Helvetica-Light" font-size="38.0" fill="#FEFFFF" transform="matrix(1.00, 0.00, -0.00, -1.00, 55.0, 321.0)">d</text><text xml:space="preserve" font-family="Helvetica-Light" font-size="38.0" fill="#FEFFFF" transform="matrix(1.00, 0.00, -0.00, -1.00, 78.2, 321.0)">o</text><text xml:space="preserve" font-family="Helvetica-Light" font-size="38.0" fill="#FEFFFF" transform="matrix(1.00, 0.00, -0.00, -1.00, 99.3, 321.0)">g</text><text xml:space="preserve" font-family="Helvetica-Light" font-size="38.0" fill="#FEFFFF" transform="matrix(1.00, 0.00, -0.00, -1.00, 122.6, 321.0)"> </text><text xml:space="preserve" font-family="Helvetica-Light" font-size="38.0" fill="#FEFFFF" transform="matrix(1.00, 0.00, -0.00, -1.00, 133.1, 321.0)">o</text><text xml:space="preserve" font-family="Helvetica-Light" font-size="38.0" fill="#FEFFFF" transform="matrix(1.00, 0.00, -0.00, -1.00, 154.3, 321.0)">u</text><text xml:space="preserve" font-family="Helvetica-Light" font-size="38.0" fill="#FEFFFF" transform="matrix(1.00, 0.00, -0.00, -1.00, 175.4, 321.0)">t</text><text xml:space="preserve" font-family="Helvetica-Light" font-size="38.0" fill="#FEFFFF" transform="matrix(1.00, 0.00, -0.00, -1.00, 185.9, 321.0)"> </text><text xml:space="preserve" font-family="Helvetica-Light" font-size="38.0" fill="#FEFFFF" transform="matrix(1.00, 0.00, -0.00, -1.00, 196.5, 321.0)">o</text><text xml:space="preserve" font-family="Helvetica-Light" font-size="38.0" fill="#FEFFFF" transform="matrix(1.00, 0.00, -0.00, -1.00, 217.6, 321.0)">r</text><text xml:space="preserve" font-family="Helvetica-Light" font-size="38.0" fill="#FEFFFF" transform="matrix(1.00, 0.00, -0.00, -1.00, 230.3, 321.0)"> </text><text xml:space="preserve" font-family="Helvetica-Light" font-size="38.0" fill="#FEFFFF" transform="matrix(1.00, 0.00, -0.00, -1.00, 240.9, 321.0)">s</text><text xml:space="preserve" font-family="Helvetica-Light" font-size="38.0" fill="#FEFFFF" transform="matrix(1.00, 0.00, -0.00, -1.00, 259.9, 321.0)">c</text><text xml:space="preserve" font-family="Helvetica-Light" font-size="38.0" fill="#FEFFFF" transform="matrix(1.00, 0.00, -0.00, -1.00, 281.0, 321.0)">r</text><text xml:space="preserve" font-family="Helvetica-Light" font-size="38.0" fill="#FEFFFF" transform="matrix(1.00, 0.00, -0.00, -1.00, 293.0, 321.0)">o</text><text xml:space="preserve" font-family="Helvetica-Light" font-size="38.0" fill="#FEFFFF" transform="matrix(1.00, 0.00, -0.00, -1.00, 314.1, 321.0)">l</text><text xml:space="preserve" font-family="Helvetica-Light" font-size="38.0" fill="#FEFFFF" transform="matrix(1.00, 0.00, -0.00, -1.00, 322.5, 321.0)">l</text><text xml:space="preserve" font-family="Helvetica-Light" font-size="38.0" fill="#FEFFFF" transform="matrix(1.00, 0.00, -0.00, -1.00, 331.0, 321.0)"> </text><text xml:space="preserve" font-family="Helvetica-Light" font-size="38.0" fill="#FEFFFF" transform="matrix(1.00, 0.00, -0.00, -1.00, 341.5, 321.0)">t</text><text xml:space="preserve" font-family="Helvetica-Light" font-size="38.0" fill="#FEFFFF" transform="matrix(1.00, 0.00, -0.00, -1.00, 352.1, 321.0)">h</text><text xml:space="preserve" font-family="Helvetica-Light" font-size="38.0" fill="#FEFFFF" transform="matrix(1.00, 0.00, -0.00, -1.00, 373.2, 321.0)">r</text><text xml:space="preserve" font-family="Helvetica-Light" font-size="38.0" fill="#FEFFFF" transform="matrix(1.00, 0.00, -0.00, -1.00, 385.2, 321.0)">o</text><text xml:space="preserve" font-family="Helvetica-Light" font-size="38.0" fill="#FEFFFF" transform="matrix(1.00, 0.00, -0.00, -1.00, 406.3, 321.0)">u</text><text xml:space="preserve" font-family="Helvetica-Light" font-size="38.0" fill="#FEFFFF" transform="matrix(1.00, 0.00, -0.00, -1.00, 427.4, 321.0)">g</text><text xml:space="preserve" font-family="Helvetica-Light" font-size="38.0" fill="#FEFFFF" transform="matrix(1.00, 0.00, -0.00, -1.00, 450.7, 321.0)">h</text><text xml:space="preserve" font-family="Helvetica-Light" font-size="38.0" fill="#FEFFFF" transform="matrix(1.00, 0.00, -0.00, -1.00, 471.8, 321.0)"> </text><text xml:space="preserve" font-family="Helvetica-Light" font-size="38.0" fill="#FEFFFF" transform="matrix(1.00, 0.00, -0.00, -1.00, 482.3, 321.0)">F</text><text xml:space="preserve" font-family="Helvetica-Light" font-size="38.0" fill="#FEFFFF" transform="matrix(1.00, 0.00, -0.00, -1.00, 503.5, 321.0)">a</text><text xml:space="preserve" font-family="Helvetica-Light" font-size="38.0" fill="#FEFFFF" transform="matrix(1.00, 0.00, -0.00, -1.00, 524.6, 321.0)">c</text><text xml:space="preserve" font-family="Helvetica-Light" font-size="38.0" fill="#FEFFFF" transform="matrix(1.00, 0.00, -0.00, -1.00, 545.7, 321.0)">e</text><text xml:space="preserve" font-family="Helvetica-Light" font-size="38.0" fill="#FEFFFF" transform="matrix(1.00, 0.00, -0.00, -1.00, 566.9, 321.0)">b</text><text xml:space="preserve" font-family="Helvetica-Light" font-size="38.0" fill="#FEFFFF" transform="matrix(1.00, 0.00, -0.00, -1.00, 590.1, 321.0)">o</text><text xml:space="preserve" font-family="Helvetica-Light" font-size="38.0" fill="#FEFFFF" transform="matrix(1.00, 0.00, -0.00, -1.00, 611.2, 321.0)">o</text><text xml:space="preserve" font-family="Helvetica-Light" font-size="38.0" fill="#FEFFFF" transform="matrix(1.00, 0.00, -0.00, -1.00, 632.3, 321.0)">k</text><text xml:space="preserve" font-family="Helvetica-Light" font-size="38.0" fill="#FEFFFF" transform="matrix(1.00, 0.00, -0.00, -1.00, 651.3, 321.0)">?</text><image xlink:href="../../110255FE-1EE4-4DB4-BA48-88254A122DF0/assets/D0A6C36AF2D4C50543825D3A6240BB71.png" width="258.00" height="87.00" transform="matrix(1.00, 0.00, -0.00, -1.00, 384.2, 253.1)" opacity="0.80"></image><g><clipPath id="clip-118"><path d="M 390.2 247.1 L 636.3 247.1 L 636.3 171.7 L 390.2 171.7 Z M 390.2 247.1 "></path></clipPath><g clip-path="url(#clip-118)"><path d="M 390.2 247.1 L 636.3 247.1 L 636.3 171.7 L 390.2 171.7 Z M 390.2 247.1 " fill="url(#gradSh1.18)"></path></g></g><image xlink:href="AB7EA1F6E99CBB60EA4325742778103C.png" width="150.00" height="28.00" transform="matrix(1.00, 0.00, -0.00, -1.00, 439.0, 234.0)"></image><g><clipPath id="clip-119"><path d="M 387.7 171.6 L 641.5 171.6 L 641.5 247.1 L 387.7 247.1 Z M 387.7 171.6 "></path></clipPath><g clip-path="url(#clip-119)"><text xml:space="preserve" font-family="Helvetica-Light" font-size="24.0" fill="#FEFFFF" transform="matrix(1.00, 0.00, -0.00, -1.00, 439.0, 215.0)">S</text><text xml:space="preserve" font-family="Helvetica-Light" font-size="24.0" fill="#FEFFFF" transform="matrix(1.00, 0.00, -0.00, -1.00, 453.7, 215.0)">c</text><text xml:space="preserve" font-family="Helvetica-Light" font-size="24.0" fill="#FEFFFF" transform="matrix(1.00, 0.00, -0.00, -1.00, 467.0, 215.0)">r</text><text xml:space="preserve" font-family="Helvetica-Light" font-size="24.0" fill="#FEFFFF" transform="matrix(1.00, 0.00, -0.00, -1.00, 474.6, 215.0)">o</text><text xml:space="preserve" font-family="Helvetica-Light" font-size="24.0" fill="#FEFFFF" transform="matrix(1.00, 0.00, -0.00, -1.00, 487.9, 215.0)">l</text><text xml:space="preserve" font-family="Helvetica-Light" font-size="24.0" fill="#FEFFFF" transform="matrix(1.00, 0.00, -0.00, -1.00, 493.2, 215.0)">l</text><text xml:space="preserve" font-family="Helvetica-Light" font-size="24.0" fill="#FEFFFF" transform="matrix(1.00, 0.00, -0.00, -1.00, 498.6, 215.0)"> </text><text xml:space="preserve" font-family="Helvetica-Light" font-size="24.0" fill="#FEFFFF" transform="matrix(1.00, 0.00, -0.00, -1.00, 505.2, 215.0)">t</text><text xml:space="preserve" font-family="Helvetica-Light" font-size="24.0" fill="#FEFFFF" transform="matrix(1.00, 0.00, -0.00, -1.00, 511.9, 215.0)">h</text><text xml:space="preserve" font-family="Helvetica-Light" font-size="24.0" fill="#FEFFFF" transform="matrix(1.00, 0.00, -0.00, -1.00, 525.3, 215.0)">r</text><text xml:space="preserve" font-family="Helvetica-Light" font-size="24.0" fill="#FEFFFF" transform="matrix(1.00, 0.00, -0.00, -1.00, 532.8, 215.0)">o</text><text xml:space="preserve" font-family="Helvetica-Light" font-size="24.0" fill="#FEFFFF" transform="matrix(1.00, 0.00, -0.00, -1.00, 546.2, 215.0)">u</text><text xml:space="preserve" font-family="Helvetica-Light" font-size="24.0" fill="#FEFFFF" transform="matrix(1.00, 0.00, -0.00, -1.00, 559.5, 215.0)">g</text><text xml:space="preserve" font-family="Helvetica-Light" font-size="24.0" fill="#FEFFFF" transform="matrix(1.00, 0.00, -0.00, -1.00, 574.2, 215.0)">h</text><text xml:space="preserve" font-family="Helvetica-Light" font-size="24.0" fill="#FEFFFF" transform="matrix(1.00, 0.00, -0.00, -1.00, 587.5, 215.0)"> </text><text xml:space="preserve" font-family="Helvetica-Light" font-size="24.0" fill="#FEFFFF" transform="matrix(1.00, 0.00, -0.00, -1.00, 594.2, 215.0)"> </text></g></g><image xlink:href="A2C79BB5BCA8C537C4E6806A59C31442.png" width="110.00" height="23.00" transform="matrix(1.00, 0.00, -0.00, -1.00, 460.0, 205.0)"></image><g><clipPath id="clip-120"><path d="M 387.7 171.6 L 641.5 171.6 L 641.5 247.1 L 387.7 247.1 Z M 387.7 171.6 "></path></clipPath><g clip-path="url(#clip-120)"><text xml:space="preserve" font-family="Helvetica-Light" font-size="24.0" fill="#FEFFFF" transform="matrix(1.00, 0.00, -0.00, -1.00, 460.0, 186.0)">F</text><text xml:space="preserve" font-family="Helvetica-Light" font-size="24.0" fill="#FEFFFF" transform="matrix(1.00, 0.00, -0.00, -1.00, 473.3, 186.0)">a</text><text xml:space="preserve" font-family="Helvetica-Light" font-size="24.0" fill="#FEFFFF" transform="matrix(1.00, 0.00, -0.00, -1.00, 486.7, 186.0)">c</text><text xml:space="preserve" font-family="Helvetica-Light" font-size="24.0" fill="#FEFFFF" transform="matrix(1.00, 0.00, -0.00, -1.00, 500.0, 186.0)">e</text><text xml:space="preserve" font-family="Helvetica-Light" font-size="24.0" fill="#FEFFFF" transform="matrix(1.00, 0.00, -0.00, -1.00, 513.4, 186.0)">b</text><text xml:space="preserve" font-family="Helvetica-Light" font-size="24.0" fill="#FEFFFF" transform="matrix(1.00, 0.00, -0.00, -1.00, 528.0, 186.0)">o</text><text xml:space="preserve" font-family="Helvetica-Light" font-size="24.0" fill="#FEFFFF" transform="matrix(1.00, 0.00, -0.00, -1.00, 541.4, 186.0)">o</text><text xml:space="preserve" font-family="Helvetica-Light" font-size="24.0" fill="#FEFFFF" transform="matrix(1.00, 0.00, -0.00, -1.00, 554.7, 186.0)">k</text></g></g><image xlink:href="../../110255FE-1EE4-4DB4-BA48-88254A122DF0/assets/4637A8E4D4BC792151FA0E7E63BFDDF8.png" width="286.00" height="87.00" transform="matrix(1.00, 0.00, -0.00, -1.00, 48.9, 253.1)" opacity="0.80"></image><g><clipPath id="clip-121"><path d="M 54.9 247.1 L 328.9 247.1 L 328.9 171.7 L 54.9 171.7 Z M 54.9 247.1 "></path></clipPath><g clip-path="url(#clip-121)"><path d="M 54.9 247.1 L 328.9 247.1 L 328.9 171.7 L 54.9 171.7 Z M 54.9 247.1 " fill="url(#gradSh1.19)"></path></g></g><image xlink:href="8C199C3EC293BA87D35CCD293CF0C3A1.png" width="183.00" height="28.00" transform="matrix(1.00, 0.00, -0.00, -1.00, 102.0, 219.0)"></image><g><clipPath id="clip-122"><path d="M 52.4 171.7 L 334.1 171.7 L 334.1 247.1 L 52.4 247.1 Z M 52.4 171.7 "></path></clipPath><g clip-path="url(#clip-122)"><text xml:space="preserve" font-family="Helvetica-Light" font-size="24.0" fill="#FEFFFF" transform="matrix(1.00, 0.00, -0.00, -1.00, 103.0, 200.0)">T</text><text xml:space="preserve" font-family="Helvetica-Light" font-size="24.0" fill="#FEFFFF" transform="matrix(1.00, 0.00, -0.00, -1.00, 113.7, 200.0)">a</text><text xml:space="preserve" font-family="Helvetica-Light" font-size="24.0" fill="#FEFFFF" transform="matrix(1.00, 0.00, -0.00, -1.00, 127.0, 200.0)">k</text><text xml:space="preserve" font-family="Helvetica-Light" font-size="24.0" fill="#FEFFFF" transform="matrix(1.00, 0.00, -0.00, -1.00, 139.0, 200.0)">e</text><text xml:space="preserve" font-family="Helvetica-Light" font-size="24.0" fill="#FEFFFF" transform="matrix(1.00, 0.00, -0.00, -1.00, 152.4, 200.0)"> </text><text xml:space="preserve" font-family="Helvetica-Light" font-size="24.0" fill="#FEFFFF" transform="matrix(1.00, 0.00, -0.00, -1.00, 159.0, 200.0)">t</text><text xml:space="preserve" font-family="Helvetica-Light" font-size="24.0" fill="#FEFFFF" transform="matrix(1.00, 0.00, -0.00, -1.00, 165.7, 200.0)">h</text><text xml:space="preserve" font-family="Helvetica-Light" font-size="24.0" fill="#FEFFFF" transform="matrix(1.00, 0.00, -0.00, -1.00, 179.1, 200.0)">e</text><text xml:space="preserve" font-family="Helvetica-Light" font-size="24.0" fill="#FEFFFF" transform="matrix(1.00, 0.00, -0.00, -1.00, 192.4, 200.0)"> </text><text xml:space="preserve" font-family="Helvetica-Light" font-size="24.0" fill="#FEFFFF" transform="matrix(1.00, 0.00, -0.00, -1.00, 199.1, 200.0)">d</text><text xml:space="preserve" font-family="Helvetica-Light" font-size="24.0" fill="#FEFFFF" transform="matrix(1.00, 0.00, -0.00, -1.00, 213.7, 200.0)">o</text><text xml:space="preserve" font-family="Helvetica-Light" font-size="24.0" fill="#FEFFFF" transform="matrix(1.00, 0.00, -0.00, -1.00, 227.1, 200.0)">g</text><text xml:space="preserve" font-family="Helvetica-Light" font-size="24.0" fill="#FEFFFF" transform="matrix(1.00, 0.00, -0.00, -1.00, 241.7, 200.0)"> </text><text xml:space="preserve" font-family="Helvetica-Light" font-size="24.0" fill="#FEFFFF" transform="matrix(1.00, 0.00, -0.00, -1.00, 248.4, 200.0)">o</text><text xml:space="preserve" font-family="Helvetica-Light" font-size="24.0" fill="#FEFFFF" transform="matrix(1.00, 0.00, -0.00, -1.00, 261.8, 200.0)">u</text><text xml:space="preserve" font-family="Helvetica-Light" font-size="24.0" fill="#FEFFFF" transform="matrix(1.00, 0.00, -0.00, -1.00, 275.1, 200.0)">t</text></g></g><g><clipPath id="clip-123"><path d="M 942.0 2.0 L 1918.0 2.0 L 1918.0 756.0 L 942.0 756.0 Z M 942.0 2.0 "></path></clipPath><g clip-path="url(#clip-123)"><path d="M 1383.3 480.2 L 1501.8 349.6 L 1576.7 349.6 L 1585.2 399.2 L 1559.2 436.2 L 1467.9 497.3 L 1445.5 508.0 L 1444.7 511.8 L 1427.9 522.6 L 1421.5 525.9 L 1409.7 525.9 L 1402.2 522.9 Z M 1383.3 480.2 " fill="#F8B89F"></path><path d="M 1463.3 274.1 L 1509.3 195.7 L 1554.1 188.4 L 1624.2 160.7 L 1708.2 122.7 L 1765.0 70.4 L 1848.7 43.0 L 1918.0 25.2 L 1918.0 146.5 L 1862.0 174.2 L 1760.7 246.6 L 1753.9 253.6 L 1734.0 276.6 L 1714.5 276.6 L 1455.6 313.3 Z M 1463.3 274.1 " fill="#BD7353"></path><path d="M 1583.7 77.4 L 1567.9 66.0 L 1589.8 10.8 L 1591.9 3.0 L 1848.3 2.2 L 1895.6 2.0 L 1884.7 7.7 L 1863.3 17.0 L 1841.1 32.0 L 1842.3 23.3 L 1862.5 7.7 L 1824.5 14.1 L 1743.5 32.0 L 1660.1 49.7 L 1618.5 77.4 Z M 1583.7 77.4 " fill="#431D1D"></path></g></g><g><clipPath id="clip-124"><path d="M 942.0 756.0 L 1918.0 756.0 L 1918.0 2.0 L 942.0 2.0 Z M 942.0 756.0 "></path></clipPath><g clip-path="url(#clip-124)"><g><clipPath id="clip-125"><path d="M 942.0 2.0 L 1918.0 2.0 L 1918.0 756.0 L 942.0 756.0 Z M 942.0 2.0 "></path></clipPath><g clip-path="url(#clip-125)"><path d="M 963.7 688.5 C 963.7 688.5 931.0 677.9 953.9 633.3 L 1166.2 220.6 C 1166.2 220.6 1180.7 175.9 1229.4 197.0 L 1396.4 274.5 C 1396.4 274.5 1437.1 290.3 1405.6 336.3 L 1355.6 420.6 L 1330.6 433.5 L 1316.2 433.5 L 1289.8 454.5 L 1263.6 472.9 L 1253.0 495.3 L 1254.3 515.0 L 1270.1 528.1 L 1289.8 529.4 L 1307.0 521.6 L 1193.9 720.0 C 1193.9 720.0 1176.8 768.6 1132.0 752.9 Z M 963.7 688.5 " fill="#FBFCF8"></path><path d="M 1166.2 256.1 L 1376.7 354.7 L 1330.6 433.5 L 1316.2 433.5 L 1304.6 441.8 L 1289.8 454.5 L 1274.8 464.7 L 1263.6 472.9 L 1253.0 495.3 L 1254.3 515.0 L 1264.4 525.1 L 1277.5 529.9 L 1283.8 529.9 L 1188.7 697.1 L 981.9 618.7 L 1001.3 580.5 Z M 1166.2 256.1 " fill="#E3E2E8"></path><path d="M 1001.3 580.5 L 1208.2 660.2 L 1188.7 697.1 L 981.9 618.7 Z M 1001.3 580.5 " fill="#1C4187"></path><path d="M 1023.4 611.6 L 1031.4 596.8 L 1192.7 659.3 C 1192.7 659.3 1196.7 660.2 1192.7 666.0 C 1188.7 671.8 1185.1 676.3 1185.1 676.3 L 1165.0 668.7 Z M 1023.4 611.6 " fill="#172470"></path><path d="M 1111.4 365.6 L 1297.6 446.4 L 1304.6 441.8 L 1121.7 361.2 L 1159.6 291.1 L 1152.9 287.5 Z M 1111.4 365.6 " fill="#BDC2C5"></path><path d="M 1354.8 378.6 L 1361.5 382.6 L 1335.6 429.9 L 1325.3 434.4 Z M 1354.8 378.6 " fill="#95949B"></path><path d="M 1438.9 242.6 L 1484.5 228.3 L 1525.5 135.0 L 1567.0 53.3 L 1579.6 30.7 L 1579.6 25.2 L 1558.2 10.8 L 1444.8 60.2 L 1403.9 78.1 L 1424.9 165.6 Z M 1438.9 242.6 " fill="#DE9774"></path><path d="M 0.0 0.0 L 185.6 -362.2 " fill="none" stroke="#2D1E1F" stroke-width="2.00" stroke-miterlimit="0.00" transform="matrix(1.00, 0.00, 0.00, 1.00, 980.6, 618.1)"></path><path d="M 958.9 393.8 L 976.9 378.6 L 987.9 378.6 L 1003.9 378.6 L 1015.0 386.2 L 1037.0 386.2 L 1051.0 378.6 L 1063.0 378.6 L 1063.0 390.8 L 1063.0 401.7 L 1086.1 355.7 L 1050.0 355.7 L 999.9 360.7 L 981.9 367.0 L 965.9 372.7 L 958.9 383.8 Z M 958.9 393.8 " fill="#9B4A49"></path><path d="M 972.9 420.6 L 981.9 410.8 L 989.9 396.8 L 1004.9 396.8 L 1022.5 401.7 L 1032.0 401.7 L 1039.0 396.8 L 1046.4 401.7 L 1052.4 396.8 L 1052.4 392.3 L 1063.0 390.8 L 1063.0 378.6 L 1051.0 378.6 L 1037.0 386.2 L 1015.0 386.2 L 1003.9 378.6 L 976.9 378.6 L 958.9 393.8 L 958.9 383.8 L 956.2 399.6 L 956.2 409.7 L 963.2 420.6 Z M 972.9 420.6 " fill="#E0815E"></path><path d="M 1042.5 437.1 L 1038.0 434.4 L 1026.5 435.7 L 1020.5 435.7 L 1022.5 429.6 L 1031.5 420.6 L 1031.5 413.7 L 1018.0 413.7 L 1013.6 413.7 L 1019.5 409.2 L 1028.0 409.2 L 1035.5 406.5 L 1039.0 396.8 L 1046.4 401.7 L 1052.4 396.8 L 1052.4 392.3 L 1063.0 390.8 L 1063.0 401.7 Z M 1042.5 437.1 " fill="#F7C3AC"></path><path d="M 963.2 420.6 L 970.7 431.1 L 981.9 437.1 L 998.1 440.1 L 1013.6 440.1 L 1042.5 437.1 L 1038.0 434.4 L 1026.5 435.7 L 1020.5 435.7 L 1022.5 429.6 L 1031.5 420.6 L 1031.5 413.7 L 1013.6 413.7 L 1019.5 409.2 L 1028.0 409.2 L 1035.5 406.5 L 1039.0 396.8 L 1032.0 401.7 L 1022.5 401.7 L 1004.9 396.8 L 989.9 396.8 L 979.0 413.9 L 972.9 420.6 Z M 963.2 420.6 " fill="#F9AE93"></path><path d="M 1021.1 259.5 L 1032.7 259.5 L 1043.6 255.9 L 1051.8 262.4 L 1062.3 263.0 L 1075.8 251.3 L 1090.5 248.0 L 1103.3 241.3 L 1127.6 241.9 L 1072.4 234.8 L 1055.9 235.3 L 1037.5 233.5 L 1024.0 234.8 L 1013.1 239.2 L 1007.8 243.1 L 1003.0 249.2 L 999.5 258.0 L 1004.8 255.8 Z M 1021.1 259.5 " fill="#9D5E58"></path><path d="M 1100.4 316.8 L 1105.6 316.8 L 1122.0 285.5 L 1143.7 244.2 L 1110.9 241.3 L 1096.9 239.6 L 1088.1 242.5 L 1078.7 237.8 L 1075.2 243.1 L 1063.6 240.3 L 1058.2 239.0 L 1075.8 251.3 L 1057.6 250.1 L 1045.3 248.9 L 1041.8 240.2 L 1032.4 237.2 L 1017.8 241.3 L 1006.7 250.1 L 1017.2 252.4 L 1028.9 252.4 L 1043.6 255.9 L 1051.8 262.4 L 1062.3 263.0 L 1071.7 265.9 L 1076.9 279.9 L 1083.4 285.2 L 1086.1 295.7 L 1092.2 296.3 L 1095.7 287.5 L 1099.2 279.9 L 1106.2 282.3 L 1113.8 282.3 L 1120.9 277.0 L 1120.3 281.8 L 1117.2 289.5 L 1112.9 297.6 L 1109.1 304.8 L 1106.0 311.6 Z M 1100.4 316.8 " fill="#752929"></path><path d="M 1002.6 285.0 L 1002.6 276.3 L 1007.0 270.2 L 1013.9 270.6 L 1018.7 271.5 L 1021.8 278.5 L 1029.2 278.5 L 1032.3 274.5 L 1041.4 270.6 L 1041.4 266.7 L 1046.7 266.7 L 1054.5 268.9 L 1061.5 268.4 L 1068.1 271.0 L 1068.5 278.9 L 1073.3 282.4 L 1073.4 287.5 L 1075.2 295.9 L 1081.6 306.8 L 1084.2 302.9 L 1090.3 302.9 L 1096.0 296.8 L 1100.0 296.8 L 1106.5 295.9 L 1112.9 297.6 L 1117.2 289.5 L 1120.9 277.0 L 1113.8 282.3 L 1106.2 282.3 L 1099.2 279.9 L 1095.7 287.5 L 1092.2 296.3 L 1086.1 295.7 L 1083.4 285.2 L 1076.9 279.9 L 1071.7 265.9 L 1062.3 263.0 L 1051.8 262.4 L 1043.6 255.9 L 1032.7 259.5 L 1021.1 259.5 L 1004.8 255.8 L 999.5 258.0 L 999.5 268.7 L 999.5 273.7 Z M 1002.6 285.0 " fill="#E07C5B"></path><path d="M 1100.4 316.8 L 1106.0 311.6 L 1112.9 297.6 L 1106.5 295.9 L 1096.0 296.8 L 1090.3 302.9 L 1084.2 302.9 L 1081.6 306.8 L 1075.2 295.9 L 1073.3 282.4 L 1068.5 278.9 L 1068.1 271.0 L 1061.5 268.4 L 1054.5 268.9 L 1046.7 266.7 L 1041.4 266.7 L 1041.4 270.6 L 1032.3 274.5 L 1029.2 278.5 L 1021.8 278.5 L 1018.7 271.5 L 1013.9 270.6 L 1007.0 270.2 L 1002.6 276.3 L 1002.6 285.0 L 1004.3 289.0 L 1009.2 296.4 L 1013.6 302.4 L 1025.9 309.1 L 1039.5 311.4 L 1065.4 314.0 Z M 1100.4 316.8 " fill="#FAB49A"></path><path d="M 1013.6 302.4 L 1022.5 302.4 L 1018.0 295.7 L 1024.6 292.5 L 1032.6 287.5 L 1025.5 287.5 L 1016.5 281.3 L 1029.5 283.6 L 1038.3 281.3 L 1038.3 277.0 L 1042.5 275.6 L 1054.5 268.9 L 1051.8 281.3 L 1046.4 281.3 L 1046.0 285.6 L 1042.5 293.9 L 1034.0 297.4 L 1034.0 302.4 L 1040.6 302.4 L 1045.6 300.1 L 1051.4 302.4 L 1058.3 301.3 L 1058.3 298.7 L 1056.8 295.1 L 1065.4 292.2 L 1065.4 299.5 L 1061.5 302.4 L 1057.0 306.8 L 1050.3 306.8 L 1046.1 309.1 L 1037.3 309.1 L 1031.1 306.8 L 1022.5 305.7 Z M 1013.6 302.4 " fill="#FFD2C2"></path><path d="M 1261.2 202.6 L 1225.5 184.7 L 1204.4 184.7 L 1179.3 191.3 L 1220.2 177.1 L 1227.4 173.3 L 1242.7 165.6 L 1261.2 160.5 L 1257.5 153.5 L 1253.5 145.9 L 1247.8 117.8 L 1256.1 130.6 L 1256.7 138.8 L 1262.6 156.0 L 1268.6 158.4 L 1268.6 150.7 L 1268.6 143.7 L 1265.3 132.0 L 1260.9 121.7 L 1256.9 117.8 L 1266.3 126.0 L 1268.6 133.7 L 1272.6 140.7 L 1272.6 147.0 L 1272.6 154.4 L 1278.2 158.7 L 1284.2 156.7 L 1288.2 156.7 L 1294.6 156.7 L 1299.6 156.7 L 1308.2 153.7 L 1315.6 149.0 L 1319.6 143.4 L 1327.2 138.4 L 1341.9 132.7 L 1350.9 142.7 L 1358.2 153.7 L 1370.2 160.2 L 1379.9 166.0 L 1387.9 172.7 L 1392.6 179.0 L 1399.2 182.3 L 1417.6 189.3 L 1430.2 195.0 L 1432.2 191.3 L 1426.9 178.0 L 1424.0 171.6 L 1418.9 160.2 L 1417.6 153.0 L 1409.2 115.1 L 1405.9 106.7 L 1405.9 97.4 L 1400.9 88.8 L 1403.9 78.1 L 1406.5 90.1 L 1406.9 81.1 L 1410.5 76.8 L 1409.2 86.8 L 1409.2 96.7 L 1409.9 108.4 L 1414.5 119.7 L 1416.2 129.7 L 1417.6 137.7 L 1422.9 152.0 L 1422.9 159.0 L 1427.5 173.3 L 1432.2 183.3 L 1435.2 193.3 L 1435.2 204.6 L 1438.9 218.3 L 1438.9 242.6 L 1438.9 253.6 L 1449.2 251.3 L 1456.2 244.3 L 1462.5 243.3 L 1464.5 236.9 L 1464.5 227.6 L 1467.9 215.6 L 1467.9 235.3 L 1467.9 242.3 L 1472.2 238.3 L 1480.9 235.6 L 1484.5 228.3 L 1489.2 225.3 L 1495.2 218.3 L 1525.0 151.5 L 1530.8 144.1 L 1530.8 131.3 L 1536.6 118.1 L 1541.1 99.9 L 1547.3 93.7 L 1551.9 82.6 L 1564.2 67.7 L 1574.2 63.2 L 1582.8 58.7 L 1588.2 58.7 L 1591.9 58.7 L 1591.9 68.6 L 1591.9 81.4 L 1582.8 94.6 L 1577.5 106.1 L 1568.0 115.2 L 1550.2 132.9 L 1543.2 143.7 L 1534.5 159.4 L 1520.9 176.7 L 1509.3 195.7 L 1499.8 213.4 L 1488.7 231.6 L 1479.2 253.6 L 1455.6 313.3 L 1455.6 330.6 L 1454.8 341.0 L 1449.8 362.4 L 1436.2 376.9 L 1412.7 395.4 L 1405.2 401.7 L 1397.4 406.5 L 1393.7 417.3 L 1390.0 420.6 L 1385.6 420.6 L 1376.7 413.6 L 1368.1 406.5 L 1417.6 315.0 C 1417.6 315.0 1431.7 288.1 1401.1 272.9 C 1370.5 257.6 1343.4 243.6 1343.4 243.6 L 1308.4 226.4 L 1320.6 219.1 L 1325.3 211.3 L 1322.3 205.8 L 1308.4 203.5 L 1289.8 203.5 Z M 1261.2 202.6 " fill="#391216"></path><path d="M 1079.3 143.8 L 1093.7 150.9 L 1105.6 150.9 L 1120.9 147.3 L 1127.6 147.3 L 1143.7 162.0 L 1153.4 152.9 L 1173.3 152.9 L 1190.0 157.3 L 1198.7 162.0 L 1198.7 143.8 L 1208.0 143.8 L 1220.2 152.9 L 1241.7 157.3 L 1242.7 165.6 L 1261.2 160.5 L 1253.5 145.9 L 1247.8 117.8 L 1256.1 130.6 L 1256.7 138.8 L 1262.6 156.0 L 1268.6 158.4 L 1268.6 143.7 L 1265.3 132.0 L 1260.9 121.7 L 1266.3 126.0 L 1268.6 133.7 L 1272.6 140.7 L 1275.9 143.8 L 1280.1 140.1 L 1285.8 139.1 L 1290.9 139.1 L 1299.2 145.6 L 1305.7 141.7 L 1310.9 141.7 L 1318.0 145.5 L 1319.6 143.4 L 1327.2 138.4 L 1341.9 132.7 L 1350.9 142.7 L 1356.7 139.9 L 1363.9 134.2 L 1370.9 134.2 L 1373.5 126.4 L 1376.7 118.9 L 1378.2 111.9 L 1380.8 108.3 L 1389.8 108.3 L 1403.3 111.4 L 1404.8 118.4 L 1406.7 121.0 L 1411.6 125.9 L 1409.2 115.1 L 1405.9 106.7 L 1405.9 97.4 L 1400.9 88.8 L 1403.9 78.1 L 1406.5 90.1 L 1406.9 81.1 L 1410.5 76.8 L 1414.2 78.1 L 1417.6 80.1 L 1421.7 83.0 L 1421.7 89.7 L 1430.2 93.6 L 1430.2 97.2 L 1434.9 86.6 L 1436.2 82.2 L 1438.2 78.1 L 1441.9 77.8 L 1441.9 80.1 L 1441.9 82.5 L 1446.0 76.8 L 1451.2 73.1 L 1456.9 60.7 L 1462.1 57.4 L 1462.1 65.4 L 1462.1 70.3 L 1465.2 65.1 L 1466.7 61.0 L 1471.6 58.7 L 1472.9 56.1 L 1479.4 52.5 L 1494.1 55.0 L 1497.5 46.5 L 1510.2 46.5 L 1517.2 33.8 L 1525.7 29.7 L 1529.9 27.1 L 1552.4 17.0 L 1562.7 17.0 L 1562.7 24.8 L 1571.5 28.4 L 1579.6 30.7 L 1590.7 27.9 C 1590.7 27.9 1593.3 29.7 1593.3 30.5 C 1593.3 31.2 1596.1 35.9 1596.1 35.9 L 1606.8 36.2 L 1597.9 49.9 L 1604.2 48.6 L 1611.2 40.8 L 1616.8 37.4 L 1624.9 32.5 L 1626.4 17.0 L 1626.4 12.9 L 1628.5 5.1 L 1629.5 2.0 L 1540.2 2.0 L 1489.0 28.1 L 1458.7 46.8 L 1432.5 60.5 L 1421.2 68.0 L 1402.0 75.7 L 1394.2 81.2 L 1373.8 92.5 L 1361.6 102.4 L 1331.8 114.5 L 1322.3 113.2 L 1289.8 113.8 L 1244.6 114.5 L 1208.9 114.0 L 1183.3 114.0 L 1169.0 114.8 L 1153.8 113.8 L 1131.2 115.3 L 1116.7 120.0 L 1096.8 123.8 L 1084.6 129.5 L 1075.3 135.7 L 1080.8 136.8 Z M 1079.3 143.8 " fill="#531F24"></path><path d="M 1068.3 168.1 L 1068.3 160.6 L 1068.3 155.9 L 1075.3 155.9 L 1083.3 158.6 L 1087.2 157.9 L 1099.0 157.9 L 1108.0 159.8 L 1111.4 157.5 L 1120.9 157.5 L 1117.4 162.0 L 1112.9 168.1 L 1115.1 172.0 L 1123.7 172.0 L 1123.7 165.6 L 1127.6 163.9 L 1131.1 165.6 L 1131.1 169.6 L 1131.1 175.5 L 1135.1 175.5 L 1135.1 171.6 L 1138.6 169.2 L 1143.7 168.1 L 1150.0 173.6 L 1157.4 173.6 L 1157.4 169.2 L 1161.0 165.7 L 1168.4 165.6 L 1168.4 161.8 L 1174.3 161.8 L 1179.3 165.7 L 1179.3 170.8 L 1181.7 167.0 L 1183.4 170.7 L 1186.7 165.7 L 1189.5 165.7 L 1189.5 170.9 L 1189.5 174.3 L 1192.4 177.2 L 1191.0 182.4 L 1195.8 175.9 L 1195.8 173.8 L 1195.8 169.2 L 1197.6 165.6 L 1198.7 162.0 L 1205.5 162.1 L 1205.5 167.3 L 1207.5 169.2 C 1207.5 171.6 1212.7 171.6 1212.7 171.6 L 1213.6 165.6 L 1213.6 162.8 L 1218.4 162.8 L 1224.0 163.9 L 1224.9 169.2 L 1228.1 169.2 L 1227.4 173.3 L 1242.7 165.6 L 1241.7 157.3 L 1220.2 152.9 L 1208.0 143.8 L 1198.7 143.8 L 1196.7 159.6 L 1190.0 157.3 L 1173.3 152.9 L 1153.4 152.9 L 1143.7 162.0 L 1127.6 147.3 L 1120.9 147.3 L 1105.6 150.9 L 1093.7 150.9 L 1079.3 143.8 L 1080.8 136.8 L 1075.3 135.7 L 1070.2 140.2 L 1068.3 144.0 L 1065.9 149.4 L 1065.9 156.7 L 1065.9 163.0 Z M 1068.3 168.1 " fill="#D57652"></path><path d="M 1072.2 177.9 L 1072.2 172.7 L 1074.2 167.0 L 1079.7 169.5 L 1081.7 171.6 L 1088.7 172.5 L 1090.3 168.2 L 1096.8 168.2 L 1100.0 168.6 L 1102.0 174.0 L 1102.0 176.8 L 1100.4 180.1 L 1098.2 182.4 L 1095.5 183.5 L 1093.4 186.7 L 1087.1 187.6 L 1094.1 190.1 L 1102.0 189.4 L 1111.7 190.1 L 1123.5 190.1 L 1138.4 190.1 L 1133.7 188.3 L 1129.6 188.3 L 1123.7 188.1 L 1121.7 188.0 L 1119.4 184.9 L 1118.3 182.4 L 1122.1 179.7 L 1124.4 182.4 L 1124.8 185.8 L 1127.6 186.0 L 1127.6 182.4 L 1127.6 178.6 L 1130.0 178.6 L 1132.5 178.6 L 1132.5 181.3 L 1135.2 181.3 L 1139.8 182.4 L 1139.8 184.7 L 1145.4 182.4 L 1147.9 182.4 L 1150.8 178.6 L 1153.3 177.7 L 1158.3 177.7 L 1159.4 174.7 L 1161.7 174.7 L 1166.9 174.7 L 1166.9 178.6 L 1170.9 184.0 L 1172.3 178.6 L 1172.3 174.7 L 1175.2 174.7 L 1179.3 172.7 L 1183.4 172.7 L 1184.9 176.8 L 1187.4 177.0 L 1191.0 182.4 L 1196.7 178.6 L 1199.4 173.1 L 1199.4 170.0 L 1204.6 169.8 L 1206.9 172.0 L 1210.5 174.3 L 1213.6 174.3 L 1215.7 171.1 L 1220.0 173.1 L 1223.6 175.3 L 1227.4 173.2 L 1228.1 169.2 L 1224.9 169.2 L 1224.0 163.9 L 1218.4 162.8 L 1213.6 162.8 L 1212.7 171.6 L 1210.9 171.4 L 1208.3 170.5 L 1207.5 169.2 L 1205.5 167.3 L 1205.5 162.1 L 1198.7 162.0 L 1195.8 169.2 L 1195.8 175.9 L 1191.4 181.2 L 1192.4 177.2 L 1189.5 174.3 L 1189.5 165.7 L 1186.7 165.7 L 1183.4 170.7 L 1181.7 167.0 L 1179.3 170.8 L 1179.3 165.7 L 1174.3 161.8 L 1168.4 161.8 L 1168.4 165.6 L 1161.0 165.7 L 1157.4 169.2 L 1157.4 173.5 L 1150.0 173.5 L 1143.7 168.1 L 1138.6 169.2 L 1135.1 171.6 L 1135.1 175.5 L 1131.1 175.5 L 1131.1 165.6 L 1127.6 163.9 L 1123.7 165.6 L 1123.7 172.0 L 1115.1 172.0 L 1112.9 168.1 L 1120.9 157.5 L 1111.4 157.5 L 1108.0 159.8 L 1099.0 157.9 L 1087.2 157.9 L 1083.3 158.6 L 1075.3 155.9 L 1068.3 155.9 L 1068.3 168.1 L 1068.3 170.8 L 1069.1 173.5 Z M 1072.2 177.9 " fill="#F6A685"></path><path d="M 1072.2 177.9 L 1077.4 183.5 L 1081.3 186.1 L 1087.1 187.6 L 1093.4 186.7 L 1095.5 183.5 L 1098.2 182.4 L 1100.4 180.1 L 1102.0 176.8 L 1102.0 174.0 L 1100.8 170.7 L 1100.0 168.6 L 1090.3 168.2 L 1088.7 172.5 L 1081.7 171.6 L 1079.7 169.5 L 1074.2 167.0 L 1072.2 172.7 Z M 1072.2 177.9 " fill="#FABEA4"></path><path d="M 1085.4 182.4 L 1089.3 181.0 L 1091.2 182.4 L 1094.9 181.0 L 1097.0 178.2 L 1093.8 176.2 L 1092.7 174.1 L 1088.7 172.5 L 1087.4 175.2 L 1085.4 175.2 L 1085.4 179.0 Z M 1085.4 182.4 " fill="#FFDFD0"></path><path d="M 1138.4 190.1 L 1145.9 190.1 L 1158.8 190.1 L 1171.6 190.1 L 1179.3 191.3 L 1223.6 175.3 L 1215.7 171.1 L 1213.6 174.3 L 1210.5 174.3 L 1206.9 172.0 L 1204.6 169.8 L 1199.4 170.0 L 1199.4 173.1 L 1196.7 178.6 L 1191.0 182.4 L 1187.4 177.0 L 1184.9 176.8 L 1183.4 172.7 L 1179.3 172.7 L 1175.2 174.7 L 1172.3 174.7 L 1172.3 178.6 L 1170.9 184.0 L 1166.9 178.6 L 1166.9 174.7 L 1159.4 174.7 L 1158.3 177.7 L 1153.3 177.7 L 1150.8 178.6 L 1147.9 182.4 L 1145.4 182.4 L 1139.8 184.7 L 1139.8 182.4 L 1135.2 181.3 L 1132.5 181.3 L 1132.5 178.6 L 1127.6 178.6 L 1127.6 186.0 L 1124.8 185.8 L 1124.4 182.4 L 1122.1 179.7 L 1118.3 182.4 L 1121.7 188.0 L 1133.7 188.3 Z M 1138.4 190.1 " fill="#FABEA4"></path><path d="M 945.8 667.0 L 942.0 647.0 C 942.0 647.0 945.1 634.3 949.9 625.2 C 954.7 616.0 1167.2 200.4 1167.2 200.4 C 1167.2 200.4 1171.7 191.8 1179.3 191.3 L 1196.4 186.5 L 1211.3 184.7 L 1225.5 184.7 L 1275.0 209.6 L 1361.5 252.9 L 1410.0 278.6 C 1410.0 278.6 1429.5 293.6 1417.6 314.9 C 1417.6 314.9 1420.7 289.4 1403.7 279.8 C 1386.7 270.2 1229.4 197.0 1229.4 197.0 C 1229.4 197.0 1184.9 174.1 1166.2 220.6 L 949.4 643.0 C 949.4 643.0 943.9 651.8 945.8 667.0 " fill="#B494B6"></path><path d="M 1321.8 475.6 L 1325.3 475.6 L 1331.2 478.4 L 1338.6 474.8 L 1344.1 474.8 L 1340.1 479.9 L 1339.1 483.7 L 1348.3 486.0 L 1356.7 483.7 L 1365.8 483.7 L 1375.0 494.9 L 1380.8 500.0 L 1380.3 504.1 L 1384.2 509.2 L 1396.1 509.9 L 1402.2 522.9 L 1406.6 524.4 L 1406.9 519.1 L 1409.5 516.0 L 1413.2 517.2 L 1415.0 518.2 L 1415.0 511.8 L 1410.9 510.9 L 1406.6 506.5 L 1404.7 503.0 L 1405.8 501.3 L 1411.0 501.3 L 1412.9 498.0 L 1415.0 497.3 L 1409.3 495.5 L 1409.3 491.5 L 1416.6 486.8 L 1422.9 489.4 L 1427.1 490.6 L 1428.6 486.0 L 1429.4 478.3 L 1433.5 478.3 L 1440.8 478.3 L 1440.8 473.7 L 1463.8 470.3 L 1465.2 465.2 L 1468.6 465.2 L 1484.8 452.3 L 1494.1 451.3 L 1497.4 451.3 L 1497.4 443.3 L 1499.5 437.2 L 1521.8 422.6 L 1531.1 422.6 L 1531.1 414.1 L 1533.1 410.0 L 1538.0 394.7 L 1551.7 391.5 L 1554.1 385.3 L 1554.1 379.4 L 1544.1 368.9 L 1534.8 367.1 L 1524.7 362.4 L 1508.3 365.9 L 1507.1 372.1 L 1502.4 383.7 L 1490.9 392.9 L 1486.9 399.2 L 1477.5 404.1 L 1478.6 418.4 L 1472.3 419.1 L 1464.3 419.1 L 1459.9 426.9 L 1459.9 434.0 L 1449.9 441.3 L 1439.6 445.1 L 1439.6 450.6 L 1436.4 454.8 L 1421.5 463.2 L 1421.5 470.0 L 1417.6 470.0 L 1413.1 470.8 L 1398.5 471.0 L 1374.1 466.6 L 1338.3 465.5 L 1321.0 473.7 Z M 1321.8 475.6 " fill="#F8C0A9"></path><path d="M 1314.2 468.5 L 1314.2 473.7 L 1321.8 475.6 L 1325.3 472.1 L 1332.0 470.0 L 1335.7 472.1 L 1343.4 472.1 L 1347.0 470.0 L 1353.1 473.7 L 1358.8 472.1 L 1363.6 472.1 L 1366.9 473.7 L 1368.9 475.6 L 1372.1 475.6 L 1374.6 482.2 L 1378.2 487.7 L 1378.2 483.6 L 1380.9 480.2 L 1383.3 480.2 L 1383.3 484.6 L 1387.9 488.6 L 1391.6 488.6 L 1393.4 496.0 L 1388.6 496.0 L 1385.6 498.0 L 1380.8 500.0 L 1380.3 504.1 L 1380.8 507.0 L 1381.3 511.8 L 1383.3 512.8 L 1384.2 509.2 L 1383.3 505.9 L 1384.9 501.3 L 1388.8 499.6 L 1391.6 499.6 L 1393.4 499.9 L 1393.4 503.9 L 1396.9 506.3 L 1396.1 509.9 L 1396.9 514.7 L 1400.2 519.0 L 1402.2 522.9 L 1406.6 524.4 L 1405.2 522.0 L 1404.6 518.1 L 1402.2 514.9 L 1400.5 509.2 L 1406.6 508.8 L 1406.6 506.5 L 1400.5 505.9 L 1399.7 503.7 L 1398.9 501.3 L 1402.2 501.3 L 1405.8 501.3 L 1410.2 504.3 L 1414.7 504.3 L 1415.7 508.4 L 1416.7 511.8 L 1417.5 512.7 L 1419.4 514.9 L 1422.6 517.2 L 1424.4 521.3 L 1424.4 523.6 L 1427.9 522.6 L 1427.9 519.9 L 1423.8 514.7 L 1421.5 514.3 L 1418.5 510.6 L 1417.6 508.0 L 1417.6 504.9 L 1416.5 501.3 L 1411.0 501.3 L 1405.6 499.6 L 1399.7 499.5 L 1396.6 499.0 L 1396.5 496.5 L 1400.2 496.5 L 1403.6 495.5 L 1409.3 495.5 L 1415.5 494.9 L 1419.1 492.8 L 1428.6 498.0 L 1431.2 501.3 L 1435.9 504.4 L 1439.2 506.5 L 1441.4 508.7 L 1444.7 511.8 L 1445.5 509.5 L 1445.5 508.0 L 1442.3 506.9 L 1441.7 505.4 L 1437.9 503.7 L 1433.3 501.3 L 1433.3 498.0 L 1431.2 496.5 L 1426.7 494.1 L 1421.5 491.9 L 1418.4 489.1 L 1411.2 485.4 L 1403.8 484.0 L 1400.6 483.9 L 1409.3 485.8 L 1411.2 487.4 L 1414.6 490.7 L 1414.0 492.4 L 1410.9 492.8 L 1407.9 492.9 L 1402.2 494.0 L 1397.9 494.0 L 1395.1 494.9 L 1394.8 491.0 L 1394.8 487.7 L 1392.9 484.3 L 1392.6 479.4 L 1392.3 473.7 L 1393.6 472.3 L 1400.5 472.3 L 1405.3 463.5 L 1404.1 460.9 L 1410.9 456.8 L 1417.6 453.7 L 1423.0 455.6 L 1424.2 449.9 L 1423.6 447.4 L 1428.9 443.5 L 1431.9 440.4 L 1439.7 432.8 L 1443.8 422.6 L 1454.4 422.6 L 1459.0 418.5 L 1459.8 409.0 L 1461.1 400.4 L 1476.8 380.1 L 1484.0 378.6 L 1485.8 371.7 L 1499.5 364.2 L 1499.5 354.0 L 1481.3 354.0 L 1469.1 354.0 L 1427.7 413.2 L 1380.2 442.8 L 1327.8 457.3 Z M 1314.2 468.5 " fill="#F8B693"></path><path d="M 1261.8 517.2 L 1261.8 503.6 L 1273.5 494.9 L 1273.5 486.8 L 1287.1 486.8 L 1289.8 476.6 L 1304.6 473.7 L 1314.2 473.7 L 1314.2 468.5 L 1325.3 468.5 L 1325.3 461.0 L 1338.1 463.8 L 1350.3 465.2 L 1359.2 465.2 L 1361.5 469.5 L 1364.3 465.2 L 1369.0 473.7 L 1382.1 473.7 L 1387.8 473.7 L 1387.8 466.6 L 1396.2 465.2 L 1396.2 457.8 L 1396.2 450.3 L 1402.8 450.3 L 1413.5 446.4 L 1417.6 437.1 L 1421.5 434.4 L 1431.2 434.4 L 1431.2 423.1 L 1431.2 417.5 L 1443.0 415.2 L 1448.2 415.2 L 1446.3 406.5 L 1437.9 401.7 L 1441.2 392.7 L 1450.5 387.1 L 1457.1 380.5 L 1457.1 374.9 L 1463.2 372.6 L 1467.4 370.2 L 1467.4 357.1 L 1476.8 339.8 L 1476.8 328.1 L 1466.9 333.7 L 1457.6 334.7 L 1454.7 354.3 L 1449.8 362.4 L 1443.5 372.1 L 1436.2 376.9 L 1424.3 385.7 L 1417.6 392.7 L 1412.2 401.7 L 1397.4 406.5 L 1389.7 415.6 L 1379.9 422.2 L 1361.5 426.9 L 1346.5 434.4 L 1327.8 440.9 L 1315.5 448.3 L 1299.2 452.6 L 1289.8 463.2 L 1278.6 466.2 L 1271.9 476.6 L 1263.5 482.9 L 1257.0 494.9 L 1257.0 511.1 Z M 1261.8 517.2 " fill="#B65F4A"></path><path d="M 1257.0 494.9 L 1263.5 482.9 L 1271.9 476.6 L 1280.6 476.6 L 1283.9 471.6 L 1289.8 463.2 L 1294.4 460.3 L 1300.6 460.3 L 1306.8 462.5 L 1306.8 457.1 L 1308.3 452.0 L 1315.5 448.3 L 1319.2 448.3 L 1325.3 450.9 L 1330.8 450.9 L 1333.7 444.0 L 1341.0 444.0 L 1349.7 439.3 L 1354.4 442.5 L 1352.4 446.4 L 1352.4 450.9 L 1357.3 450.9 L 1361.5 448.7 L 1364.2 454.9 L 1369.0 452.7 L 1373.3 456.0 L 1376.7 460.7 L 1376.7 453.8 L 1379.9 453.8 L 1383.5 457.4 L 1385.6 461.4 L 1387.2 453.4 L 1389.0 446.4 L 1396.2 441.4 L 1405.0 441.1 L 1411.5 439.3 L 1417.6 429.1 L 1417.6 424.0 L 1421.7 417.8 L 1431.2 410.6 L 1431.2 406.5 L 1413.7 409.1 L 1412.2 401.7 L 1412.7 395.4 L 1397.4 406.5 L 1389.7 415.6 L 1379.9 422.2 L 1373.3 422.6 L 1361.5 426.9 L 1355.2 424.7 L 1343.4 426.9 L 1330.6 433.5 L 1325.3 434.4 L 1316.2 433.5 L 1304.6 441.8 L 1297.6 446.4 L 1282.8 457.8 L 1274.8 464.7 L 1263.9 476.6 Z M 1257.0 494.9 " fill="#71352F"></path><path d="M 1449.8 362.4 L 1454.2 361.0 L 1460.3 355.0 L 1466.3 350.1 L 1466.3 344.3 L 1471.8 340.0 L 1474.1 332.8 L 1476.8 328.1 L 1476.8 321.3 L 1472.1 326.5 L 1469.8 329.4 L 1466.9 333.7 L 1463.3 341.9 L 1459.4 341.9 L 1456.3 343.4 Z M 1449.8 362.4 " fill="#71352F"></path><path d="M 1611.4 137.7 L 1630.2 140.4 L 1642.4 155.2 L 1653.8 155.2 L 1676.7 154.6 L 1695.6 154.6 L 1707.1 153.2 L 1726.0 152.5 L 1730.7 145.8 L 1736.7 147.1 L 1743.5 157.9 L 1738.8 215.2 L 1735.4 225.3 L 1744.8 213.8 L 1752.9 201.7 L 1761.7 204.4 L 1759.0 195.6 L 1754.3 176.1 L 1765.0 167.4 L 1755.6 159.9 L 1754.3 139.7 L 1767.1 157.9 L 1767.7 143.8 L 1777.9 153.9 L 1777.2 145.8 L 1773.1 131.7 L 1761.7 117.5 L 1749.5 95.9 L 1734.0 82.5 L 1735.4 103.4 L 1730.7 94.6 L 1721.2 87.9 L 1714.5 73.0 L 1723.3 66.7 L 1732.7 68.3 L 1745.5 68.3 L 1755.6 78.4 L 1765.0 77.8 L 1765.0 70.4 L 1765.0 56.9 L 1772.5 53.5 L 1790.7 52.8 L 1798.8 52.8 L 1808.9 52.8 L 1794.0 45.4 L 1782.6 39.4 L 1765.7 32.6 L 1743.5 32.0 L 1733.4 32.0 L 1742.1 46.1 L 1737.4 52.8 L 1722.6 53.5 L 1717.9 61.6 L 1705.1 60.2 L 1706.4 72.4 L 1695.6 77.8 L 1676.1 77.8 L 1677.4 97.3 L 1663.9 97.3 L 1657.9 102.0 L 1668.0 111.4 L 1661.9 118.2 L 1641.7 116.8 L 1630.9 119.5 L 1630.2 126.9 L 1619.5 130.3 Z M 1611.4 137.7 " fill="#371413"></path><path d="M 1624.8 60.2 L 1624.2 54.2 L 1631.6 50.8 L 1637.7 40.7 L 1648.4 25.2 L 1668.0 20.5 L 1688.2 16.5 L 1694.3 15.8 L 1701.7 7.7 L 1710.4 9.7 L 1709.1 20.5 L 1715.2 32.6 L 1704.4 32.6 L 1692.9 27.9 L 1684.8 26.6 L 1673.4 26.6 L 1666.6 31.3 L 1653.8 39.4 L 1641.0 47.5 Z M 1624.8 60.2 " fill="#371413"></path><path d="M 1730.7 25.2 L 1731.3 17.1 L 1737.4 10.4 L 1749.5 3.0 L 1760.3 6.4 L 1773.1 6.4 L 1777.2 14.4 L 1770.4 14.4 L 1750.2 14.4 Z M 1730.7 25.2 " fill="#371413"></path><path d="M 1285.4 558.7 L 1307.0 521.6 L 1335.8 511.8 L 1349.6 511.8 L 1366.9 511.8 L 1397.9 522.9 L 1298.5 558.7 Z M 1285.4 558.7 " fill="#FFDFC9"></path><path d="M 1463.3 498.0 L 1482.1 486.3 L 1494.5 476.6 L 1508.3 464.2 L 1536.6 446.4 L 1573.2 422.7 L 1588.4 413.2 L 1602.9 413.2 L 1597.4 420.6 L 1600.1 429.8 L 1591.9 437.1 L 1587.7 446.4 L 1562.9 460.1 L 1522.2 473.7 L 1509.7 479.4 L 1497.3 488.4 L 1484.2 494.9 Z M 1463.3 498.0 " fill="#F8D2C5"></path><path d="M 1043.5 672.2 C 1043.5 670.7 1041.9 669.5 1040.0 669.5 C 1038.2 669.5 1036.6 670.7 1036.6 672.2 C 1036.6 673.7 1038.2 675.0 1040.0 675.0 C 1041.9 675.0 1043.5 673.7 1043.5 672.2 " fill="#5D4346"></path><path d="M 1066.7 700.9 C 1066.7 699.1 1065.1 697.6 1063.1 697.6 C 1061.1 697.6 1059.5 699.1 1059.5 700.9 C 1059.5 702.7 1061.1 704.1 1063.1 704.1 C 1065.1 704.1 1066.7 702.7 1066.7 700.9 " fill="#2B2830"></path><path d="M 1053.6 678.6 L 1089.6 692.5 C 1089.6 692.5 1094.0 693.0 1091.8 689.7 L 1057.0 676.3 C 1057.0 676.3 1055.7 675.3 1053.6 677.0 Z M 1053.6 678.6 " fill="#A68780"></path><path d="M 1278.2 158.7 L 1272.6 154.4 L 1272.6 140.7 L 1275.9 143.8 L 1280.1 140.1 L 1285.8 139.1 L 1290.9 139.1 L 1299.2 145.6 L 1305.7 141.7 L 1310.9 141.7 L 1318.0 145.5 L 1315.6 149.0 L 1308.2 153.7 L 1299.6 156.7 L 1284.2 156.7 Z M 1278.2 158.7 " fill="#662E2B"></path><path d="M 1350.9 142.7 L 1363.9 134.2 L 1370.9 134.2 L 1373.5 126.4 L 1376.7 131.1 L 1382.9 141.1 L 1390.3 158.7 L 1393.6 168.0 L 1393.6 148.9 L 1398.3 142.2 L 1395.7 154.2 L 1395.7 164.0 L 1400.7 172.7 L 1404.1 174.7 L 1411.1 179.8 L 1417.6 184.7 L 1424.9 184.7 L 1428.1 181.1 L 1432.2 191.3 L 1430.2 195.0 L 1392.6 179.0 L 1387.9 172.7 L 1379.9 166.0 L 1358.2 153.7 Z M 1350.9 142.7 " fill="#B15F4A"></path><path d="M 1403.3 111.4 L 1404.8 118.4 L 1411.6 125.9 L 1418.9 160.2 L 1428.1 181.1 L 1424.9 184.7 L 1421.5 177.4 L 1417.6 177.1 L 1417.6 173.7 L 1417.6 164.3 L 1415.7 160.7 L 1412.5 158.7 L 1413.1 150.9 L 1413.1 143.8 L 1407.4 137.4 L 1407.4 130.4 L 1405.7 126.4 L 1398.0 126.4 L 1396.0 119.0 L 1391.6 115.6 L 1384.2 108.3 L 1389.8 108.3 Z M 1403.3 111.4 " fill="#9F4834"></path><path d="M 1373.5 126.4 L 1382.9 141.1 L 1393.6 168.0 L 1393.6 148.9 L 1398.3 142.2 L 1395.7 154.2 L 1395.7 164.0 L 1400.7 172.7 L 1417.6 184.7 L 1424.9 184.7 L 1421.5 177.4 L 1417.6 177.1 L 1417.6 164.3 L 1415.7 160.7 L 1412.5 158.7 L 1413.1 143.8 L 1407.4 137.4 L 1407.4 130.4 L 1405.7 126.4 L 1398.0 126.4 L 1396.0 119.0 L 1384.2 108.3 L 1380.8 108.3 L 1378.2 111.9 Z M 1373.5 126.4 " fill="#D68661"></path><path d="M 1312.1 198.6 L 1322.4 190.1 L 1322.4 177.0 L 1332.3 165.6 L 1332.3 152.6 L 1334.0 135.7 L 1341.9 132.7 L 1341.9 146.5 L 1341.9 158.7 L 1341.9 178.0 L 1333.7 184.7 L 1331.3 198.6 L 1322.3 205.8 L 1325.2 225.3 L 1333.2 225.3 L 1337.9 216.9 L 1347.8 216.9 L 1358.6 216.9 L 1370.3 204.7 L 1384.2 204.7 L 1387.7 190.1 L 1391.6 184.7 L 1391.6 195.0 L 1397.1 199.1 L 1408.3 203.3 L 1417.6 203.3 L 1421.5 208.5 L 1432.2 212.7 L 1432.2 225.3 L 1436.5 248.8 L 1436.5 261.0 L 1428.1 283.5 L 1424.9 318.2 L 1432.2 309.8 L 1444.5 299.5 L 1452.0 287.5 L 1457.6 269.0 L 1460.5 253.5 L 1463.3 260.1 L 1463.3 265.2 L 1463.3 274.1 L 1457.6 283.1 L 1456.7 292.0 L 1449.8 306.0 L 1448.2 321.3 L 1445.4 328.1 L 1438.9 341.9 L 1437.9 354.8 L 1428.1 367.0 L 1424.9 373.6 L 1424.3 385.7 L 1397.4 406.5 L 1385.6 420.6 L 1387.7 403.6 L 1391.6 393.3 L 1384.2 389.6 L 1377.5 389.1 L 1419.6 310.7 C 1419.6 310.7 1426.7 290.0 1410.0 278.6 C 1393.3 267.1 1319.6 231.9 1319.6 231.9 L 1308.4 226.4 L 1320.6 219.1 L 1321.2 213.6 L 1321.5 207.7 L 1316.5 207.3 L 1308.4 203.5 L 1303.3 203.5 L 1309.2 200.4 Z M 1312.1 198.6 " fill="#2C0810"></path><path d="M 1257.0 511.1 L 1258.7 517.2 L 1262.0 521.4 L 1264.4 525.1 L 1270.1 528.1 L 1275.5 529.0 L 1272.6 525.7 L 1270.4 522.4 L 1269.9 520.1 L 1272.6 515.8 L 1272.6 513.0 L 1277.0 507.4 L 1280.6 502.3 L 1285.4 498.0 L 1292.0 497.0 L 1298.9 494.9 L 1303.3 494.9 L 1309.6 493.2 L 1316.7 493.2 L 1320.8 494.9 L 1325.3 496.5 L 1329.7 498.0 L 1333.5 501.5 L 1337.1 503.8 L 1341.7 507.1 L 1343.4 510.2 L 1345.7 511.8 L 1355.6 511.8 L 1366.9 511.8 L 1374.4 514.5 L 1389.1 519.7 L 1397.9 522.9 L 1402.2 522.9 L 1399.2 517.2 L 1396.1 509.9 L 1390.2 509.2 L 1384.2 509.2 L 1380.3 504.1 L 1380.8 500.0 L 1375.0 494.9 L 1371.9 490.9 L 1368.9 486.8 L 1365.8 483.7 L 1356.7 483.7 L 1348.3 486.0 L 1339.1 483.7 L 1335.3 482.7 L 1331.2 478.4 L 1325.3 475.6 L 1321.8 475.6 L 1314.2 473.7 L 1311.9 477.9 L 1306.0 478.7 L 1295.3 483.0 L 1289.8 486.5 L 1287.1 486.8 L 1279.3 488.6 L 1273.5 486.8 L 1273.5 494.9 L 1261.8 503.6 L 1261.8 517.2 Z M 1257.0 511.1 " fill="#F9C5AF"></path><path d="M 1266.6 519.9 L 1266.6 513.5 L 1270.2 506.1 L 1274.2 501.3 L 1279.1 498.0 L 1286.7 494.9 L 1293.0 493.4 L 1295.3 490.6 L 1299.4 490.6 L 1304.6 490.6 L 1307.8 488.1 L 1314.2 488.1 L 1318.0 484.8 L 1327.1 482.5 L 1331.2 478.4 L 1338.6 474.8 L 1344.1 474.8 L 1340.1 479.9 L 1339.1 483.7 L 1338.1 487.8 L 1341.7 490.4 L 1341.7 496.2 L 1347.0 496.2 L 1340.6 499.8 L 1338.1 499.8 L 1335.5 498.0 L 1329.7 498.0 L 1329.6 492.9 L 1325.3 491.6 L 1318.0 490.4 L 1313.2 490.4 L 1307.8 490.6 L 1297.2 493.0 L 1295.3 494.9 L 1289.8 496.8 L 1283.1 498.6 L 1279.0 501.3 L 1276.7 503.6 L 1274.6 506.6 L 1274.6 508.0 L 1272.6 509.1 L 1269.9 512.7 L 1269.3 517.2 Z M 1266.6 519.9 " fill="#FDE3D4"></path><path d="M 1273.5 486.8 L 1279.3 488.6 L 1287.1 486.8 Z M 1273.5 486.8 " fill="#F8B693"></path><path d="M 1289.8 476.6 L 1287.1 486.8 L 1289.8 486.5 L 1295.3 483.0 L 1306.0 478.7 L 1311.9 477.9 L 1314.2 473.7 L 1304.6 473.7 Z M 1289.8 476.6 " fill="#F8B693"></path><path d="M 1269.9 520.1 L 1275.5 529.0 L 1283.8 529.9 L 1335.8 511.8 L 1325.3 511.8 L 1321.0 509.4 L 1321.0 502.9 L 1322.9 499.9 L 1320.8 494.9 L 1309.6 493.2 L 1298.9 494.9 L 1285.4 498.0 L 1280.6 502.3 L 1272.6 513.0 L 1269.3 517.2 Z M 1269.9 520.1 " fill="#F9D0C4"></path><path d="M 1329.6 503.5 L 1321.8 497.3 L 1321.0 502.9 L 1321.0 509.4 L 1325.3 511.8 L 1335.8 511.8 L 1338.9 511.8 Z M 1329.6 503.5 " fill="#F5DECC"></path><path d="M 1273.5 519.9 L 1272.6 515.8 L 1276.3 511.8 L 1285.4 504.6 L 1296.2 499.3 L 1289.8 504.6 L 1279.0 511.8 L 1275.4 517.2 Z M 1273.5 519.9 " fill="#F5DECC"></path><path d="M 1438.9 218.3 L 1443.0 225.3 L 1443.0 237.9 L 1451.5 237.9 L 1456.7 231.5 L 1464.5 227.6 L 1466.1 215.4 L 1466.8 210.2 L 1466.8 202.5 L 1466.8 191.3 L 1466.8 178.8 L 1466.8 165.6 L 1470.8 181.2 L 1470.8 195.0 L 1470.8 211.8 L 1470.8 227.5 L 1477.2 221.8 L 1485.7 211.4 L 1487.7 204.1 L 1497.8 191.3 L 1501.8 184.7 L 1501.8 165.6 L 1508.7 160.7 L 1508.7 156.2 L 1514.3 146.5 L 1514.3 136.1 L 1523.6 130.5 L 1523.6 121.6 L 1523.6 111.2 L 1523.6 95.5 L 1530.0 92.3 L 1537.2 81.4 L 1543.7 73.8 L 1553.8 60.2 L 1553.8 54.4 L 1559.0 54.4 L 1569.9 42.0 L 1569.9 34.0 L 1571.5 28.4 L 1579.6 30.7 L 1590.7 27.9 L 1596.1 35.9 L 1582.3 44.0 L 1575.9 52.4 L 1574.2 63.2 L 1564.2 67.7 L 1551.9 82.6 L 1547.3 93.7 L 1541.1 99.9 L 1535.1 121.5 L 1530.8 131.3 L 1530.8 144.1 L 1525.0 151.5 L 1495.2 218.3 L 1489.2 225.3 L 1484.5 228.3 L 1480.9 235.6 L 1472.2 238.3 L 1467.9 242.3 L 1467.9 215.6 L 1467.1 218.4 L 1464.5 229.6 L 1464.5 236.9 L 1462.5 243.3 L 1456.2 244.3 L 1449.2 251.3 L 1438.9 253.6 Z M 1438.9 218.3 " fill="#6C372E"></path><path d="M 1445.1 211.1 L 1452.0 217.0 L 1456.9 221.7 L 1459.7 214.5 L 1459.7 206.9 L 1461.9 198.7 L 1461.9 184.7 L 1461.9 171.3 L 1463.3 161.9 L 1456.9 151.8 L 1449.8 142.9 L 1443.6 135.3 L 1436.4 138.7 L 1436.4 132.7 L 1438.9 123.7 L 1438.9 113.5 L 1432.2 104.9 L 1422.6 108.3 L 1419.1 101.4 L 1414.4 92.6 L 1412.2 100.2 L 1412.2 108.3 L 1422.9 152.0 L 1434.4 180.5 Z M 1445.1 211.1 " fill="#F8C8B3"></path><path d="M 1480.2 207.6 L 1486.6 196.0 L 1493.0 193.8 L 1495.2 179.2 L 1498.2 166.9 L 1498.2 154.5 L 1504.1 148.6 L 1510.3 136.0 L 1510.3 124.2 L 1511.5 113.5 L 1511.5 105.4 L 1501.2 117.7 L 1494.7 118.2 L 1490.3 132.7 L 1486.3 117.5 L 1480.2 112.3 L 1472.0 110.8 L 1474.0 123.7 L 1476.2 128.1 L 1482.1 136.8 L 1477.7 150.1 L 1476.0 162.7 L 1472.0 167.4 L 1473.5 173.3 L 1472.0 183.2 L 1472.0 189.4 L 1474.5 196.5 Z M 1480.2 207.6 " fill="#F8C8B3"></path><path d="M 1450.2 75.7 L 1456.0 77.2 L 1458.1 81.2 L 1461.0 75.7 L 1466.9 75.7 L 1467.9 81.2 L 1475.8 77.2 L 1479.3 72.0 L 1482.2 72.0 L 1491.8 72.0 L 1500.5 68.5 L 1504.2 68.5 L 1506.5 76.2 L 1511.5 76.2 L 1515.0 71.4 L 1523.2 71.4 L 1526.9 76.2 L 1529.6 74.9 L 1535.1 73.0 L 1537.2 81.4 L 1553.8 60.2 L 1553.8 54.4 L 1559.0 54.4 L 1569.9 42.0 L 1569.9 34.0 L 1571.5 28.4 L 1562.7 24.8 L 1562.7 17.0 L 1552.4 17.0 L 1525.7 29.7 L 1517.2 33.8 L 1510.2 46.5 L 1497.5 46.5 L 1494.1 55.0 L 1479.4 52.5 L 1472.9 56.1 L 1471.6 58.7 L 1466.7 61.0 L 1465.2 65.1 L 1462.0 70.3 L 1462.0 57.4 L 1456.9 60.7 L 1451.2 73.1 L 1446.0 76.8 L 1441.9 82.5 Z M 1450.2 75.7 " fill="#D59168"></path><path d="M 1479.2 253.6 L 1517.5 248.2 L 1517.5 233.5 L 1517.5 207.6 L 1533.1 207.6 L 1560.5 207.6 L 1560.5 221.7 L 1571.5 202.8 L 1579.6 184.7 L 1602.9 195.0 L 1596.1 173.0 L 1611.4 173.0 L 1624.2 173.0 L 1651.7 182.4 L 1659.2 165.6 L 1669.7 165.6 L 1687.1 165.6 L 1721.4 180.5 L 1740.4 195.0 L 1743.5 157.9 L 1736.7 147.1 L 1726.0 152.5 L 1642.4 155.2 L 1630.2 140.4 L 1611.4 137.7 L 1619.5 130.3 L 1630.2 126.9 L 1630.9 119.5 L 1641.7 116.8 L 1661.9 118.2 L 1668.0 111.4 L 1657.9 102.0 L 1663.9 97.3 L 1677.4 97.3 L 1676.1 77.8 L 1695.6 77.8 L 1706.4 72.4 L 1705.1 60.2 L 1717.9 61.6 L 1722.6 53.5 L 1737.4 52.8 L 1742.1 46.1 L 1733.4 32.0 L 1765.7 32.6 L 1789.2 42.9 L 1813.5 39.9 L 1823.2 27.9 L 1837.4 17.0 L 1852.1 2.0 L 1784.5 14.1 L 1750.2 14.4 L 1730.7 25.2 L 1715.2 32.6 L 1704.4 32.6 L 1692.9 27.9 L 1673.4 26.6 L 1624.8 60.2 L 1603.2 62.8 L 1591.9 68.6 L 1591.9 81.4 L 1582.5 100.1 L 1571.5 108.3 L 1559.1 124.5 L 1550.2 132.9 L 1534.5 159.4 L 1520.9 176.7 L 1511.5 191.3 Z M 1479.2 253.6 " fill="#92574B"></path><path d="M 1770.0 127.8 L 1785.3 127.8 L 1785.3 117.7 L 1774.0 108.4 L 1770.0 100.0 L 1770.0 92.7 L 1777.7 89.9 L 1777.7 82.5 L 1777.7 73.3 L 1781.3 71.7 L 1790.6 71.7 L 1794.2 82.5 L 1814.0 97.9 L 1814.0 118.9 L 1828.9 126.7 L 1842.3 128.6 L 1837.4 114.9 L 1833.0 108.8 L 1826.1 95.9 L 1826.1 82.5 L 1826.9 77.3 L 1836.2 77.3 L 1850.8 82.5 L 1865.3 82.5 L 1861.3 68.5 L 1834.2 64.0 L 1834.2 56.4 L 1835.4 47.5 L 1846.3 47.5 L 1848.7 43.0 L 1865.3 37.4 L 1874.2 37.4 L 1881.9 34.0 L 1889.1 32.0 L 1913.8 32.0 L 1918.0 25.2 L 1918.0 7.7 L 1904.1 7.7 L 1895.6 14.1 L 1877.4 17.0 L 1865.3 22.9 L 1846.7 32.0 L 1835.4 37.4 L 1827.3 46.7 L 1808.9 52.8 L 1772.5 53.5 L 1765.0 56.9 L 1765.0 77.8 L 1755.6 78.4 L 1751.5 74.4 L 1740.9 77.3 L 1734.0 82.5 L 1749.5 95.9 Z M 1770.0 127.8 " fill="#C8764E"></path><path d="M 1735.4 103.4 L 1730.7 94.6 L 1721.2 87.9 L 1714.5 73.0 L 1723.3 66.7 L 1745.5 68.3 L 1751.5 74.4 L 1740.9 77.4 L 1734.0 82.5 Z M 1735.4 103.4 " fill="#4F271E"></path><path d="M 1789.2 42.9 L 1808.9 52.8 L 1827.3 46.7 L 1835.4 37.4 L 1877.4 17.0 L 1895.6 14.1 L 1904.1 7.7 L 1918.0 7.7 L 1918.0 2.0 L 1852.1 2.0 L 1837.4 17.0 L 1823.2 27.9 L 1813.5 39.9 Z M 1789.2 42.9 " fill="#4F271E"></path><path d="M 1760.7 246.6 L 1789.2 231.0 L 1883.3 204.1 L 1918.0 204.1 L 1918.0 122.7 L 1906.4 128.6 L 1904.2 139.1 L 1895.6 139.1 L 1871.3 132.7 L 1859.3 139.1 L 1860.1 156.5 L 1858.6 165.6 L 1839.3 158.7 L 1830.9 146.5 L 1822.0 160.7 L 1808.9 156.5 L 1808.9 148.9 L 1798.8 140.7 L 1792.8 165.6 L 1777.2 165.6 L 1769.7 176.4 L 1769.7 195.0 L 1760.7 215.3 L 1760.7 225.3 L 1753.9 246.6 Z M 1760.7 246.6 " fill="#F7BB9E"></path><path d="M 1710.1 296.0 L 1734.0 276.6 L 1751.5 239.6 L 1714.5 276.6 L 1735.4 225.3 L 1730.8 207.6 L 1700.6 207.6 L 1683.0 228.6 L 1669.7 228.6 L 1644.2 225.3 L 1616.1 216.3 L 1600.2 221.7 L 1589.1 221.7 L 1571.5 251.8 L 1549.2 253.6 L 1539.2 257.3 L 1506.7 272.0 L 1499.5 283.1 L 1476.8 286.7 L 1464.9 289.8 L 1455.6 313.3 L 1455.6 330.6 L 1469.8 329.4 L 1476.8 321.3 L 1476.8 328.1 L 1472.0 348.6 L 1469.1 354.0 L 1499.5 354.0 L 1523.3 348.8 L 1542.7 338.3 L 1560.9 338.3 L 1571.5 339.4 L 1591.9 350.0 L 1596.1 357.6 L 1611.4 357.6 L 1616.7 348.8 L 1644.2 321.3 L 1660.7 307.8 L 1676.5 306.0 L 1681.8 293.7 L 1700.6 288.4 Z M 1710.1 296.0 " fill="#F7BB9E"></path><path d="M 1554.1 434.4 L 1575.8 406.5 L 1582.3 395.4 L 1579.6 383.4 L 1568.2 369.8 L 1561.6 357.6 L 1548.0 354.0 L 1528.5 354.0 L 1499.5 364.2 L 1499.5 354.0 L 1523.3 348.8 L 1542.7 338.3 L 1571.5 339.4 L 1591.9 350.0 L 1596.1 357.6 L 1611.4 357.6 L 1627.3 338.3 L 1660.7 307.8 L 1676.5 306.0 L 1681.8 293.7 L 1700.6 288.4 L 1692.9 300.6 L 1689.3 313.3 L 1678.1 316.0 L 1668.0 341.9 L 1668.0 357.6 L 1671.6 362.4 L 1659.7 381.0 L 1646.1 395.4 L 1629.5 413.2 L 1615.4 422.6 L 1587.7 446.4 L 1600.1 429.8 L 1597.4 420.6 L 1602.9 413.2 L 1588.4 413.2 Z M 1554.1 434.4 " fill="#ECAD8A"></path><path d="M 1588.4 413.2 L 1596.1 401.7 L 1603.6 389.0 L 1620.8 379.8 L 1611.4 389.0 L 1603.6 404.0 Z M 1588.4 413.2 " fill="#D08566"></path><path d="M 1671.6 362.4 L 1695.0 318.0 L 1714.5 297.4 L 1734.0 276.6 L 1710.1 296.0 L 1700.6 288.4 L 1692.9 300.6 L 1689.3 313.3 L 1678.1 316.0 L 1668.0 341.9 L 1668.0 357.6 Z M 1671.6 362.4 " fill="#D08566"></path><path d="M 1087.3 463.5 L 1089.1 463.5 L 1091.4 459.4 L 1092.0 458.3 L 1090.4 457.8 Z M 1087.3 463.5 " fill="#585F79"></path><path d="M 1090.6 464.7 L 1093.5 459.9 L 1099.2 462.3 L 1099.2 464.4 L 1098.3 466.0 L 1097.4 467.7 L 1093.3 466.7 L 1093.2 467.7 L 1092.0 470.2 L 1091.2 470.2 L 1092.0 468.0 Z M 1090.6 464.7 " fill="#585F79"></path><path d="M 1141.8 489.8 L 1146.0 481.4 L 1147.5 484.7 L 1151.3 483.5 L 1146.5 492.0 Z M 1141.8 489.8 " fill="#585F79"></path><path d="M 1193.7 510.8 L 1196.3 506.4 L 1200.9 507.7 L 1203.0 507.1 L 1203.0 508.6 L 1204.2 509.5 L 1201.6 514.1 Z M 1193.7 510.8 " fill="#585F79"></path><path d="M 1191.5 508.1 L 1193.0 508.6 L 1195.6 504.5 L 1200.6 506.1 L 1200.6 505.0 L 1197.5 503.6 L 1197.2 501.9 L 1196.1 503.3 L 1194.4 502.7 Z M 1191.5 508.1 " fill="#585F79"></path><path d="M 1245.7 525.7 C 1245.7 525.1 1244.9 524.6 1243.9 524.6 C 1243.0 524.6 1242.2 525.1 1242.2 525.7 C 1242.2 526.3 1243.0 526.8 1243.9 526.8 C 1244.9 526.8 1245.7 526.3 1245.7 525.7 " fill="#585F79"></path><path d="M 1251.7 528.7 C 1251.7 528.1 1250.9 527.6 1249.9 527.6 C 1249.0 527.6 1248.2 528.1 1248.2 528.7 C 1248.2 529.3 1249.0 529.8 1249.9 529.8 C 1250.9 529.8 1251.7 529.3 1251.7 528.7 " fill="#585F79"></path><path d="M 1257.7 530.7 C 1257.7 530.1 1256.9 529.6 1255.9 529.6 C 1255.0 529.6 1254.2 530.1 1254.2 530.7 C 1254.2 531.3 1255.0 531.8 1255.9 531.8 C 1256.9 531.8 1257.7 531.3 1257.7 530.7 " fill="#585F79"></path><path d="M 1089.4 425.9 L 1110.1 434.0 L 1120.1 414.9 L 1099.7 405.6 Z M 1089.4 425.9 " fill="#585F79"></path><path d="M 1126.1 388.5 L 1126.6 387.4 L 1125.0 386.6 L 1125.8 385.7 L 1127.0 386.4 L 1128.0 384.8 L 1128.7 385.2 L 1127.9 386.7 L 1129.3 387.5 L 1129.0 388.0 L 1127.5 387.5 L 1126.9 388.9 Z M 1126.1 388.5 " fill="#585F79"></path><path d="M 1124.7 387.6 C 1124.7 387.6 1123.0 387.1 1123.9 385.1 L 1119.7 383.3 C 1119.7 383.3 1117.5 385.6 1119.7 387.1 C 1119.7 387.1 1121.4 388.1 1120.6 389.5 C 1120.6 389.5 1118.7 390.2 1118.1 391.8 C 1118.1 391.8 1116.4 393.7 1118.1 394.7 C 1119.8 395.7 1120.8 393.8 1120.8 393.8 C 1120.8 393.8 1122.3 390.8 1121.6 390.1 C 1121.6 390.1 1122.9 388.5 1124.0 388.7 C 1125.1 388.8 1125.5 387.8 1125.5 387.8 Z M 1124.7 387.6 " fill="#585F79"></path><path d="M 1001.3 580.5 L 1208.2 660.2 L 1266.6 554.9 L 1059.3 468.1 Z M 1001.3 580.5 " fill="#1B112B"></path><path d="M 1038.4 529.8 L 1087.3 548.6 L 1108.9 505.2 L 1061.6 484.0 Z M 1038.4 529.8 " fill="#CA9454"></path></g></g></g></g></g></svg>