<?xml version="1.0" encoding="UTF-8" standalone="no"?><svg xmlns="http://www.w3.org/2000/svg" xmlns:xlink="http://www.w3.org/1999/xlink" clip-rule="evenodd" stroke-miterlimit="4.00" viewBox="0 0 261 81"><desc>SVG generated by Keynote</desc><defs></defs><g transform="matrix(1.00, 0.00, -0.00, -1.00, 0.0, 81.0)"><image xlink:href="../../630B267F-201F-4C35-888F-F5AF00E345B7/assets/BA496F7B304C149A9E6475BA8313A9B3.png" width="258.00" height="79.00" transform="matrix(1.00, 0.00, -0.00, -1.00, 1.8, 79.9)" opacity="0.80"></image><path d="M 7.8 73.9 L 253.9 73.9 L 253.9 7.2 L 7.8 7.2 Z M 7.8 73.9 " fill="#52575F"></path><image xlink:href="9B4CA68360C50848EEADAA43BFC0A0B7.png" width="202.00" height="23.00" transform="matrix(1.00, 0.00, -0.00, -1.00, 30.0, 50.0)"></image><g><clipPath id="clip-9"><path d="M 5.3 7.2 L 259.0 7.2 L 259.0 73.9 L 5.3 73.9 Z M 5.3 7.2 "></path></clipPath><g clip-path="url(#clip-9)"><text xml:space="preserve" font-family="Helvetica-Light" font-size="24.0" fill="#FEFFFF" transform="matrix(1.00, 0.00, -0.00, -1.00, 31.0, 31.0)">T</text><text xml:space="preserve" font-family="Helvetica-Light" font-size="24.0" fill="#FEFFFF" transform="matrix(1.00, 0.00, -0.00, -1.00, 42.1, 31.0)">u</text><text xml:space="preserve" font-family="Helvetica-Light" font-size="24.0" fill="#FEFFFF" transform="matrix(1.00, 0.00, -0.00, -1.00, 55.5, 31.0)">r</text><text xml:space="preserve" font-family="Helvetica-Light" font-size="24.0" fill="#FEFFFF" transform="matrix(1.00, 0.00, -0.00, -1.00, 63.9, 31.0)">n</text><text xml:space="preserve" font-family="Helvetica-Light" font-size="24.0" fill="#FEFFFF" transform="matrix(1.00, 0.00, -0.00, -1.00, 77.2, 31.0)"> </text><text xml:space="preserve" font-family="Helvetica-Light" font-size="24.0" fill="#FEFFFF" transform="matrix(1.00, 0.00, -0.00, -1.00, 83.9, 31.0)">t</text><text xml:space="preserve" font-family="Helvetica-Light" font-size="24.0" fill="#FEFFFF" transform="matrix(1.00, 0.00, -0.00, -1.00, 90.6, 31.0)">o</text><text xml:space="preserve" font-family="Helvetica-Light" font-size="24.0" fill="#FEFFFF" transform="matrix(1.00, 0.00, -0.00, -1.00, 103.9, 31.0)"> </text><text xml:space="preserve" font-family="Helvetica-Light" font-size="24.0" fill="#FEFFFF" transform="matrix(1.00, 0.00, -0.00, -1.00, 110.6, 31.0)">t</text><text xml:space="preserve" font-family="Helvetica-Light" font-size="24.0" fill="#FEFFFF" transform="matrix(1.00, 0.00, -0.00, -1.00, 117.3, 31.0)">h</text><text xml:space="preserve" font-family="Helvetica-Light" font-size="24.0" fill="#FEFFFF" transform="matrix(1.00, 0.00, -0.00, -1.00, 130.6, 31.0)">e</text><text xml:space="preserve" font-family="Helvetica-Light" font-size="24.0" fill="#FEFFFF" transform="matrix(1.00, 0.00, -0.00, -1.00, 144.0, 31.0)"> </text><text xml:space="preserve" font-family="Helvetica-Light" font-size="24.0" fill="#FEFFFF" transform="matrix(1.00, 0.00, -0.00, -1.00, 150.6, 31.0)">m</text><text xml:space="preserve" font-family="Helvetica-Light" font-size="24.0" fill="#FEFFFF" transform="matrix(1.00, 0.00, -0.00, -1.00, 170.6, 31.0)">a</text><text xml:space="preserve" font-family="Helvetica-Light" font-size="24.0" fill="#FEFFFF" transform="matrix(1.00, 0.00, -0.00, -1.00, 184.0, 31.0)">r</text><text xml:space="preserve" font-family="Helvetica-Light" font-size="24.0" fill="#FEFFFF" transform="matrix(1.00, 0.00, -0.00, -1.00, 192.0, 31.0)">i</text><text xml:space="preserve" font-family="Helvetica-Light" font-size="24.0" fill="#FEFFFF" transform="matrix(1.00, 0.00, -0.00, -1.00, 197.3, 31.0)">n</text><text xml:space="preserve" font-family="Helvetica-Light" font-size="24.0" fill="#FEFFFF" transform="matrix(1.00, 0.00, -0.00, -1.00, 210.6, 31.0)">a</text><text xml:space="preserve" font-family="Helvetica-Light" font-size="24.0" fill="#FEFFFF" transform="matrix(1.00, 0.00, -0.00, -1.00, 224.0, 31.0)">.</text></g></g></g></svg>