<?xml version="1.0" encoding="UTF-8" standalone="no"?><svg xmlns="http://www.w3.org/2000/svg" xmlns:xlink="http://www.w3.org/1999/xlink" clip-rule="evenodd" stroke-miterlimit="4.00" viewBox="0 0 416 132"><desc>SVG generated by Keynote</desc><defs></defs><g transform="matrix(1.00, 0.00, -0.00, -1.00, 0.0, 132.0)"><text xml:space="preserve" font-family="Helvetica-Light" font-size="28.0" fill="#FEFFFF" transform="matrix(1.00, 0.00, -0.00, -1.00, 2.0, 109.0)">Y</text><text xml:space="preserve" font-family="Helvetica-Light" font-size="28.0" fill="#FEFFFF" transform="matrix(1.00, 0.00, -0.00, -1.00, 16.5, 109.0)">o</text><text xml:space="preserve" font-family="Helvetica-Light" font-size="28.0" fill="#FEFFFF" transform="matrix(1.00, 0.00, -0.00, -1.00, 32.1, 109.0)">u</text><text xml:space="preserve" font-family="Helvetica-Light" font-size="28.0" fill="#FEFFFF" transform="matrix(1.00, 0.00, -0.00, -1.00, 47.7, 109.0)">’</text><text xml:space="preserve" font-family="Helvetica-Light" font-size="28.0" fill="#FEFFFF" transform="matrix(1.00, 0.00, -0.00, -1.00, 53.9, 109.0)">r</text><text xml:space="preserve" font-family="Helvetica-Light" font-size="28.0" fill="#FEFFFF" transform="matrix(1.00, 0.00, -0.00, -1.00, 62.7, 109.0)">e</text><text xml:space="preserve" font-family="Helvetica-Light" font-size="28.0" fill="#FEFFFF" transform="matrix(1.00, 0.00, -0.00, -1.00, 78.3, 109.0)"> </text><text xml:space="preserve" font-family="Helvetica-Light" font-size="28.0" fill="#FEFFFF" transform="matrix(1.00, 0.00, -0.00, -1.00, 86.1, 109.0)">d</text><text xml:space="preserve" font-family="Helvetica-Light" font-size="28.0" fill="#FEFFFF" transform="matrix(1.00, 0.00, -0.00, -1.00, 103.2, 109.0)">r</text><text xml:space="preserve" font-family="Helvetica-Light" font-size="28.0" fill="#FEFFFF" transform="matrix(1.00, 0.00, -0.00, -1.00, 112.5, 109.0)">i</text><text xml:space="preserve" font-family="Helvetica-Light" font-size="28.0" fill="#FEFFFF" transform="matrix(1.00, 0.00, -0.00, -1.00, 118.7, 109.0)">v</text><text xml:space="preserve" font-family="Helvetica-Light" font-size="28.0" fill="#FEFFFF" transform="matrix(1.00, 0.00, -0.00, -1.00, 132.7, 109.0)">i</text><text xml:space="preserve" font-family="Helvetica-Light" font-size="28.0" fill="#FEFFFF" transform="matrix(1.00, 0.00, -0.00, -1.00, 138.9, 109.0)">n</text><text xml:space="preserve" font-family="Helvetica-Light" font-size="28.0" fill="#FEFFFF" transform="matrix(1.00, 0.00, -0.00, -1.00, 154.5, 109.0)">g</text><text xml:space="preserve" font-family="Helvetica-Light" font-size="28.0" fill="#FEFFFF" transform="matrix(1.00, 0.00, -0.00, -1.00, 171.6, 109.0)"> </text><text xml:space="preserve" font-family="Helvetica-Light" font-size="28.0" fill="#FEFFFF" transform="matrix(1.00, 0.00, -0.00, -1.00, 179.4, 109.0)">d</text><text xml:space="preserve" font-family="Helvetica-Light" font-size="28.0" fill="#FEFFFF" transform="matrix(1.00, 0.00, -0.00, -1.00, 196.5, 109.0)">o</text><text xml:space="preserve" font-family="Helvetica-Light" font-size="28.0" fill="#FEFFFF" transform="matrix(1.00, 0.00, -0.00, -1.00, 212.1, 109.0)">w</text><text xml:space="preserve" font-family="Helvetica-Light" font-size="28.0" fill="#FEFFFF" transform="matrix(1.00, 0.00, -0.00, -1.00, 232.3, 109.0)">n</text><text xml:space="preserve" font-family="Helvetica-Light" font-size="28.0" fill="#FEFFFF" transform="matrix(1.00, 0.00, -0.00, -1.00, 247.8, 109.0)"> </text><text xml:space="preserve" font-family="Helvetica-Light" font-size="28.0" fill="#FEFFFF" transform="matrix(1.00, 0.00, -0.00, -1.00, 255.6, 109.0)">t</text><text xml:space="preserve" font-family="Helvetica-Light" font-size="28.0" fill="#FEFFFF" transform="matrix(1.00, 0.00, -0.00, -1.00, 263.4, 109.0)">h</text><text xml:space="preserve" font-family="Helvetica-Light" font-size="28.0" fill="#FEFFFF" transform="matrix(1.00, 0.00, -0.00, -1.00, 279.0, 109.0)">e</text><text xml:space="preserve" font-family="Helvetica-Light" font-size="28.0" fill="#FEFFFF" transform="matrix(1.00, 0.00, -0.00, -1.00, 294.5, 109.0)"> </text><text xml:space="preserve" font-family="Helvetica-Light" font-size="28.0" fill="#FEFFFF" transform="matrix(1.00, 0.00, -0.00, -1.00, 302.3, 109.0)">r</text><text xml:space="preserve" font-family="Helvetica-Light" font-size="28.0" fill="#FEFFFF" transform="matrix(1.00, 0.00, -0.00, -1.00, 311.1, 109.0)">o</text><text xml:space="preserve" font-family="Helvetica-Light" font-size="28.0" fill="#FEFFFF" transform="matrix(1.00, 0.00, -0.00, -1.00, 326.7, 109.0)">a</text><text xml:space="preserve" font-family="Helvetica-Light" font-size="28.0" fill="#FEFFFF" transform="matrix(1.00, 0.00, -0.00, -1.00, 342.3, 109.0)">d</text><text xml:space="preserve" font-family="Helvetica-Light" font-size="28.0" fill="#FEFFFF" transform="matrix(1.00, 0.00, -0.00, -1.00, 359.4, 109.0)"> </text><text xml:space="preserve" font-family="Helvetica-Light" font-size="28.0" fill="#FEFFFF" transform="matrix(1.00, 0.00, -0.00, -1.00, 367.2, 109.0)">o</text><text xml:space="preserve" font-family="Helvetica-Light" font-size="28.0" fill="#FEFFFF" transform="matrix(1.00, 0.00, -0.00, -1.00, 382.7, 109.0)">n</text><text xml:space="preserve" font-family="Helvetica-Light" font-size="28.0" fill="#FEFFFF" transform="matrix(1.00, 0.00, -0.00, -1.00, 398.3, 109.0)">e</text><text xml:space="preserve" font-family="Helvetica-Light" font-size="28.0" fill="#FEFFFF" transform="matrix(1.00, 0.00, -0.00, -1.00, 413.9, 109.0)"> </text><text xml:space="preserve" font-family="Helvetica-Light" font-size="28.0" fill="#FEFFFF" transform="matrix(1.00, 0.00, -0.00, -1.00, 2.0, 75.0)">S</text><text xml:space="preserve" font-family="Helvetica-Light" font-size="28.0" fill="#FEFFFF" transform="matrix(1.00, 0.00, -0.00, -1.00, 19.1, 75.0)">a</text><text xml:space="preserve" font-family="Helvetica-Light" font-size="28.0" fill="#FEFFFF" transform="matrix(1.00, 0.00, -0.00, -1.00, 34.7, 75.0)">t</text><text xml:space="preserve" font-family="Helvetica-Light" font-size="28.0" fill="#FEFFFF" transform="matrix(1.00, 0.00, -0.00, -1.00, 42.5, 75.0)">u</text><text xml:space="preserve" font-family="Helvetica-Light" font-size="28.0" fill="#FEFFFF" transform="matrix(1.00, 0.00, -0.00, -1.00, 58.0, 75.0)">r</text><text xml:space="preserve" font-family="Helvetica-Light" font-size="28.0" fill="#FEFFFF" transform="matrix(1.00, 0.00, -0.00, -1.00, 66.8, 75.0)">d</text><text xml:space="preserve" font-family="Helvetica-Light" font-size="28.0" fill="#FEFFFF" transform="matrix(1.00, 0.00, -0.00, -1.00, 84.0, 75.0)">a</text><text xml:space="preserve" font-family="Helvetica-Light" font-size="28.0" fill="#FEFFFF" transform="matrix(1.00, 0.00, -0.00, -1.00, 99.5, 75.0)">y</text><text xml:space="preserve" font-family="Helvetica-Light" font-size="28.0" fill="#FEFFFF" transform="matrix(1.00, 0.00, -0.00, -1.00, 113.5, 75.0)"> </text><text xml:space="preserve" font-family="Helvetica-Light" font-size="28.0" fill="#FEFFFF" transform="matrix(1.00, 0.00, -0.00, -1.00, 121.3, 75.0)">m</text><text xml:space="preserve" font-family="Helvetica-Light" font-size="28.0" fill="#FEFFFF" transform="matrix(1.00, 0.00, -0.00, -1.00, 144.6, 75.0)">o</text><text xml:space="preserve" font-family="Helvetica-Light" font-size="28.0" fill="#FEFFFF" transform="matrix(1.00, 0.00, -0.00, -1.00, 160.2, 75.0)">r</text><text xml:space="preserve" font-family="Helvetica-Light" font-size="28.0" fill="#FEFFFF" transform="matrix(1.00, 0.00, -0.00, -1.00, 170.0, 75.0)">n</text><text xml:space="preserve" font-family="Helvetica-Light" font-size="28.0" fill="#FEFFFF" transform="matrix(1.00, 0.00, -0.00, -1.00, 185.6, 75.0)">i</text><text xml:space="preserve" font-family="Helvetica-Light" font-size="28.0" fill="#FEFFFF" transform="matrix(1.00, 0.00, -0.00, -1.00, 191.8, 75.0)">n</text><text xml:space="preserve" font-family="Helvetica-Light" font-size="28.0" fill="#FEFFFF" transform="matrix(1.00, 0.00, -0.00, -1.00, 207.4, 75.0)">g</text><text xml:space="preserve" font-family="Helvetica-Light" font-size="28.0" fill="#FEFFFF" transform="matrix(1.00, 0.00, -0.00, -1.00, 224.5, 75.0)">.</text><text xml:space="preserve" font-family="Helvetica-Light" font-size="28.0" fill="#FEFFFF" transform="matrix(1.00, 0.00, -0.00, -1.00, 232.3, 75.0)"> </text><text xml:space="preserve" font-family="Helvetica-Light" font-size="28.0" fill="#FEFFFF" transform="matrix(1.00, 0.00, -0.00, -1.00, 240.1, 75.0)"> </text><text xml:space="preserve" font-family="Helvetica-Light" font-size="28.0" fill="#FEFFFF" transform="matrix(1.00, 0.00, -0.00, -1.00, 2.0, 41.0)">Y</text><text xml:space="preserve" font-family="Helvetica-Light" font-size="28.0" fill="#FEFFFF" transform="matrix(1.00, 0.00, -0.00, -1.00, 16.5, 41.0)">o</text><text xml:space="preserve" font-family="Helvetica-Light" font-size="28.0" fill="#FEFFFF" transform="matrix(1.00, 0.00, -0.00, -1.00, 32.1, 41.0)">u</text><text xml:space="preserve" font-family="Helvetica-Light" font-size="28.0" fill="#FEFFFF" transform="matrix(1.00, 0.00, -0.00, -1.00, 47.7, 41.0)"> </text><text xml:space="preserve" font-family="Helvetica-Light" font-size="28.0" fill="#FEFFFF" transform="matrix(1.00, 0.00, -0.00, -1.00, 55.5, 41.0)">a</text><text xml:space="preserve" font-family="Helvetica-Light" font-size="28.0" fill="#FEFFFF" transform="matrix(1.00, 0.00, -0.00, -1.00, 71.0, 41.0)">p</text><text xml:space="preserve" font-family="Helvetica-Light" font-size="28.0" fill="#FEFFFF" transform="matrix(1.00, 0.00, -0.00, -1.00, 88.1, 41.0)">p</text><text xml:space="preserve" font-family="Helvetica-Light" font-size="28.0" fill="#FEFFFF" transform="matrix(1.00, 0.00, -0.00, -1.00, 105.2, 41.0)">r</text><text xml:space="preserve" font-family="Helvetica-Light" font-size="28.0" fill="#FEFFFF" transform="matrix(1.00, 0.00, -0.00, -1.00, 114.1, 41.0)">o</text><text xml:space="preserve" font-family="Helvetica-Light" font-size="28.0" fill="#FEFFFF" transform="matrix(1.00, 0.00, -0.00, -1.00, 129.6, 41.0)">a</text><text xml:space="preserve" font-family="Helvetica-Light" font-size="28.0" fill="#FEFFFF" transform="matrix(1.00, 0.00, -0.00, -1.00, 145.2, 41.0)">c</text><text xml:space="preserve" font-family="Helvetica-Light" font-size="28.0" fill="#FEFFFF" transform="matrix(1.00, 0.00, -0.00, -1.00, 160.8, 41.0)">h</text><text xml:space="preserve" font-family="Helvetica-Light" font-size="28.0" fill="#FEFFFF" transform="matrix(1.00, 0.00, -0.00, -1.00, 176.3, 41.0)"> </text><text xml:space="preserve" font-family="Helvetica-Light" font-size="28.0" fill="#FEFFFF" transform="matrix(1.00, 0.00, -0.00, -1.00, 184.1, 41.0)">a</text><text xml:space="preserve" font-family="Helvetica-Light" font-size="28.0" fill="#FEFFFF" transform="matrix(1.00, 0.00, -0.00, -1.00, 199.7, 41.0)"> </text><text xml:space="preserve" font-family="Helvetica-Light" font-size="28.0" fill="#FEFFFF" transform="matrix(1.00, 0.00, -0.00, -1.00, 207.5, 41.0)">f</text><text xml:space="preserve" font-family="Helvetica-Light" font-size="28.0" fill="#FEFFFF" transform="matrix(1.00, 0.00, -0.00, -1.00, 215.2, 41.0)">o</text><text xml:space="preserve" font-family="Helvetica-Light" font-size="28.0" fill="#FEFFFF" transform="matrix(1.00, 0.00, -0.00, -1.00, 230.8, 41.0)">r</text><text xml:space="preserve" font-family="Helvetica-Light" font-size="28.0" fill="#FEFFFF" transform="matrix(1.00, 0.00, -0.00, -1.00, 240.1, 41.0)">k</text><text xml:space="preserve" font-family="Helvetica-Light" font-size="28.0" fill="#FEFFFF" transform="matrix(1.00, 0.00, -0.00, -1.00, 254.1, 41.0)"> </text><text xml:space="preserve" font-family="Helvetica-Light" font-size="28.0" fill="#FEFFFF" transform="matrix(1.00, 0.00, -0.00, -1.00, 261.9, 41.0)">i</text><text xml:space="preserve" font-family="Helvetica-Light" font-size="28.0" fill="#FEFFFF" transform="matrix(1.00, 0.00, -0.00, -1.00, 268.1, 41.0)">n</text><text xml:space="preserve" font-family="Helvetica-Light" font-size="28.0" fill="#FEFFFF" transform="matrix(1.00, 0.00, -0.00, -1.00, 283.7, 41.0)"> </text><text xml:space="preserve" font-family="Helvetica-Light" font-size="28.0" fill="#FEFFFF" transform="matrix(1.00, 0.00, -0.00, -1.00, 291.5, 41.0)">t</text><text xml:space="preserve" font-family="Helvetica-Light" font-size="28.0" fill="#FEFFFF" transform="matrix(1.00, 0.00, -0.00, -1.00, 299.3, 41.0)">h</text><text xml:space="preserve" font-family="Helvetica-Light" font-size="28.0" fill="#FEFFFF" transform="matrix(1.00, 0.00, -0.00, -1.00, 314.8, 41.0)">e</text><text xml:space="preserve" font-family="Helvetica-Light" font-size="28.0" fill="#FEFFFF" transform="matrix(1.00, 0.00, -0.00, -1.00, 330.4, 41.0)"> </text><text xml:space="preserve" font-family="Helvetica-Light" font-size="28.0" fill="#FEFFFF" transform="matrix(1.00, 0.00, -0.00, -1.00, 338.2, 41.0)">r</text><text xml:space="preserve" font-family="Helvetica-Light" font-size="28.0" fill="#FEFFFF" transform="matrix(1.00, 0.00, -0.00, -1.00, 347.0, 41.0)">o</text><text xml:space="preserve" font-family="Helvetica-Light" font-size="28.0" fill="#FEFFFF" transform="matrix(1.00, 0.00, -0.00, -1.00, 362.6, 41.0)">a</text><text xml:space="preserve" font-family="Helvetica-Light" font-size="28.0" fill="#FEFFFF" transform="matrix(1.00, 0.00, -0.00, -1.00, 378.2, 41.0)">d</text><text xml:space="preserve" font-family="Helvetica-Light" font-size="28.0" fill="#FEFFFF" transform="matrix(1.00, 0.00, -0.00, -1.00, 395.3, 41.0)">.</text><text xml:space="preserve" font-family="Helvetica-Light" font-size="28.0" fill="#FEFFFF" transform="matrix(1.00, 0.00, -0.00, -1.00, 403.0, 41.0)"> </text><text xml:space="preserve" font-family="Helvetica-Light" font-size="28.0" fill="#FEFFFF" transform="matrix(1.00, 0.00, -0.00, -1.00, 2.0, 7.0)">W</text><text xml:space="preserve" font-family="Helvetica-Light" font-size="28.0" fill="#FEFFFF" transform="matrix(1.00, 0.00, -0.00, -1.00, 26.9, 7.0)">h</text><text xml:space="preserve" font-family="Helvetica-Light" font-size="28.0" fill="#FEFFFF" transform="matrix(1.00, 0.00, -0.00, -1.00, 42.5, 7.0)">i</text><text xml:space="preserve" font-family="Helvetica-Light" font-size="28.0" fill="#FEFFFF" transform="matrix(1.00, 0.00, -0.00, -1.00, 48.7, 7.0)">c</text><text xml:space="preserve" font-family="Helvetica-Light" font-size="28.0" fill="#FEFFFF" transform="matrix(1.00, 0.00, -0.00, -1.00, 64.2, 7.0)">h</text><text xml:space="preserve" font-family="Helvetica-Light" font-size="28.0" fill="#FEFFFF" transform="matrix(1.00, 0.00, -0.00, -1.00, 79.8, 7.0)"> </text><text xml:space="preserve" font-family="Helvetica-Light" font-size="28.0" fill="#FEFFFF" transform="matrix(1.00, 0.00, -0.00, -1.00, 87.6, 7.0)">p</text><text xml:space="preserve" font-family="Helvetica-Light" font-size="28.0" fill="#FEFFFF" transform="matrix(1.00, 0.00, -0.00, -1.00, 104.7, 7.0)">a</text><text xml:space="preserve" font-family="Helvetica-Light" font-size="28.0" fill="#FEFFFF" transform="matrix(1.00, 0.00, -0.00, -1.00, 120.3, 7.0)">t</text><text xml:space="preserve" font-family="Helvetica-Light" font-size="28.0" fill="#FEFFFF" transform="matrix(1.00, 0.00, -0.00, -1.00, 128.1, 7.0)">h</text><text xml:space="preserve" font-family="Helvetica-Light" font-size="28.0" fill="#FEFFFF" transform="matrix(1.00, 0.00, -0.00, -1.00, 143.6, 7.0)"> </text><text xml:space="preserve" font-family="Helvetica-Light" font-size="28.0" fill="#FEFFFF" transform="matrix(1.00, 0.00, -0.00, -1.00, 151.4, 7.0)">d</text><text xml:space="preserve" font-family="Helvetica-Light" font-size="28.0" fill="#FEFFFF" transform="matrix(1.00, 0.00, -0.00, -1.00, 168.5, 7.0)">o</text><text xml:space="preserve" font-family="Helvetica-Light" font-size="28.0" fill="#FEFFFF" transform="matrix(1.00, 0.00, -0.00, -1.00, 184.1, 7.0)"> </text><text xml:space="preserve" font-family="Helvetica-Light" font-size="28.0" fill="#FEFFFF" transform="matrix(1.00, 0.00, -0.00, -1.00, 191.9, 7.0)">y</text><text xml:space="preserve" font-family="Helvetica-Light" font-size="28.0" fill="#FEFFFF" transform="matrix(1.00, 0.00, -0.00, -1.00, 205.9, 7.0)">o</text><text xml:space="preserve" font-family="Helvetica-Light" font-size="28.0" fill="#FEFFFF" transform="matrix(1.00, 0.00, -0.00, -1.00, 221.4, 7.0)">u</text><text xml:space="preserve" font-family="Helvetica-Light" font-size="28.0" fill="#FEFFFF" transform="matrix(1.00, 0.00, -0.00, -1.00, 237.0, 7.0)"> </text><text xml:space="preserve" font-family="Helvetica-Light" font-size="28.0" fill="#FEFFFF" transform="matrix(1.00, 0.00, -0.00, -1.00, 244.8, 7.0)">c</text><text xml:space="preserve" font-family="Helvetica-Light" font-size="28.0" fill="#FEFFFF" transform="matrix(1.00, 0.00, -0.00, -1.00, 260.4, 7.0)">h</text><text xml:space="preserve" font-family="Helvetica-Light" font-size="28.0" fill="#FEFFFF" transform="matrix(1.00, 0.00, -0.00, -1.00, 275.9, 7.0)">o</text><text xml:space="preserve" font-family="Helvetica-Light" font-size="28.0" fill="#FEFFFF" transform="matrix(1.00, 0.00, -0.00, -1.00, 291.5, 7.0)">o</text><text xml:space="preserve" font-family="Helvetica-Light" font-size="28.0" fill="#FEFFFF" transform="matrix(1.00, 0.00, -0.00, -1.00, 307.1, 7.0)">s</text><text xml:space="preserve" font-family="Helvetica-Light" font-size="28.0" fill="#FEFFFF" transform="matrix(1.00, 0.00, -0.00, -1.00, 321.1, 7.0)">e</text><text xml:space="preserve" font-family="Helvetica-Light" font-size="28.0" fill="#FEFFFF" transform="matrix(1.00, 0.00, -0.00, -1.00, 336.6, 7.0)">?</text></g></svg>